<?xml version="1.0" encoding="UTF-8"?>
<svg xmlns="http://www.w3.org/2000/svg" xmlns:xlink="http://www.w3.org/1999/xlink" viewBox="0 0 314 638">
  <defs>
    <style>.cls-1{isolation:isolate;}.cls-2{opacity:0.1;mix-blend-mode:multiply;}.cls-3{fill:#000000;}</style>
  </defs>
  <title>ArrowBarNumberBackground</title>
  <g class="cls-1">
    <g id="Layer_2" data-name="Layer 2">
      <g id="Layer_1-2" data-name="Layer 1">
        <image class="cls-2" width="314" height="638"></image>
        <path class="cls-3" d="M30.59,319q0-123.6-.06-247.21c0-16.56,11.69-32.24,26.76-37.68a62.52,62.52,0,0,1,20.5-3.61c54-.28,107.94-.16,161.92-.16,21,0,39.88,15.86,43.33,36.38a24.82,24.82,0,0,1,.12,4q0,248.31-.07,496.64c0,14.28-7.46,24.91-19,32.68-8.52,5.71-18,7.76-28.29,7.73-54.12-.15-108.24-.06-162.36-.08-20.41,0-39.69-16.53-42.69-36.59a32.49,32.49,0,0,1-.1-4.84Q30.59,442.62,30.59,319ZM280.53,319q0-119.4,0-238.81a100.66,100.66,0,0,0-.87-13.1c-1.68-12.66-8.56-21.8-19.54-28C252.24,34.68,243.7,33,234.81,33q-70.6,0-141.22,0a227.21,227.21,0,0,0-23.2.91c-21.93,2.29-37,18-37.06,39.47q-.27,245.64.1,491.28a42.05,42.05,0,0,0,4.57,18c8.06,16.27,22.86,22.12,39.85,22.23,52.65.32,105.29.13,157.94.07a47.27,47.27,0,0,0,11.29-1.06c20.71-5.23,33.4-18.89,33.42-41.3Q280.61,440.78,280.53,319Z"></path>
        <path class="cls-3" d="M280.53,319q0,121.83,0,243.66c0,22.41-12.71,36.07-33.42,41.3A47.27,47.27,0,0,1,235.79,605c-52.65.06-105.29.25-157.94-.07-17-.11-31.79-6-39.85-22.23a42.05,42.05,0,0,1-4.57-18Q33.06,319,33.33,73.41c0-21.43,15.13-37.18,37.06-39.47A227.21,227.21,0,0,1,93.59,33q70.6-.12,141.22,0c8.89,0,17.43,1.68,25.27,6.08,11,6.16,17.86,15.3,19.54,28a100.66,100.66,0,0,1,.87,13.1Q280.57,199.54,280.53,319Zm-3.52.51q0-123.36-.12-246.73a36.28,36.28,0,0,0-2.8-13.58c-6.56-15.63-19.6-22.37-35.59-22.49-53.37-.39-106.75-.17-160.12-.11a64,64,0,0,0-10.88.92c-17.36,3-30.72,17.64-30.72,33.9q-.06,247.61.09,495.22a32.44,32.44,0,0,0,2.78,12.27c6.63,15.61,19.62,22.36,35.61,22.48,53.37.39,106.75.17,160.12.11a64,64,0,0,0,10.88-.92C264.91,597.31,277,582.85,277,564Z"></path>
        <path class="cls-3" d="M277,319.46V564c0,18.86-12.1,33.32-30.75,36.54a64,64,0,0,1-10.88.92c-53.37.06-106.75.28-160.12-.11-16-.12-29-6.87-35.61-22.48a32.44,32.44,0,0,1-2.78-12.27Q36.66,319,36.78,71.37c0-16.26,13.36-30.91,30.72-33.9a64,64,0,0,1,10.88-.92c53.37-.06,106.75-.28,160.12.11,16,.12,29,6.86,35.59,22.49a36.28,36.28,0,0,1,2.8,13.58Q277.13,196.1,277,319.46Z"></path>
      </g>
    </g>
  </g>
</svg>
