<svg xmlns="http://www.w3.org/2000/svg" viewBox="0 0 195.15 107.75"><defs><style>.cls-1{fill:#464547;}</style></defs><title>ArrowDown1</title><g id="Layer_2" data-name="Layer 2"><g id="Layer_1-2" data-name="Layer 1"><path class="cls-1" d="M97.46,94.7l47.39-49.32L183.94,4.66a35.84,35.84,0,0,1,2.88-2.77c2.46-2,5.65-2.89,7.44-.13a8.46,8.46,0,0,1,.05,7.46c-2,3.35-5.26,5.95-8,8.84q-41.34,43.07-82.69,86.11c-4.6,4.8-7.31,4.77-12-.1Q48,58.67,4.42,13.26C2.93,11.7.86,10.22.34,8.34c-.58-2.06-.48-5.4.8-6.58S5.69.85,7.76,1.52c1.71.54,3,2.54,4.37,4Q52.8,47.82,93.45,90.16C94.7,91.46,95.85,92.87,97.46,94.7Z"/></g></g></svg>