<svg xmlns="http://www.w3.org/2000/svg" viewBox="0 0 336.25 337.27"><defs><style>.cls-1{fill:#f8f8f8;}.cls-2{fill:#f7f7f7;}.cls-3{fill:#f5f5f5;}.cls-4{fill:#f2f2f2;}.cls-5{fill:#ececec;}.cls-6{fill:#ebebeb;}.cls-7{fill:#f6f6f6;}.cls-8{fill:#f3f3f3;}.cls-9{fill:#f4f4f4;}.cls-10{fill:#fefefe;}</style></defs><title>ArrowButtonBase2</title><g id="Layer_2" data-name="Layer 2"><g id="Layer_1-2" data-name="Layer 1"><path class="cls-1" d="M166.15,336.29c-4.39.32-8.87,1.33-13.17.83a180.52,180.52,0,0,1-49.48-12.55,168.82,168.82,0,0,1-42.43-25.74A166.06,166.06,0,0,1,16.4,240.88,171.88,171.88,0,0,1,1,185.58c-3.55-33,2.51-64.13,17.28-93.6C32.54,63.5,53.71,41.16,80.76,24.46a165,165,0,0,1,66.3-23.09c29.37-3.78,57.86.36,85.36,11.46a163.36,163.36,0,0,1,63.33,45.69,164.25,164.25,0,0,1,38.58,85c7.09,48.72-5.64,92.17-35.1,130.83-7.68,10.07-17.74,18.37-27,27.15-2.39,2.26-6,3.24-9,4.81.34-1.33.67-2.66,1-4,.33-.34.67-.67,1-1,5.89-.49,9.16-4.47,12-9l11-12a133.26,133.26,0,0,0,28.42-42c2.13-4.89,3.75-10,5.6-15l1-2c2.66-12.56,6.62-25,7.7-37.69,2-23.14-.38-46.09-8.16-68.24C310.69,81,289.51,53.54,259.57,33c-16.14-11.1-34-18.43-53-23.26A161.62,161.62,0,0,0,85.6,27.42,163.47,163.47,0,0,0,23.94,91.61,157.59,157.59,0,0,0,6.37,145.26C4.1,161.91,3.85,178.72,7,195.34c1.65,8.71,4,17.29,6.09,25.93l1,2c.71,2.66,1.22,5.4,2.17,8C23.13,250,34,266.19,48.1,280.28l11,12c3.58,5.06,7.66,9.47,14,11l1,1,8,5h0l3,2,16,8,5,3,5,1,8,3,2,1,2,1,15,3c.45.62.82,1.7,1.37,1.79,3.07.54,6.18.85,9.28,1.21Z"/><path class="cls-2" d="M166.15,336.29l-17.36-2c-3.1-.36-6.21-.67-9.28-1.21-.55-.09-.92-1.17-1.37-1.79,2.79.21,5.58.51,8.37.62,11.55.44,23.16,1.73,34.63,1s22.69-3.64,34-5.58c.34.66.67,1.33,1,2-.77.68-1.46,1.82-2.32,2-12.95,2.09-25.91,4.18-38.91,5.93C172.1,337.57,169.09,336.62,166.15,336.29Z"/><path class="cls-1" d="M216.17,329.29c-.33-.67-.66-1.34-1-2l8-3,1,1Z"/><path class="cls-3" d="M256.2,309.29c0,.33,0,.66,0,1l-4,3-5,1v-1l8-5Z"/><path class="cls-3" d="M264.2,302.29c-.34,1.33-.67,2.66-1,4l-5,2v-2Z"/><path class="cls-4" d="M232.18,322.29l-4,1v-1l5-2h2l-2,1Z"/><path class="cls-1" d="M252.19,313.28l4-3Z"/><path class="cls-1" d="M258.19,306.29v2l-2,1-1-1Z"/><path class="cls-4" d="M247.19,313.28v1l-3,1h-1Z"/><path class="cls-1" d="M228.18,322.29v1l-2,1-1-1Z"/><path class="cls-4" d="M225.18,323.29l1,1-2,1-1-1Z"/><path class="cls-1" d="M243.19,317.29h-2v-1h2Z"/><path class="cls-1" d="M237.18,320.29h-2c0-.33,0-.66,0-1h2Z"/><path class="cls-4" d="M237.18,320.29v-1h2Z"/><path class="cls-4" d="M241.19,317.28h1c-.34.33-.68.66-1,1h0Z"/><path class="cls-3" d="M244.19,316.29v0Z"/><path class="cls-4" d="M240.18,319.28h-1v-1h1Z"/><path class="cls-2" d="M240.18,319.28v-1h1Z"/><path class="cls-4" d="M244.19,316.29v1h-1v-1Z"/><path class="cls-2" d="M232.18,322.29l1-1Z"/><path class="cls-1" d="M244.19,316.29h-1c0-.32,0-.65,0-1h1Z"/><path class="cls-5" d="M48.1,280.28c-14.1-14.09-25-30.29-31.86-49-.95-2.57-1.46-5.31-2.17-8l-1-2C11,212.63,8.64,204.05,7,195.34c-3.14-16.62-2.89-33.43-.62-50.08A157.59,157.59,0,0,1,23.94,91.61,163.47,163.47,0,0,1,85.6,27.42,161.62,161.62,0,0,1,206.54,9.69c19.07,4.83,36.89,12.16,53,23.26,29.94,20.59,51.12,48,63.2,82.39,7.78,22.15,10.13,45.1,8.16,68.24-1.08,12.69-5,25.13-7.7,37.69l-1,2c-1.85,5-3.47,10.13-5.6,15a133.26,133.26,0,0,1-28.42,42c.07-2.13.2-4.31-3-4a9.25,9.25,0,0,1,.49-.87c7.5-10.72,16.17-20.81,22.29-32.27,14.41-27,21-55.85,18.41-86.78a161.76,161.76,0,0,0-15.58-57.74A156,156,0,0,0,265.7,43.07C238,21.46,206.47,10.89,171.75,9.33c-14.27-.65-28.38,1.33-42.29,4.91C102,21.3,78,34.41,57.75,54.12a154.86,154.86,0,0,0-40.1,63.6c-4.29,13.07-8,26.28-8.46,40-.6,16.58,0,33.06,4.86,49.24,4.32,14.31,8.74,28.51,17,41.07,6.34,9.63,13.33,18.83,20,28.22C47.9,276,48,278.15,48.1,280.28Z"/><path class="cls-6" d="M285.21,276.28c3.2-.31,3.07,1.87,3,4l-11,12-12,9c-.33.33-.67.66-1,1l-6,4-3,2-8,5-4,2h0l-2,1h0l-4,2-2,1h0l-2,1-5,2-3,1-2,1-8,3c-11.34,1.94-22.61,4.81-34,5.58s-23.08-.52-34.63-1c-2.79-.11-5.58-.41-8.37-.62l-15-3-2-1-2-1-8-3-5-1-5-3-16-8-3-2h0l-8-5-1-1-14-11-11-12c-.07-2.13-.2-4.31,3-4l10,10q-.3,4.34,4,4l2,1c.15,1.85-.24,4.26,3,3l3,2,3,2h0l2,2,1,0,6,4h0l3,2,4,2,3,2,1,0,5,3,15,5,3,2c1.31.16,2.64.25,3.93.5,9.39,1.83,18.7,4.13,28.16,5.46a131,131,0,0,0,52.25-3c10.38-2.75,20.47-6.62,30.69-10l8-4,9-5,3-2,3-2,3-2h0l3-2,1-1,4-3,3-2q4.33.35,4-4Z"/><path class="cls-7" d="M59.1,292.28l14,11C66.76,301.75,62.68,297.34,59.1,292.28Z"/><path class="cls-3" d="M265.2,301.29l12-9C274.36,296.82,271.09,300.8,265.2,301.29Z"/><path class="cls-7" d="M74.11,304.29l8,5Z"/><path class="cls-8" d="M111.12,323.29l8,3Z"/><path class="cls-4" d="M101.12,319.29l5,3Z"/><path class="cls-7" d="M82.11,309.29l3,2Z"/><path class="cls-9" d="M13.08,221.27l1,2Z"/><path class="cls-9" d="M322.23,223.27l1-2Z"/><path class="cls-2" d="M121.13,327.29l2,1Z"/><path class="cls-2" d="M233.18,320.29l2-1c0,.33,0,.66,0,1Z"/><path class="cls-3" d="M237.18,318.29l4-2v2h-4Z"/><path class="cls-2" d="M241.2,316.29l2-1c0,.33,0,.66,0,1Z"/><path class="cls-4" d="M235.18,319.29l2-1h0c0,.33,0,.66,0,1h-2Z"/><path class="cls-2" d="M237.18,319.29c0-.34,0-.67,0-1h2v1Z"/><path class="cls-10" d="M116.13,318.32l-15-5-5-3-1,0-3-2-4-2-3-2h0l-6-4-1,0-2-2h0l-3-2-3-2-3-3-2-1-4-4-10-10c-6.7-9.39-13.69-18.59-20-28.22-8.27-12.56-12.69-26.76-17-41.07-4.88-16.18-5.46-32.66-4.86-49.24.5-13.75,4.17-27,8.46-40a154.86,154.86,0,0,1,40.1-63.6C78,34.41,102,21.3,129.46,14.24c13.91-3.58,28-5.56,42.29-4.91C206.47,10.89,238,21.46,265.7,43.07a156,156,0,0,1,45.12,55.55,161.76,161.76,0,0,1,15.58,57.74c2.57,30.93-4,59.79-18.41,86.78-6.12,11.46-14.79,21.55-22.29,32.27a9.25,9.25,0,0,0-.49.87l-10,10-4,4-3,2-4,3-1,1-3,2h0l-3,2-3,2c-1,.67-2,1.34-3,2l-9,5-8,4c-10.22,3.37-20.31,7.24-30.69,10a131,131,0,0,1-52.25,3c-9.46-1.33-18.77-3.63-28.16-5.46-1.29-.25-2.62-.34-3.93-.5Z"/><path class="cls-5" d="M234.17,313.27l8-4Z"/><path class="cls-5" d="M79.11,300.3l6,4Z"/><path class="cls-5" d="M271.17,290.27l4-4Q275.5,290.62,271.17,290.27Z"/><path class="cls-5" d="M61.1,286.28l4,4Q60.81,290.62,61.1,286.28Z"/><path class="cls-5" d="M67.11,291.31l3,3C66.87,295.57,67.26,293.16,67.11,291.31Z"/><path class="cls-5" d="M96.12,310.3l5,3Z"/><path class="cls-5" d="M264.2,295.28l4-3Z"/><path class="cls-5" d="M73.12,296.27l3,2Z"/><path class="cls-5" d="M260.19,298.28l3-2Z"/><path class="cls-5" d="M257.18,300.28l3-2Z"/><path class="cls-5" d="M251.18,304.28c1-.66,2-1.33,3-2Z"/><path class="cls-5" d="M116.13,318.32l3,2Z"/><path class="cls-5" d="M92.12,308.29l3,2Z"/><path class="cls-5" d="M85.12,304.28l3,2Z"/><path class="cls-5" d="M76.11,298.28l2,2Z"/></g></g></svg>