<?xml version="1.0" encoding="UTF-8"?>
<svg width="302px" height="287px" viewBox="0 0 302 287" version="1.1" xmlns="http://www.w3.org/2000/svg" xmlns:xlink="http://www.w3.org/1999/xlink">
    <!-- Generator: Sketch 64 (93537) - https://sketch.com -->
    <title>DoorIconOpen</title>
    <desc>Created with Sketch.</desc>
    <g id="DoorIconOpen" stroke="none" stroke-width="1" fill="none" fill-rule="evenodd">
        <g fill-rule="nonzero">
            <path d="M-7.61221505e-05,117.45 C-7.61221505e-05,82.31 -7.61221505e-05,47.16 -7.61221505e-05,12 C-7.61221505e-05,4.48 4.46,-0.000427579905 12.12,-0.000427579905 C63.62,-0.000427579905 115.116667,-0.000427579905 166.61,-0.000427579905 C168.760015,-0.0160523349 170.889392,0.420044027 172.86,1.28 C211.66,19.28 250.36,37.58 289.24,55.45 C297.72,59.35 301.42,64.71 301.3705,74.32 C301.06,139.98 301.21,205.64 301.21,271.32 C301.21,272.48 301.21,273.65 301.21,274.82 C300.83,283.77 294.89,287.82 286.59,284.47 C276.59,280.4 266.69,275.96 256.75,271.67 C228.31,259.4 199.9,247.06 171.4,234.93 C168.206767,233.590465 164.782707,232.88731 161.32,232.86 C112.49,232.73 63.66,232.78 14.84,232.74 C12.3519959,232.78709 9.86653432,232.55565 7.43,232.05 C3.04404494,230.927361 -0.0176741674,226.967318 -7.61221505e-05,222.44 L-7.61221505e-05,117.45 Z M20.21,20 L20.21,213 L158.44,213 L158.44,20 L20.21,20 Z M178.54,174.39 C180.91,172.76 182.54,171.67 184.11,170.56 C210.57,152.026667 237.026667,133.496667 263.48,114.97 C269.99,110.39 278.93,106.89 282.07,100.56 C285.33,94 283.07,84.56 282.86,76.46 C282.597297,74.5241741 281.606752,72.7612181 280.09,71.53 C278.01,69.83 275.71,69.37 272.9,71.35 C242.43,92.86 211.84,114.19 181.32,135.63 C180.19,136.42 178.68,137.75 178.66,138.86 C178.46,150.42 178.54,162 178.54,174.39 Z M178.54,216.39 C180.92,214.76 182.4,213.76 183.87,212.73 C213.61,191.93 243.16,170.85 273.21,150.51 C280.63,145.51 284.31,140.42 283.21,131.27 C282.31,123.68 283.03,115.89 283.03,108.17 C282.11,108.17 281.91,108.17 281.81,108.25 C248.076667,131.783333 214.37,155.366667 180.69,179 C179.475419,179.99248 178.717226,181.436658 178.59,183 C178.41,193.8 178.49,204.61 178.49,216.4 L178.54,216.39 Z M182.29,219.74 C192.5,224.14 201.86,228.01 211.07,232.22 C213.388337,233.528433 216.275841,233.257231 218.31,231.54 C238.84,217.05 259.49,202.72 279.97,188.16 C281.663412,186.782022 282.724504,184.775329 282.91,182.6 C283.2,172.78 283.06,162.96 283.02,153.13 C282.92019,151.952364 282.739767,150.782956 282.48,149.63 L182.29,219.74 Z M178.54,131.64 L270.79,67.07 C261.39,62.71 252.87,58.67 244.23,54.88 C243.23,54.45 241.37,55.12 240.31,55.88 C220.456667,69.6333333 200.686667,83.4666667 181,97.38 C179.715479,98.3076328 178.86638,99.7203899 178.65,101.29 C178.4,111 178.49,120.8 178.49,131.65 L178.54,131.64 Z M178.54,93.07 L237.66,51.7 C227.12,46.82 217.39,42.26 207.59,37.89 C206.36983,37.5376046 205.05684,37.7309058 203.99,38.42 C195.996667,43.86 188.07,49.3866667 180.21,55 C179.23934,55.8285324 178.647331,57.0161607 178.57,58.29 C178.45,69.48 178.49,80.63 178.49,93.08 L178.54,93.07 Z M283,192.1 C261.67,207.02 241.22,221.33 220.16,236.1 C229.58,240.18 238.06,243.96 246.65,247.47 C248.155459,247.935584 249.787863,247.73926 251.14,246.93 C261.05,240.2 270.87,233.31 280.62,226.35 C281.69,225.59 282.88,224.08 282.9,222.89 C283.06,213 283,203.06 283,192.1 Z M254.2,250.79 L282.65,263.07 L282.65,230.88 L254.2,250.79 Z M178.94,24.52 L178.94,50 L200.76,34.67 L178.94,24.52 Z" id="Shape" fill="#454446"></path>
            <polygon id="Path" fill="#FDFDFD" points="20.21 20 158.44 20 158.44 213 20.21 213"></polygon>
            <path d="M178.54,174.39 C178.54,161.98 178.46,150.39 178.66,138.86 C178.66,137.75 180.19,136.42 181.32,135.63 C211.84,114.19 242.43,92.86 272.9,71.35 C275.71,69.35 278.01,69.83 280.09,71.53 C281.606752,72.7612181 282.597297,74.5241741 282.86,76.46 C283.08,84.61 285.33,94 282.07,100.56 C278.93,106.89 269.99,110.39 263.48,114.97 C237.046667,133.53 210.59,152.06 184.11,170.56 C182.52,171.67 180.91,172.76 178.54,174.39 Z" id="Path" fill="#FCFCFC"></path>
            <path d="M178.49,216.4 C178.49,204.61 178.41,193.8 178.59,183 C178.717226,181.436658 179.475419,179.99248 180.69,179 C214.343333,155.36 248.036667,131.793333 281.77,108.3 C281.87,108.22 282.07,108.3 282.99,108.22 C282.99,115.94 282.27,123.73 283.17,131.32 C284.26,140.47 280.58,145.53 273.17,150.56 C243.12,170.9 213.57,191.98 183.83,212.78 C182.35,213.77 180.87,214.77 178.49,216.4 Z" id="Path" fill="#FCFCFC"></path>
            <path d="M182.24,219.75 L282.43,149.64 C282.689767,150.792956 282.87019,151.962364 282.97,153.14 C282.97,162.97 283.15,172.79 282.86,182.61 C282.674504,184.785329 281.613412,186.792022 279.92,188.17 C259.44,202.73 238.79,217.06 218.26,231.55 C216.225841,233.267231 213.338337,233.538433 211.02,232.23 C201.81,228 192.45,224.15 182.24,219.75 Z" id="Path" fill="#FBFBFB"></path>
            <path d="M178.49,131.65 C178.49,120.8 178.4,111.04 178.6,101.29 C178.828622,99.7122098 179.696622,98.2980931 181,97.38 C200.713333,83.4533333 220.483333,69.6133333 240.31,55.86 C241.37,55.13 243.23,54.46 244.23,54.86 C252.87,58.65 261.39,62.69 270.79,67.05 L178.49,131.65 Z" id="Path" fill="#FBFBFB"></path>
            <path d="M178.49,93.08 C178.49,80.63 178.49,69.48 178.57,58.33 C178.636621,57.0420003 179.229597,55.8379692 180.21,55 C188.07,49.3866667 195.98,43.8633333 203.94,38.43 C205.00684,37.7409058 206.31983,37.5476046 207.54,37.9 C217.34,42.27 227.07,46.83 237.61,51.71 L178.49,93.08 Z" id="Path" fill="#FBFBFB"></path>
            <path d="M283,192.1 C283,203.1 283.08,212.96 282.9,222.87 C282.9,224.06 281.69,225.57 280.62,226.33 C270.87,233.33 261.05,240.18 251.14,246.91 C249.787863,247.71926 248.155459,247.915584 246.65,247.45 C238.06,243.94 229.58,240.16 220.16,236.08 C241.2,221.33 261.65,207 283,192.1 Z" id="Path" fill="#F9F9F9"></path>
            <polygon id="Path" fill="#FAF9FA" points="254.2 250.79 282.65 230.88 282.65 263.07"></polygon>
            <polygon id="Path" fill="#F9F9F9" points="178.94 24.52 200.76 34.63 178.94 50"></polygon>
        </g>
    </g>
</svg>