<?xml version="1.0" encoding="UTF-8"?>
<svg width="302px" height="287px" viewBox="0 0 302 287" version="1.1" xmlns="http://www.w3.org/2000/svg" xmlns:xlink="http://www.w3.org/1999/xlink">
    <!-- Generator: Sketch 64 (93537) - https://sketch.com -->
    <title>DoorIconClose</title>
    <desc>Created with Sketch.</desc>
    <g id="DoorIconClose" stroke="none" stroke-width="1" fill="none" fill-rule="evenodd">
        <g transform="translate(62.000000, 0.000000)" fill-rule="nonzero">
            <path d="M0,116.82 C0,81.44 0,46.06 0,10.68 C0,3.82 3.81,0 10.74,0 C62.52,0 114.3,0 166.08,0 C173.39,0 178.08,4.75 178.08,12 C178.08,82.2133333 178.08,152.426667 178.08,222.64 C178.08,227.82 172.66,232.57 166.56,232.64 C157.56,232.64 148.56,232.53 139.56,232.53 L9.19,232.53 C3.9,232.57 0,228.15 0,222.14 C0,187.86 0,153.583333 0,119.31 L0,116.82 Z M19.73,212.82 L157.92,212.82 L157.92,20.11 L19.74,20.11 L19.73,212.82 Z" id="Shape" fill="#414042"></path>
            <path d="M19.74,212.78 L19.74,20.11 L157.92,20.11 L157.92,212.78 L19.74,212.78 Z M49.4,136.73 C55.47,136.73 62.12,136.91 68.75,136.67 C75.21,136.44 80.13,131.95 80.14,126.78 C80.14,122.35 76.05,118 70.74,117.87 C60.1,117.6 49.44,117.6 38.8,117.96 C34.36,118.11 30.17,120.03 30.08,125.44 C29.95,133.44 29.81,141.44 30.73,149.33 C30.96,151.33 34.84,153.7 37.48,154.55 C40.65,155.55 44.31,154.69 45.6,150.91 C47.1,146.54 48,142 49.4,136.73 Z" id="Shape" fill="#FDFDFD"></path>
            <path d="M49.4,136.73 C48.02,141.97 47.1,146.54 45.6,150.91 C44.31,154.69 40.6,155.57 37.48,154.55 C34.84,153.7 30.96,151.36 30.73,149.33 C29.81,141.44 29.95,133.41 30.08,125.44 C30.17,120.03 34.36,118.11 38.8,117.96 C49.44,117.6 60.1,117.6 70.74,117.87 C76.05,118 80.16,122.35 80.1400727,126.78 C80.1400727,131.95 75.21,136.44 68.75,136.67 C62.12,136.91 55.47,136.73 49.4,136.73 Z" id="Path" fill="#424143"></path>
        </g>
    </g>
</svg>