<?xml version="1.0" encoding="UTF-8" standalone="no"?> <!-- Created with Vectornator for iOS (http://vectornator.io/) --><!DOCTYPE svg PUBLIC "-//W3C//DTD SVG 1.1//EN" "http://www.w3.org/Graphics/SVG/1.1/DTD/svg11.dtd">
<svg height="100%" style="fill-rule:nonzero;clip-rule:evenodd;stroke-linecap:round;stroke-linejoin:round;" xmlns:xlink="http://www.w3.org/1999/xlink" xmlns="http://www.w3.org/2000/svg" xml:space="preserve" width="100%" xmlns:vectornator="http://vectornator.io" version="1.1" viewBox="0 0 106.34 144.34">
<metadata>
<vectornator:setting key="DimensionsVisible" value="1"/>
<vectornator:setting key="PencilOnly" value="0"/>
<vectornator:setting key="SnapToPoints" value="0"/>
<vectornator:setting key="OutlineMode" value="0"/>
<vectornator:setting key="CMYKEnabledKey" value="0"/>
<vectornator:setting key="RulersVisible" value="1"/>
<vectornator:setting key="SnapToEdges" value="0"/>
<vectornator:setting key="GuidesVisible" value="1"/>
<vectornator:setting key="DisplayWhiteBackground" value="0"/>
<vectornator:setting key="doHistoryDisabled" value="0"/>
<vectornator:setting key="SnapToGuides" value="1"/>
<vectornator:setting key="TimeLapseWatermarkDisabled" value="0"/>
<vectornator:setting key="Units" value="Points"/>
<vectornator:setting key="DynamicGuides" value="0"/>
<vectornator:setting key="IsolateActiveLayer" value="0"/>
<vectornator:setting key="SnapToGrid" value="0"/>
</metadata>
<defs/>
<g id="Layer 2" vectornator:layerName="Layer 2">
<g opacity="1">
<path d="M61.46+41.49C71.68+35.49+81.88+29.62+91.96+23.55C93.03+22.9+93.56+21.21+94.14+19.91C95.67+16.53+98.25+15.05+101.78+16.04C104.857+16.6578+106.849+19.6536+106.23+22.73C106.227+22.7833+106.227+22.8367+106.23+22.89C105.64+26.55+103.23+28.05+99.54+28.31C97.3274+28.3707+95.1679+29.001+93.27+30.14C84.58+36.28+76.09+42.71+67.12+49.34C68.28+51.11+69.41+52.67+70.37+54.34C77.7+67+85.76+79.25+92.19+92.34C99.04+106.34+96.19+109.83+80.66+109.76C50.84+109.63+21.66+88.2+10.06+57.9C3.24+40+3.1+22.44+12.27+5.28C15.37-0.54+17.56-1.59+22.85+2.33C30.022+7.7015+36.7595+13.6298+43+20.06C49.5+26.68+55.17+34.1+61.46+41.49ZM59.07+42.85C48.73+29.6+38.67+16.84+25.4+7.06C24.9035+6.61964+24.3261+6.28001+23.7+6.06C21.54+5.56+19.35+5.18+17.18+4.76C16.8+7.09+15.72+9.58+16.18+11.76C17.1714+15.9631+18.6305+20.0418+20.53+23.92C33.2143+49.6168+49.9933+73.0798+70.21+93.39C73.7486+96.9057+77.6276+100.061+81.79+102.81C83.62+104.05+86.34+103.97+88.66+104.49C89.03+102.01+90.24+99.29+89.66+97.1C84.79+80.1+74.88+65.7+65+50.92C60.43+54.29+56.25+57.27+52.17+60.39C48.7+63.04+46.43+61.55+44.39+58.48C42.35+55.41+42+52.72+45.79+50.62C50.12+48.21+54.36+45.62+59.07+42.85Z" opacity="1" fill="#ac162c"/>
<path d="M16.17+144.34C11.96+143.85+7.67+143.48+3.42+142.82C0.74+142.41-0.43+140.92+0.14+137.87C3.24+121.38+6.14+104.87+9.14+88.34C9.96+83.94+13+81.83+17.37+81.94C21.49+82.04+24.37+84.09+25.1+88.31C27.83+104.88+30.37+121.47+33.16+138.02C33.7+141.22+32.16+142.43+29.63+142.82C25.24+143.49+20.78+143.84+16.17+144.34Z" opacity="1" fill="#ac162c"/>
</g>
</g>
</svg>
