<svg xmlns="http://www.w3.org/2000/svg" width="194.342" height="140" viewBox="0 0 194.342 140">
  <g id="MediaIconTV" transform="translate(-1085 -2468)">
    <g id="iconfinder_icon-social-apple-outline_211891" transform="translate(1058.023 2425.487)">
      <path id="Path_1030" data-name="Path 1030" d="M137.187,156.675a12.445,12.445,0,0,1,8.22,3.538,16.944,16.944,0,0,0-4.11,5.237,17.513,17.513,0,0,0-1.769,9.14,18.157,18.157,0,0,0,3.122,8.983,16.91,16.91,0,0,0,5.2,4.908,43.686,43.686,0,0,1-2.914,5.289c-1.457,2.272-5.289,8.324-9.018,8.359h-.069a7.076,7.076,0,0,1-3.347-.971,15.851,15.851,0,0,0-7.527-1.838h-.1a16.531,16.531,0,0,0-7.613,1.838,7.556,7.556,0,0,1-3.451.989h-.069c-3.4-.035-6.5-4.214-8.81-7.839a39.869,39.869,0,0,1-6.053-17.186c-.5-5.289.347-10.145,2.341-13.3a16.572,16.572,0,0,1,5.272-5.307,11.547,11.547,0,0,1,5.931-1.8,16.555,16.555,0,0,1,5.844,1.353,18.543,18.543,0,0,0,6.538,1.491,15.824,15.824,0,0,0,6-1.422,15.877,15.877,0,0,1,6.382-1.457m0-2.775c-5.827,0-8.29,2.862-12.348,2.862-4.162,0-7.336-2.844-12.383-2.844-4.943,0-10.215,3.1-13.562,8.394-4.7,7.457-3.9,21.5,3.711,33.471,2.723,4.284,6.365,9.088,11.134,9.14h.087c4.145,0,5.376-2.792,11.082-2.827h.087c5.619,0,6.746,2.809,10.874,2.809h.087c4.769-.052,8.6-5.376,11.325-9.642a47.438,47.438,0,0,0,4.2-8.082c-11.013-4.3-12.781-20.36-1.89-26.517-3.33-4.284-7.995-6.764-12.4-6.764Z" transform="translate(0 -74.309)" fill="none" stroke="#414141" stroke-width="7"/>
      <path id="Path_1031" data-name="Path 1031" d="M260.155,67.555a13.673,13.673,0,0,1-2.532,5.584,10.855,10.855,0,0,1-4.995,3.659,9.421,9.421,0,0,1,.416-1.6,13.692,13.692,0,0,1,2.22-4.006,13.269,13.269,0,0,1,4.891-3.642M262.982,64a15.166,15.166,0,0,0-9.885,5.48c-2.15,2.688-3.919,6.677-3.226,10.544h.277c3.694,0,7.475-2.289,9.677-5.22A14.771,14.771,0,0,0,262.982,64Z" transform="translate(-127.079)" fill="none" stroke="#414141" stroke-width="7"/>
    </g>
    <g id="Layer_1" data-name="Layer 1" transform="translate(1085 2468)">
      <path id="Path_585" data-name="Path 585" d="M69.838,128.636V113H8.426C1.433,113,.1,111.785.085,104.729Q-.062,56.008,0,7.309C0,1.243,1.391,0,7.426,0h177.42c7.667,0,9.479,1.706,9.479,9.479V103.2c0,7.825-2.106,9.816-9.847,9.816H124.129v15.629h31.48a35.56,35.56,0,0,1,4.739,0c3.4.474,6.8,1.316,6.519,5.782-.274,4.076-2.991,5.413-6.825,5.424-23.17,0-46.34.137-69.51.147-18.778,0-37.557-.147-56.335-.147-3.939,0-7.162-1-7.288-5.445-.126-4.76,3.16-5.877,7.372-5.835C45.92,128.71,57.652,128.636,69.838,128.636ZM181.6,101.906l.958-.843V11.469H11.344v90.574H55.314Zm-68.7,11.417H80.749v15.061H112.9Z" transform="translate(0.018 0)" fill="#414042"/>
    </g>
  </g>
</svg>
