<svg xmlns="http://www.w3.org/2000/svg" width="120.04" height="100.854" viewBox="0 0 120.04 100.854">
  <g id="Layer_2" data-name="Layer 2" transform="translate(0 0)">
    <g id="Layer_1" data-name="Layer 1" transform="translate(0 0)">
      <path id="Path_830" data-name="Path 830" d="M79.664,50.733c0,14.234.15,28.468-.139,42.69-.054,2.5-1.309,5.964-3.154,7.122-1.47.92-5.086-.4-7.06-1.754-8.519-5.856-16.737-12.2-25.213-18.109a13.32,13.32,0,0,0-6.792-2.23c-7.671-.271-15.353-.065-23.035-.108C6.438,78.291,1.009,74.156.515,66.276a262.5,262.5,0,0,1-.1-31.293c.451-8,5.858-12.372,14.023-12.653a130.622,130.622,0,0,1,16.6.065c6.437.6,11.652-1.45,16.705-5.412C54.718,11.647,61.95,6.711,69.31,1.948,71.316.65,74.932-.617,76.381.325c1.845,1.212,3.09,4.654,3.144,7.166C79.8,21.9,79.664,36.315,79.664,50.733Z" transform="translate(0.001 0.002)" fill="#ae1d32"/>
    </g>
    <path id="Path_1493" data-name="Path 1493" d="M264.006,116.141a4.558,4.558,0,0,1,4.964-5.11,4.654,4.654,0,0,1,5.061,5.11v51.453a4.72,4.72,0,0,1-4.991,3.935,4.785,4.785,0,0,1-5.034-3.935Z" transform="translate(-173 -91)" fill="#ae1d32"/>
    <path id="Path_1495" data-name="Path 1495" d="M264.006,116.141a4.558,4.558,0,0,1,4.964-5.11,4.654,4.654,0,0,1,5.061,5.11v51.453a4.72,4.72,0,0,1-4.991,3.935,4.785,4.785,0,0,1-5.034-3.935Z" transform="translate(-154 -91)" fill="#ae1d32"/>
  </g>
</svg>
