<?xml version="1.0" encoding="UTF-8" standalone="no"?> <!-- Created with Vectornator for iOS (http://vectornator.io/) --><!DOCTYPE svg PUBLIC "-//W3C//DTD SVG 1.1//EN" "http://www.w3.org/Graphics/SVG/1.1/DTD/svg11.dtd">
<svg height="100%" style="fill-rule:nonzero;clip-rule:evenodd;stroke-linecap:round;stroke-linejoin:round;" xmlns:xlink="http://www.w3.org/1999/xlink" xmlns="http://www.w3.org/2000/svg" xml:space="preserve" width="100%" xmlns:vectornator="http://vectornator.io" version="1.1" viewBox="0 0 194.342 140">
<metadata>
<vectornator:setting key="DimensionsVisible" value="1"/>
<vectornator:setting key="PencilOnly" value="0"/>
<vectornator:setting key="SnapToPoints" value="0"/>
<vectornator:setting key="OutlineMode" value="0"/>
<vectornator:setting key="RulersVisible" value="1"/>
<vectornator:setting key="GuidesVisible" value="1"/>
<vectornator:setting key="SnapToEdges" value="0"/>
<vectornator:setting key="CMYKEnabledKey" value="0"/>
<vectornator:setting key="DisplayWhiteBackground" value="0"/>
<vectornator:setting key="doHistoryDisabled" value="0"/>
<vectornator:setting key="TimeLapseWatermarkDisabled" value="0"/>
<vectornator:setting key="SnapToGuides" value="1"/>
<vectornator:setting key="DynamicGuides" value="0"/>
<vectornator:setting key="IsolateActiveLayer" value="0"/>
<vectornator:setting key="SnapToGrid" value="0"/>
<vectornator:setting key="Units" value="Points"/>
</metadata>
<defs/>
<g id="MediaIconTV" vectornator:layerName="MediaIconTV">
<g opacity="1">
<path stroke="#ac162c" stroke-width="7" d="M110.21+39.8531C113.294+39.9724+116.223+41.2333+118.43+43.3911C116.727+44.8478+115.33+46.6278+114.32+48.6281C112.916+51.4593+112.305+54.6176+112.551+57.7681C112.775+60.9866+113.853+64.0873+115.673+66.7511C117.037+68.739+118.81+70.4124+120.873+71.6591C120.025+73.4872+119.051+75.2544+117.959+76.9481C116.502+79.2201+112.67+85.2721+108.941+85.3071L108.872+85.3071C107.693+85.2675+106.542+84.9337+105.525+84.3361C103.207+83.1102+100.62+82.4786+97.9979+82.4981L97.8979+82.4981C95.2497+82.4921+92.6388+83.1224+90.285+84.3361C89.2308+84.9382+88.047+85.2774+86.8339+85.3251L86.7649+85.3251C83.3649+85.2901+80.2649+81.1111+77.9549+77.4861C74.6377+72.3014+72.566+66.4192+71.902+60.3001C71.402+55.0111+72.249+50.1551+74.243+47.0001C75.5728+44.8524+77.3761+43.0371+79.515+41.6931C81.291+40.5638+83.3419+39.9413+85.446+39.8931C87.4601+39.9844+89.4406+40.443+91.29+41.2461C93.3606+42.1363+95.5761+42.6415+97.828+42.7371C99.9018+42.6611+101.941+42.1779+103.828+41.3151C105.831+40.3914+108.005+39.8951+110.21+39.8581M110.21+37.0831C104.383+37.0831+101.92+39.9451+97.862+39.9451C93.7+39.9451+90.526+37.1011+85.479+37.1011C80.536+37.1011+75.264+40.2011+71.917+45.4951C67.217+52.9521+68.017+66.9951+75.628+78.9661C78.351+83.2501+81.993+88.0541+86.762+88.1061L86.849+88.1061C90.994+88.1061+92.225+85.3141+97.931+85.2791L98.018+85.2791C103.637+85.2791+104.764+88.0881+108.892+88.0881L108.979+88.0881C113.748+88.0361+117.579+82.7121+120.304+78.4461C121.96+75.893+123.366+73.1865+124.504+70.3641C113.491+66.0641+111.723+50.0041+122.614+43.8471C119.284+39.5631+114.619+37.0831+110.214+37.0831L110.21+37.0831Z" fill="none" stroke-linecap="butt" opacity="1" stroke-linejoin="miter"/>
<path stroke="#ac162c" stroke-width="7" d="M106.099+25.0421C105.689+27.0711+104.823+28.9804+103.567+30.6261C102.292+32.3048+100.557+33.5762+98.5719+34.2851C98.6635+33.7406+98.8027+33.2052+98.9879+32.6851C99.4978+31.2346+100.248+29.8803+101.208+28.6791C102.533+27.1018+104.208+25.8549+106.099+25.0371M108.926+21.4871C105.048+21.9718+101.507+23.935+99.0409+26.9671C96.8909+29.6551+95.1219+33.6441+95.8149+37.5111L96.0919+37.5111C99.7859+37.5111+103.567+35.2221+105.769+32.2911C108.206+29.2475+109.341+25.3639+108.926+21.4871Z" fill="none" stroke-linecap="butt" opacity="1" stroke-linejoin="miter"/>
</g>
<path d="M69.856+128.636L69.856+113L8.444+113C1.451+113+0.118+111.785+0.103+104.729C0.005+72.2483-0.0233333+39.775+0.018+7.309C0.018+1.243+1.409+0+7.444+0L184.864+0C192.531+0+194.343+1.706+194.343+9.479L194.343+103.2C194.343+111.025+192.237+113.016+184.496+113.016L124.147+113.016L124.147+128.645L155.627+128.645C157.205+128.54+158.788+128.54+160.366+128.645C163.766+129.119+167.166+129.961+166.885+134.427C166.611+138.503+163.894+139.84+160.06+139.851C136.89+139.851+113.72+139.988+90.55+139.998C71.772+139.998+52.993+139.851+34.215+139.851C30.276+139.851+27.053+138.851+26.927+134.406C26.801+129.646+30.087+128.529+34.299+128.571C45.938+128.71+57.67+128.636+69.856+128.636ZM181.618+101.906L182.576+101.063L182.576+11.469L11.362+11.469L11.362+102.043L55.332+102.043L181.618+101.906ZM112.918+113.323L80.767+113.323L80.767+128.384L112.918+128.384L112.918+113.323Z" opacity="1" fill="#ac162c"/>
</g>
</svg>
