<svg xmlns="http://www.w3.org/2000/svg" viewBox="0 0 282.6 282.96"><defs><style>.cls-1{fill:#f9f9f9;}.cls-2{fill:#fdfdfd;}.cls-3{fill:#ededed;}.cls-4{fill:#ececec;}.cls-5{fill:#e5e5e5;}.cls-6{fill:#f0f0f0;}.cls-7{fill:#efefef;}.cls-8{fill:#f4f4f4;}.cls-9{fill:#f7f7f7;}.cls-10{fill:#f1f1f1;}.cls-11{fill:#e7e7e7;}.cls-12{fill:#eaeaea;}.cls-13{fill:#f3f3f3;}.cls-14{fill:#f5f5f5;}.cls-15{fill:#fafafa;}.cls-16{fill:#e1e1e1;}.cls-17{fill:#e2e2e2;}</style></defs><title>MediaNumberButtonBackground</title><g id="Layer_2" data-name="Layer 2"><g id="Layer_1-2" data-name="Layer 1"><path class="cls-1" d="M282.53,141.66c2.43,73.89-61.5,146.25-150.81,141C66.73,278.9-4.89,222.83.26,131.19,3.9,66.41,60.31-5.23,152.2.3,219.46,4.35,284.11,62.11,282.53,141.66Zm-137,135.81,1-1,2,0h4l4,2,3-1h4l2-1,3,0,2-2c.33,0,.66,0,1,0,9.21.8,17.12-3.06,25-7l10-5,2-1,2-2,3-1,4-3,1-1,4-2,4-3,2-2,6-5,2-2q2-2,4-4l2-2q2.51-3,5-6l2-2,3-5,2-3,1-1,3-4,1-3,2-2c.33-.67.66-1.34,1-2q2.49-4.51,5-9l2-7q3-10,6-20c.34-.66.67-1.33,1-2v-3c.34-.66.67-1.33,1-2,.33-1.67.67-3.33,1-5v-2c0-.67,0-1.34,0-2l-2-3q.51-3.5,1-7c1-.92,2.93-2.07,2.78-2.71-.31-1.25-1.79-2.22-2.78-3.3,0-3.33,0-6.67,0-10l1-2-1-3-1-2v-2l1.55-.77-1.56-1.24v-3c.12-4.79.05-9.51-4-13-.67-2.87-.82-6-2.15-8.56-2.41-4.58-2-10.91-7.85-13.45-1.45-6.49-3.79-12.51-9-17-2.25-5.53-5.3-10.4-11-13h0l-4-7c-4.29-3.78-8.45-7.71-12.92-11.28-1.68-1.34-4-1.84-6.09-2.73l-14-9-4-2c-3.36-1.35-6.74-2.68-10.09-4a130.38,130.38,0,0,0-67.75-8.78C101.16,7.63,81,16.5,62.43,29.4c-1.69.56-3.71.71-5,1.75-4.47,3.58-8.69,7.48-13,11.26l-14,17v2l-1,1-1,1c-3.9,4.73-7.85,9.43-8,16h-1l-2,2-2,6-2,2v3l-1,2q-1.51,5-3,10l-1,2,0,2c-2.87,2-3.91,4.21-1,7l0,2-2,2c0,1.33,0,2.67,0,4l-1,3,2,2,0,10c-1.31.92-3.43,1.62-3.78,2.82-.86,3,1.45,3.35,3.78,3.21,0,3.32,0,6.65,0,10-.66,1.27-1.86,2.55-1.87,3.82a86.79,86.79,0,0,0,.9,9.2l10,30,8,14v1l8,11h0l4,5,1,2,6,6,4,4,6,6,2,1,5,4h0l11,8h1l14,8,27,8,2,1h3l2,1,4,1h3l3-2,4,0,3,0,1,1h1c1.08,1,2,2.47,3.3,2.78.64.15,1.79-1.79,2.71-2.79Z"/><path class="cls-2" d="M205.49,19.4l14,9,16,14,7,7h0l10,13,9,17q3,8,6,16l3,15c.32.33.65.66,1,1h0c.33,3.33.67,6.66,1,10H10.42l1-11q1.5-6,3-12c.6-1.94,1.11-3.92,1.83-5.82,1.67-4.41,3.45-8.79,5.18-13.18,2.55-4.49,5.16-9,7.58-13.5.31-.58-.36-1.67-.58-2.53l1-1,1-1v-2c1.57-.75,3.57-1.12,4.64-2.32,4-4.42,7.6-9.11,11.37-13.7l16-14C81,16.5,101.16,7.63,123.65,4.57a130.38,130.38,0,0,1,67.75,8.78c3.35,1.37,6.73,2.7,10.09,4Z"/><path class="cls-3" d="M136.44,276.5l-3,0c0-.34,0-.67,0-1-1-1-1.87-2.68-3-2.88-5.18-.94-10.51-1.14-15.67-2.19-26.26-5.36-48.73-18-67.55-36.82A124.69,124.69,0,0,1,20.4,193.23c-1.83-4.39-2.71-9.18-4-13.78a4.44,4.44,0,0,1,.92,1.14c7.81,20.54,19.52,38.48,36,53.14a128.89,128.89,0,0,0,40.55,24.9c22.64,8.5,45.88,11.08,69.91,6.95a131.48,131.48,0,0,0,65.57-31.51c17.08-15,29.11-33.53,36.91-54.86.39-1.07,1.51-1.88,2.29-2.81-7.17,24.43-19.74,45.36-38.79,62.58a133.38,133.38,0,0,1-56,30.19c-7.27,1.95-14.82,2.88-22.24,4.28l-3,3-2,0a8.19,8.19,0,0,0-1,0l-2,0c-2-3.11-4-3.1-6,0Z"/><path class="cls-4" d="M252.52,221.46l-3,5-2,2q-2.49,3-5,6l-2,2q-2,2-4,4l-2,2-6,5-2,2-4,3-4,2-1,1-4,3-3,1-2,2-2,1-10,4-7,1c4.88-2.28,10-4.21,14.63-6.92,26.65-15.54,48-36.07,60.11-65.09,1-2.5,2.84-4.68,4.29-7l1,2-2,7q-2.49,4.5-5,9c-.34.66-.67,1.33-1,2l-2,2c-.34,1-.68,2-1,3l-3,4-1,1Z"/><path class="cls-4" d="M54.42,247.46l-2-1q-3-3-6-6l-4-4-6-6-1-2-4-5h0l-8-11v-1q-3.51-7-7-14l-2-9a25,25,0,0,1,2.82,3.92c1.8,3.87,3,8.07,5.11,11.73,15.56,26.64,36.08,48,65.09,60.08,2.5,1.05,4.69,2.85,7,4.3l-9-2-14-7h-1l-11-8h0Z"/><path class="cls-5" d="M6.36,154.42c0-3.32,0-6.65,0-10v-6l0-10c0-.67,0-1.34,0-2h3l0,25A66.59,66.59,0,0,0,9,159.51c.28,4.66.93,9.29,1.42,13.93l-3-7Z"/><path class="cls-6" d="M85.44,266.46l9,2,29,7v3l-4-1-2-1h-3l-2-1-27-8Z"/><path class="cls-5" d="M277.54,144.44q-.5,3.5-1,7h-1l-2-1,0-23,2-1,1,0,1,2c0,3.33,0,6.67,0,10Z"/><path class="cls-6" d="M7.4,166.43l3,7q2,7.5,4,15l2,9h-1l-10-30Z"/><path class="cls-7" d="M267.52,95.42q-3-8-6-16h1c5.88,2.54,5.44,8.87,7.85,13.45,1.33,2.53,1.48,5.69,2.15,8.56h0Z"/><path class="cls-6" d="M189.49,267.47l7-1v1c-7.89,3.94-15.8,7.8-25,7,0-.34,0-.67,0-1Z"/><path class="cls-7" d="M21.41,79.42c-1.73,4.39-3.51,8.77-5.18,13.18-.72,1.9-1.23,3.88-1.83,5.82-1,1.3-1.89,2.59-2.83,3.9-.73,1-1.44,2.07-2.16,3.11l0-1q1.5-5,3-10c.33-.67.66-1.33,1-2,0-1,0-2,0-3l2-2,2-6,2-2h2Z"/><path class="cls-8" d="M46.42,43.41C42.65,48,39,52.69,35.05,57.11,34,58.31,32,58.68,30.41,59.43l14-17Z"/><path class="cls-6" d="M269.52,190.45l-1-2c.36-1.59.69-3.2,1.09-4.78,1.29-5.08,2.61-10.15,3.91-15.22l1-1,1,1v2Q272.53,180.44,269.52,190.45Z"/><path class="cls-9" d="M235.51,42.41l-16-14c2.05.89,4.41,1.39,6.09,2.73,4.47,3.57,8.63,7.5,12.92,11.28Z"/><path class="cls-10" d="M262.53,79.41h-1l-9-17h1C258.74,66.9,261.08,72.92,262.53,79.41Z"/><path class="cls-9" d="M46.42,43.41l-2-1c4.31-3.78,8.53-7.68,13-11.26,1.3-1,3.32-1.19,5-1.75Z"/><path class="cls-11" d="M9.38,126.43h-2v-7l0-2,0-2,1-5h3c-.33,3.66-.65,7.33-1,11C10.07,123.09,9.73,124.76,9.38,126.43Z"/><path class="cls-10" d="M21.41,79.42h-1c.17-6.59,4.12-11.29,8-16,.22.86.89,2,.58,2.53C26.57,70.47,24,74.93,21.41,79.42Z"/><path class="cls-8" d="M253.52,62.41h-1l-10-13C248.22,52,251.27,56.88,253.52,62.41Z"/><path class="cls-10" d="M275.53,168.44l-1-1c0-.67,0-1.34,0-2l0-4,1-2,0-5h3c0,.67,0,1.34,0,2v2c-.33,1.67-.67,3.33-1,5-.33.67-.66,1.34-1,2v3Z"/><path class="cls-12" d="M11.39,110.43h-3c0-.67,0-1.34,0-2s0-1.33,0-2c.33-.34.66-.67,1-1,.72-1,1.43-2.08,2.16-3.11.94-1.31,1.88-2.6,2.83-3.9Q12.89,104.44,11.39,110.43Z"/><path class="cls-13" d="M15.4,197.45h1q3.49,7,7,14Z"/><path class="cls-13" d="M85.44,266.46v1l-14-8Z"/><path class="cls-14" d="M272.53,101.42c4.05,3.5,4.12,8.22,4,13h-2c0-1,0-2,0-3q-1-5-2-10Z"/><path class="cls-10" d="M7.4,166.43l-2,1a86.79,86.79,0,0,1-.9-9.2c0-1.27,1.21-2.55,1.86-3.82Q6.89,160.42,7.4,166.43Z"/><path class="cls-13" d="M23.41,212.45l8,11Z"/><path class="cls-13" d="M59.42,251.46l11,8Z"/><path class="cls-14" d="M6.35,138.42v6c-2.33.14-4.64-.23-3.78-3.21C2.92,140,5,139.34,6.35,138.42Z"/><path class="cls-14" d="M144.47,277.47c-.92,1-2.07,2.94-2.71,2.79-1.25-.31-2.22-1.78-3.3-2.78h6Z"/><path class="cls-14" d="M277.54,144.44v-6c1,1.08,2.47,2,2.78,3.3C280.47,142.37,278.53,143.52,277.54,144.44Z"/><path class="cls-13" d="M196.49,267.47v-1l10-4Z"/><path class="cls-8" d="M235.51,42.41h3l4,7Z"/><path class="cls-5" d="M143.46,277.47h-6v-1c2-3.1,4-3.11,6,0Z"/><path class="cls-13" d="M262.52,206.45q2.49-4.51,5-9Q265,201.94,262.52,206.45Z"/><path class="cls-14" d="M8.39,108.42c0,.67,0,1.34,0,2l-1,5C4.48,112.63,5.52,110.39,8.39,108.42Z"/><path class="cls-13" d="M46.42,240.46q3,3,6,6Q49.42,243.47,46.42,240.46Z"/><path class="cls-13" d="M36.42,230.45l6,6Z"/><path class="cls-5" d="M133.46,275.47c0,.34,0,.67,0,1l-4,0-4-1Z"/><path class="cls-4" d="M171.47,273.46c0,.34,0,.67,0,1-.33,0-.66,0-1,0l-2,2-3,0-2-1h-1v-1Z"/><path class="cls-14" d="M7.38,121.44v5h-3l1-3Z"/><path class="cls-10" d="M274.53,114.42h2v3c0,.67,0,1.34,0,2v2h-1C275.2,119.09,274.86,116.76,274.53,114.42Z"/><path class="cls-14" d="M159.47,277.48l-3,1c0-1,0-2,0-3l4,0Z"/><path class="cls-5" d="M148.45,276.49l3-3,1,2,0,1Z"/><path class="cls-14" d="M276.53,126.43l-1,0v-3h2c.34,1,.67,2,1,3Z"/><path class="cls-6" d="M125.46,275.46l4,1-3,2-3-1v-2Z"/><path class="cls-13" d="M31.41,223.45l4,5Z"/><path class="cls-13" d="M54.42,247.46l5,4Z"/><path class="cls-6" d="M152.49,276.49c0-.34,0-.68,0-1l4,0v3Z"/><path class="cls-4" d="M278.52,154.43h-3c0-1,0-2,0-3h1Z"/><path class="cls-1" d="M205.49,19.4l-4-2Z"/><path class="cls-13" d="M213.49,258.46l4-3Z"/><path class="cls-13" d="M255.52,217.45l3-4Z"/><path class="cls-6" d="M159.47,277.48l1-2v0l2,0h1c0,.66,0,1.33,0,2Z"/><path class="cls-13" d="M218.5,254.47l4-2Z"/><path class="cls-10" d="M7.38,121.44l-2,2c0-1.33,0-2.67,0-4h2Z"/><path class="cls-14" d="M7.39,119.42h-2l2-2Z"/><path class="cls-14" d="M168.47,276.46l2-2Z"/><path class="cls-14" d="M163.47,277.47c0-.66,0-1.33,0-2l2,1Z"/><path class="cls-13" d="M252.52,221.46l2-3Z"/><path class="cls-14" d="M123.45,277.47l3,1h-3Z"/><path class="cls-13" d="M226.5,249.46l2-2Z"/><path class="cls-14" d="M9.41,105.43c-.34.33-.67.66-1,1,.32-.67.65-1.34,1-2C9.39,104.76,9.4,105.09,9.41,105.43Z"/><path class="cls-14" d="M13.4,92.42c-.34.67-.67,1.33-1,2C12.73,93.75,13.06,93.09,13.4,92.42Z"/><path class="cls-14" d="M15.4,87.42l-2,2Z"/><path class="cls-10" d="M19.4,79.41l-2,2Z"/><path class="cls-13" d="M208.49,261.46l2-2Z"/><path class="cls-14" d="M275.53,168.44h1c-.33.67-.66,1.34-1,2Z"/><path class="cls-14" d="M278.53,158.44v0Z"/><path class="cls-4" d="M277.53,123.43h-2c0-.67,0-1.34,0-2h1Z"/><path class="cls-13" d="M259.53,210.46l2-2Z"/><path class="cls-14" d="M112.44,275.48l2,1Z"/><path class="cls-10" d="M276.53,126.43h2l-1,2Z"/><path class="cls-14" d="M276.53,165.44c.34-.66.67-1.33,1-2C277.2,164.11,276.87,164.78,276.53,165.44Z"/><path class="cls-13" d="M247.51,228.46l2-2Z"/><path class="cls-14" d="M276.54,119.43c0-.67,0-1.34,0-2l1.56,1.24Z"/><path class="cls-13" d="M240.51,236.46l2-2Z"/><path class="cls-14" d="M117.45,276.48l2,1Z"/><path class="cls-10" d="M4.4,126.43h2c0,.67,0,1.34,0,2Z"/><path class="cls-13" d="M234.5,242.46l2-2Z"/><path class="cls-6" d="M143.46,277.47v-1l2,0c0,.33,0,.65,0,1h-2Z"/><path class="cls-6" d="M137.46,276.47v1l-1-1Z"/><path class="cls-14" d="M145.48,277.47c0-.33,0-.65,0-1a8.19,8.19,0,0,1,1,0Z"/><path class="cls-10" d="M30.41,61.39l-1,1Z"/><path class="cls-15" d="M9.38,126.43c.35-1.67.69-3.34,1-5H272.51c.34,2,.69,4,1,6l0,23q-2.52,13-5,26c-.78.93-1.9,1.74-2.29,2.81-7.8,21.33-19.83,39.88-36.91,54.86a131.48,131.48,0,0,1-65.57,31.51c-24,4.13-47.27,1.55-69.91-6.95a128.89,128.89,0,0,1-40.55-24.9c-16.44-14.66-28.15-32.6-36-53.14a4.61,4.61,0,0,0-.91-1.14,85.62,85.62,0,0,1-3-8.76c-1.47-6.39-2.63-12.85-3.92-19.27Q9.4,138.93,9.38,126.43Z"/><path class="cls-12" d="M272.52,101.42q1,5,2,10h-3c-.32-.34-.65-.67-1-1l-3-15Z"/><path class="cls-11" d="M271.51,111.44h3c0,1,0,2,0,3,.33,2.34.67,4.67,1,7,0,.67,0,1.34,0,2v3l-2,1c-.34-2-.69-4-1-6C272.18,118.1,271.84,114.77,271.51,111.44Z"/><path class="cls-11" d="M270.55,110.44c.32.33.65.66,1,1C271.2,111.1,270.87,110.77,270.55,110.44Z"/><path class="cls-16" d="M268.48,176.4q2.5-13,5-26l2,1c0,1,0,2,0,3l0,5-1,2c0,1.33,0,2.66,0,4l-1,3c-1.3,5.07-2.62,10.14-3.91,15.22-.4,1.58-.73,3.19-1.09,4.78-1.45,2.34-3.25,4.52-4.29,7-12.14,29-33.46,49.55-60.11,65.09-4.65,2.71-9.75,4.64-14.63,6.92l-18,6-9,1-2,1v0l-4,0-4,0-1-2c7.42-1.4,15-2.33,22.24-4.28a133.38,133.38,0,0,0,56-30.19C248.74,221.76,261.31,200.83,268.48,176.4Z"/><path class="cls-17" d="M9.43,151.42c1.29,6.42,2.45,12.88,3.92,19.27a85.62,85.62,0,0,0,3,8.76c1.31,4.6,2.19,9.39,4,13.78a124.69,124.69,0,0,0,26.83,40.35C66.05,252.42,88.52,265,114.78,270.4c5.16,1.05,10.49,1.25,15.67,2.19,1.14.2,2,1.88,3,2.88h-8l-2,0-29-7c-2.33-1.45-4.52-3.25-7-4.3-29-12.12-49.53-33.44-65.09-60.08-2.14-3.66-3.31-7.86-5.11-11.73a25,25,0,0,0-2.82-3.92q-2-7.5-4-15c-.49-4.64-1.14-9.27-1.42-13.93A66.59,66.59,0,0,1,9.43,151.42Z"/><path class="cls-5" d="M273.52,168.44l1-3,0,2Z"/><path class="cls-5" d="M274.53,161.44l1-2Z"/><path class="cls-5" d="M160.47,275.45l2-1v1Z"/></g></g></svg>