<?xml version="1.0" encoding="UTF-8" standalone="no"?> <!-- Created with Vectornator for iOS (http://vectornator.io/) --><!DOCTYPE svg PUBLIC "-//W3C//DTD SVG 1.1//EN" "http://www.w3.org/Graphics/SVG/1.1/DTD/svg11.dtd">
<svg height="100%" style="fill-rule:nonzero;clip-rule:evenodd;stroke-linecap:round;stroke-linejoin:round;" xmlns:xlink="http://www.w3.org/1999/xlink" xmlns="http://www.w3.org/2000/svg" xml:space="preserve" width="100%" xmlns:vectornator="http://vectornator.io" version="1.1" viewBox="0 0 176.88 170.86">
<metadata>
<vectornator:setting key="DimensionsVisible" value="1"/>
<vectornator:setting key="PencilOnly" value="0"/>
<vectornator:setting key="SnapToPoints" value="0"/>
<vectornator:setting key="GuidesVisible" value="1"/>
<vectornator:setting key="RulersVisible" value="1"/>
<vectornator:setting key="OutlineMode" value="0"/>
<vectornator:setting key="SnapToEdges" value="0"/>
<vectornator:setting key="CMYKEnabledKey" value="0"/>
<vectornator:setting key="DisplayWhiteBackground" value="0"/>
<vectornator:setting key="doHistoryDisabled" value="0"/>
<vectornator:setting key="SnapToGuides" value="1"/>
<vectornator:setting key="TimeLapseWatermarkDisabled" value="0"/>
<vectornator:setting key="Units" value="Points"/>
<vectornator:setting key="SnapToGrid" value="0"/>
<vectornator:setting key="DynamicGuides" value="0"/>
<vectornator:setting key="IsolateActiveLayer" value="0"/>
</metadata>
<defs/>
<g id="Layer 2" vectornator:layerName="Layer 2">
<g opacity="1">
<path d="M112.37+85.17C112.37+108.663+112.37+132.15+112.37+155.63C112.37+165.01+107.56+170.16+98.21+170.74C95.5452+170.88+92.8748+170.88+90.21+170.74C80.29+170.34+75.57+165.38+74.89+155.39C74.647+153.216+73.5719+151.219+71.89+149.82C62.9633+143.153+53.88+136.687+44.64+130.42C42.4423+129.037+39.9319+128.229+37.34+128.07C32.2+127.72+27.02+128.12+21.86+127.93C9.07+127.51+0.3+118.73+0.14+106C0+92.17-0.06+78.34+0.15+64.52C0.35+51.61+9.65+41.92+22.49+42.92C36+44+47.13+40.65+57.09+31.64C61.62+27.53+67.18+24.58+72+20.72C73.6353+19.2965+74.6803+17.3137+74.93+15.16C75.56+5.27+80.49+0.23+90.35+0.05C93.01+0.05+95.68-0.04+98.35+0.05C107.47+0.43+112.35+5.54+112.35+14.69C112.377+38.1967+112.383+61.69+112.37+85.17ZM101.74+85.43C101.74+62.27+101.67+39.11+101.8+15.95C101.8+12.08+100.54+10.32+96.64+10.63C95.48+10.72+94.3+10.63+93.14+10.63C85.94+10.63+85.79+10.79+85.79+17.79C85.79+61.95+85.79+106.107+85.79+150.26C85.79+160.26+85.79+160.14+96.01+160.14C100.17+160.14+101.87+158.93+101.83+154.41C101.63+131.42+101.74+108.43+101.74+85.43ZM74.77+139L74.77+31.8C65.95+38.06+57.69+43.8+49.6+49.8C48.68+50.48+48.35+52.44+48.34+53.8C48.26+74.78+48.26+95.76+48.34+116.74C48.34+118.22+48.86+120.31+49.9+121.09C57.88+127.05+66+132.72+74.77+139ZM37.38+53.38C32.18+53.38+27.24+53.33+22.29+53.38C15.29+53.48+10.84+57.48+10.75+64.38C10.5567+78.34+10.5567+92.3033+10.75+106.27C10.83+112.36+14.47+116.66+20.29+117.2C25.84+117.72+31.47+117.32+37.38+117.32L37.38+53.38Z" opacity="1" fill="#ac162c"/>
<path d="M142.82+98.49C140.53+101.29+138.33+104.19+135.9+106.87C133.61+109.4+130.61+110.19+127.96+107.76C125.06+105.1+125.89+101.98+128.47+99.45C133.08+94.93+137.82+90.53+143.23+85.45C137.85+80.19+133+75.69+128.41+71C125.41+68+125.41+63.79+128.62+62.65C131.021+62.0419+133.567+62.4856+135.62+63.87C138.62+66.06+140.82+69.24+143.36+72.01L144.88+71.15C144.88+63.27+144.88+55.4+144.88+47.52C144.767+45.6799+144.807+43.8335+145+42C145.68+38+149.87+35.8+152.78+38.5C160.69+45.84+168.3+53.5+175.68+61.4C178.33+64.22+175.94+66.99+173.74+69.18C168.46+74.44+163.12+79.64+157.21+85.45C162.78+90.87+167.91+95.79+172.95+100.8C177.99+105.81+178.03+107.43+172.81+112.64C166.92+118.52+161.16+124.55+155.02+130.15C153.35+131.67+150.02+133.06+148.31+132.38C146.6+131.7+145.08+128.38+144.99+126.15C144.61+117.39+144.83+108.61+144.83+99.84L142.82+98.49ZM155.75+114.82C158.93+111.29+161.14+108.82+163.6+106.08L155.75+98.61L155.75+114.82ZM156+56.19L156+72L164.1+63.91L156+56.19Z" opacity="1" fill="#ac162c"/>
</g>
</g>
</svg>
