<svg xmlns="http://www.w3.org/2000/svg" width="266.882" height="140" viewBox="0 0 266.882 140">
  <g id="MediaIconHDMI" transform="translate(-379 -192)">
    <g id="Layer_2" data-name="Layer 2" transform="translate(587.019 220)">
      <g id="Layer_1" data-name="Layer 1" transform="translate(-0.001)">
        <path id="Path_581" data-name="Path 581" d="M4.078.2C9.066.146,14.054.053,19.042.044,30.289.044,41.554.075,52.783,0c1.894,0,2.56.5,2.534,2.482-.1,7.79-.04,15.584-.04,23.564h3.43c.049.8.124,1.435.124,2.062,0,7.649-.084,15.3.031,22.964A11.611,11.611,0,0,1,47.155,62.665c-3.381-.04-6.758,0-10.338,0V73.383H21.787V62.647c-3.421,0-6.621-.106-9.83,0C6.541,62.859,2.966,60.236.67,55.581a5.88,5.88,0,0,1-.552-2.491c-.057-8.448,0-16.9-.119-25.357-.04-2.919,2.1-1.66,3.743-2.208V.57Zm7.433,25.415h36.05V7.949H11.511Z" transform="translate(0.001)" fill="#414042"/>
        <path id="Path_582" data-name="Path 582" d="M8.815.45,8.48.821Z" transform="translate(-4.736 -0.251)" fill="#5d5c5e"/>
        <path id="Path_583" data-name="Path 583" d="M74.3,32.537v-7.5c2.256,0,4.652-.516,6.687.132,2.45.79.936,3.394,1.126,5.169.075.675-.786,2.03-1.324,2.1A55.076,55.076,0,0,1,74.3,32.537Z" transform="translate(-41.503 -13.875)" fill="#414042"/>
        <path id="Path_584" data-name="Path 584" d="M41.38,32.813V25.6h7.292v7.213Z" transform="translate(-23.114 -14.294)" fill="#414042"/>
      </g>
    </g>
    <path id="Path_1227" data-name="Path 1227" d="M69.838,128.636V113H8.426C1.433,113,.1,111.785.085,104.729Q-.062,56.008,0,7.309C0,1.243,1.391,0,7.426,0h177.42c7.667,0,9.479,1.706,9.479,9.479V103.2c0,7.825-2.106,9.816-9.847,9.816H124.129v15.629h31.48a35.56,35.56,0,0,1,4.739,0c3.4.474,6.8,1.316,6.519,5.782-.274,4.076-2.991,5.413-6.825,5.424-23.17,0-46.34.137-69.51.147-18.778,0-37.557-.147-56.335-.147-3.939,0-7.162-1-7.288-5.445-.126-4.76,3.16-5.877,7.372-5.835C45.92,128.71,57.652,128.636,69.838,128.636ZM181.6,101.906l.958-.843V11.469H11.344v90.574H55.314Zm-68.7,11.417H80.749v15.061H112.9Z" transform="translate(379.018 192)" fill="#414042"/>
  </g>
</svg>
