<svg xmlns="http://www.w3.org/2000/svg" viewBox="0 0 106.34 144.34"><defs><style>.cls-1{fill:#414141;}</style></defs><title>MediaIconCable</title><g id="Layer_2" data-name="Layer 2"><g id="Layer_1-2" data-name="Layer 1"><g id="Layer_2-2" data-name="Layer 2"><g id="Layer_1-2-2" data-name="Layer 1-2"><path class="cls-1" d="M61.46,41.49c10.22-6,20.42-11.87,30.5-17.94,1.07-.65,1.6-2.34,2.18-3.64,1.53-3.38,4.11-4.86,7.64-3.87a5.68,5.68,0,0,1,4.45,6.69,1.24,1.24,0,0,0,0,.16c-.59,3.66-3,5.16-6.69,5.42a12.87,12.87,0,0,0-6.27,1.83c-8.69,6.14-17.18,12.57-26.15,19.2,1.16,1.77,2.29,3.33,3.25,5C77.7,67,85.76,79.25,92.19,92.34c6.85,14,4,17.49-11.53,17.42-29.82-.13-59-21.56-70.6-51.86C3.24,40,3.1,22.44,12.27,5.28c3.1-5.82,5.29-6.87,10.58-2.95A170.55,170.55,0,0,1,43,20.06C49.5,26.68,55.17,34.1,61.46,41.49Zm-2.39,1.36C48.73,29.6,38.67,16.84,25.4,7.06a5.12,5.12,0,0,0-1.7-1c-2.16-.5-4.35-.88-6.52-1.3-.38,2.33-1.46,4.82-1,7a57.82,57.82,0,0,0,4.35,12.16A264.3,264.3,0,0,0,70.21,93.39a75.32,75.32,0,0,0,11.58,9.42c1.83,1.24,4.55,1.16,6.87,1.68.37-2.48,1.58-5.2,1-7.39C84.79,80.1,74.88,65.7,65,50.92c-4.57,3.37-8.75,6.35-12.83,9.47-3.47,2.65-5.74,1.16-7.78-1.91S42,52.72,45.79,50.62C50.12,48.21,54.36,45.62,59.07,42.85Z"/><path class="cls-1" d="M16.17,144.34c-4.21-.49-8.5-.86-12.75-1.52-2.68-.41-3.85-1.9-3.28-4.95,3.1-16.49,6-33,9-49.53.82-4.4,3.86-6.51,8.23-6.4,4.12.1,7,2.15,7.73,6.37,2.73,16.57,5.27,33.16,8.06,49.71.54,3.2-1,4.41-3.53,4.8C25.24,143.49,20.78,143.84,16.17,144.34Z"/></g></g></g></g></svg>