<svg xmlns="http://www.w3.org/2000/svg" viewBox="0 0 940.33 1514.16"><defs><style>.cls-1{fill:#eaeaea;}.cls-2{fill:#f7f7f7;}.cls-3{fill:#f3f3f3;}.cls-4{fill:#f4f4f4;}.cls-5{fill:#f1f1f1;}.cls-6{fill:#f0f0f0;}.cls-7{fill:#efefef;}.cls-8{fill:#e8e8e8;}</style></defs><title>TemperatureUnitBackground</title><g id="Layer_2" data-name="Layer 2"><g id="Layer_1-2" data-name="Layer 1"><path class="cls-1" d="M903.17,1479l-1,1h-1l-6,4-1,1-4,3h0l-9,6-1,2h-1l-14,7h-1l-5,1-4,1-2,0-4,1-8,1h-4l-8,1c-2.35.24-5.24-3.34-7,1-52.75-1.24-105.49.29-158.29-1.34-53-1.64-106.19-3-159.26,1.18-13.73,1.09-27.62.17-41.43.17h-22a24.23,24.23,0,0,0-4.67-1q-43.33-.08-86.67,0a24.2,24.2,0,0,0-4.67,1l-41,0a28.63,28.63,0,0,0-5.17-1c-15.28-.08-30.56,0-45.84,0h-28a15.2,15.2,0,0,0-3.69-1q-51.72-.08-103.43,0c-1.3,0-2.59,1.24-3.88,1.91h-2l-1-1h-6l-5-1h-5l-2-2c-2.29-.15-4.71.11-6.85-.53-11.88-3.56-23.42-7.92-33.55-15.36-2.08-1.53-4.39-2.75-6.59-4.11l-1-1-5-4c-2.27-2.11-4.6-4.15-6.79-6.35-2.47-2.48-4.8-5.11-7.2-7.67-.19-1.29-.07-2.73-.62-3.84-2.69-5.41-5.09-11.05-8.49-16-4.74-6.9-6.33-14.66-8-22.53-.37-1.67-1.87-3.09-2.84-4.63v-2c1.08-2.24,2.48-4.54-1-6v-5c.67-5,1.91-10.08,1.91-15.12q.13-622.78,0-1245.56c0-12.77-.62-25.54-1-38.31v-3c0-2.67,0-5.34,0-8V94a31.38,31.38,0,0,0,2.91-5.15c1.23-3.58,1.76-7.41,3.17-10.9,3.11-7.73,6.58-15.32,9.9-23,5.24-8.47,10.88-16.57,19-22.67a106.18,106.18,0,0,0,8-7.32,27.23,27.23,0,0,0,4-1.47c6.35-3.46,12.65-7,19-10.54h1c3.8-1.07,7.55-2.32,11.39-3.19C90.67,8.42,96.68,5.52,103.18,8c-2.23.37-4.47.68-6.68,1.11-26.86,5.2-49.21,17.51-66,39.76A102.13,102.13,0,0,0,9.21,112.22q-.09,644.71,0,1289.41a92.36,92.36,0,0,0,1.12,15.86c4.67,26.5,16.94,48.74,38.33,65.39A102.53,102.53,0,0,0,113.28,1505q358,0,716-.12a93.64,93.64,0,0,0,21.13-2.6c24.6-5.77,44.82-18.58,60-39,11.21-15.08,18.14-31.84,19.92-50.69.43-4.6,1.9-9.11,2.9-13.66q1,3,2,6-1.5,2.49-3,5c0,2,0,4,0,6,0,1,0,2,0,3l-1,8v2l-5,11a12.84,12.84,0,0,1-.71,2.33q-5.61,10.85-11.29,21.67c-1.66,2.33-3.33,4.66-5,7l-2,3Z"/><path class="cls-2" d="M935.17,1405q-1-3-2-6V1396c.66-2.1,1.9-4.19,1.91-6.28q.15-71.38.07-142.75v-15q0-41.85,0-83.7a41.24,41.24,0,0,0-1-6.29q-.48-5.52-1-11,0-10.49,0-21c0-.34,0-.69,0-1V1078c.67-6.44,1.84-12.88,1.91-19.32.24-22.16.14-44.32,0-66.47,0-1.77-1.25-3.53-1.91-5.3q0-30,0-59.94a24.71,24.71,0,0,1,.93,4.65c.1,6.77,0,13.55,0,20.32l.49,1.31.52-1.29a37,37,0,0,0,1-5.84q.14-17.68,0-35.36a25.48,25.48,0,0,0-1-4.8c0-27.55,0-55.11-.09-82.67,0-1.79-1.24-3.58-1.91-5.37V814c.67-1.62,1.89-3.23,1.91-4.85.15-14.06.09-28.13.09-42.19.34-4.79,1-9.59,1-14.38q.11-96.72,0-193.42,0-36.45,0-72.88a41.47,41.47,0,0,0-1-6.31q0-172,0-344,0-8,0-16l1-8v-4c0-.33,0-.65,0-1h1l1,1,1,5V1399l-1,5-1,2Z"/><path class="cls-2" d="M3.17,1406c-.34-1-.67-2-1-3-.33-1.34-.67-2.67-1-4V113c.33-1.66.67-3.33,1-5,.33-.34.66-.67,1-1h1V1406Z"/><path class="cls-2" d="M110.17,1508h1l1,1h2c2.28.66,4.56,1.89,6.85,1.91,22.72.14,45.44.08,68.16.08,61.52-1.07,123.08,2.09,184.59-1.85,15.41-1,30.93-.14,46.4-.14l7,1,14-1h22a16.66,16.66,0,0,0,3.68,1c17.94.39,35.88,1,53.81,1,50.73-.16,101.46-.73,152.19-.9,49.77-.17,99.54,0,149.31,0l7-1h3v2l-3,1-4,1h-711l-5-1-1-1v-1Z"/><path class="cls-2" d="M108.17,2c.66-.34,1.33-.67,2-1l4-1h711l4,1h12l3,1h8l2,2h2l2,1,10,2,2,2,3,3c-1.38-.51-2.73-1.15-4.15-1.52-4.6-1.21-9.23-2.32-13.85-3.47-7.53-1-15-2.77-22.6-2.88C791.3,3.52,750,3.39,708.74,3c-14.62-.15-29.24-.94-43.86-.92q-278.35.39-556.71,1Z"/><path class="cls-3" d="M46.17,1485c2.2,1.36,4.51,2.58,6.59,4.11,10.13,7.44,21.67,11.8,33.55,15.36,2.14.64,4.56.38,6.85.53,0,.67,0,1.33,0,2-5.77,1.77-10.79-1-16-2.64-3.36-1.06-6.68-2.24-10-3.36l-6-2-12-9h-1Z"/><path class="cls-3" d="M6.18,1419c1,1.54,2.47,3,2.84,4.63,1.72,7.87,3.31,15.63,8.05,22.53,3.4,4.95,5.8,10.59,8.49,16,.55,1.11.43,2.55.62,3.84l-1,0-1-1a66.22,66.22,0,0,0-3.73-6.18c-1.57-2.08-3.49-3.89-5.26-5.82l-2-6c-.37-1.7-.76-3.4-1.1-5.11C10.52,1434.15,4.71,1427.5,6.18,1419Z"/><path class="cls-2" d="M855.17,7c4.62,1.15,9.25,2.26,13.85,3.47,1.42.37,2.77,1,4.15,1.52l6,2c-.31,3.19,1.86,3.07,4,3h1c-.31,3.19,1.86,3.07,4,3h1l2,2,2,1,2,2,5,2-4,1h-2c-8.74-6.1-17.12-12.87-28-15a27.32,27.32,0,0,0-3.91-3C860,8.78,857.54,8,855.17,7Z"/><path class="cls-2" d="M49.17,25a106.18,106.18,0,0,1-8,7.32C33,38.42,27.4,46.52,22.16,55h-1V50l2-2,1-2,2-2c.66-1.66,1.33-3.33,2-5l.41,3.94c1.32-2.53,2-3.74,2.59-4.95l8-8c1.2-.64,2.41-1.27,4.94-2.59L40.17,27l5-2,3-2h1C49.17,23.66,49.17,24.33,49.17,25Z"/><path class="cls-3" d="M21.17,55h1c-3.32,7.65-6.79,15.24-9.9,23-1.41,3.49-1.94,7.32-3.17,10.9A31.38,31.38,0,0,1,6.18,94C7,89.58,7.65,85.1,8.75,80.74c1.26-5,2.93-9.84,4.42-14.74l1-1,1-2Z"/><path class="cls-2" d="M937.16,87v8c-.68-1.11-1.41-2.2-2-3.34-1-1.87-2-3.78-3-5.67-.34-1.33-.67-2.66-1-4h0l-4-9q-1-2.5-2-5c0-.33,0-.67,0-1h1c2.27-1.22,4.14-1.61,4,2l2,2,2,10,1,2c0,.67,0,1.34,0,2Z"/><path class="cls-2" d="M6.18,1419c-1.47,8.52,4.34,15.17,5.89,22.91.34,1.71.73,3.41,1.1,5.11l-3-3-2-2q-1-5-2-10l-1-2v-2l-2-2v-8l2-1h1Z"/><path class="cls-2" d="M13.17,66C11.68,70.9,10,75.77,8.75,80.74,7.65,85.1,7,89.58,6.18,94v2h-1l-2-1V87c.67-.67,1.33-1.34,2-2V83l1-2q1-5,2-10c.67-.67,1.33-1.34,2-2Z"/><path class="cls-2" d="M67.17,1501c3.33,1.12,6.65,2.3,10,3.36,5.2,1.66,10.22,4.41,16,2.64h3l1,2c-.34.66-.67,1.33-1,2h-8l-2-2h-2l-2-1-10-2-2-2Z"/><path class="cls-2" d="M849.17,1506l4-1,2,1.76,0-1.78,4-1c2.33,2.91,3.75,1.36,5-1h1l8-2-3,3-2,2-10,2-2,1h-2l-2,2h-8a22.93,22.93,0,0,0,2.71-2A29.88,29.88,0,0,0,849.17,1506Z"/><path class="cls-3" d="M914.17,1464q5.66-10.83,11.29-21.67a12.84,12.84,0,0,0,.71-2.33l3-3v1q-1,4.5-2,9l-2,6a23,23,0,0,0-3.88,3.3c-1.87,2.44-3.43,5.12-5.11,7.7Z"/><path class="cls-2" d="M67.17,12l3-3,2-2,10-2c.66-.34,1.33-.67,2-1h2c.66-.67,1.33-1.33,2-2h8V5h-2l-3,1h-1l-3,1h-2l-2,1h-1l-6,2h-3l-2,2Z"/><path class="cls-4" d="M67.17,12h4l1,1c-6.32,3.52-12.62,7.08-19,10.54a27.23,27.23,0,0,1-4,1.47c0-.67,0-1.34,0-2h0a83.13,83.13,0,0,0,8.71-5.16c1.47-1.12,2.22-3.19,3.3-4.83Z"/><path class="cls-2" d="M935.17,1405l2,1v3c-1.1,2.23-2.5,4.52,1,6-.33,1-.66,2-1,3-.68,1.11-1.41,2.19-2,3.33-1,1.87-2,3.78-3,5.67h0q0-4,0-8c0-1,0-2,0-3,3.1-2,3.08-4,0-6Q933.68,1407.49,935.17,1405Z"/><path class="cls-2" d="M932.17,1427c1-1.89,1.94-3.8,3-5.67.62-1.14,1.35-2.22,2-3.33v8l-2,2c0,.66,0,1.33,0,2l-1,2-2,10-2,2-3,3q1-4.5,2-9C932.75,1435,933.43,1431.28,932.17,1427Z"/><path class="cls-2" d="M932.17,86c1,1.89,1.94,3.8,3,5.67.62,1.14,1.35,2.23,2,3.34.34,1,.67,2,1,3-3.49,1.47-2.09,3.76-1,6v3h-1l-3-7-1-3c0-1,0-2,0-3-.34-1.34-.67-2.68-1-4,0-.67,0-1.33,0-2,.33-.67.66-1.34,1-2Z"/><path class="cls-2" d="M25.16,1466l1,0c2.4,2.56,4.73,5.19,7.2,7.67,2.19,2.2,4.52,4.24,6.79,6.35l0,1c-5,1-6.07-3.88-9-6-.64-1.21-1.27-2.42-2.59-4.94l-.41,3.93c-.67-1.66-1.34-3.33-2-5-.34-.67-.67-1.34-1-2Z"/><path class="cls-2" d="M914.17,44q5.49,8,11,16h-3l-2-3h-1l-1-3q-1.49-3-3-6C914.83,46.66,914.5,45.33,914.17,44Z"/><path class="cls-2" d="M61.17,13c-1.08,1.64-1.83,3.71-3.3,4.83A83.13,83.13,0,0,1,49.16,23c.86-1.19,1.5-2.68,2.62-3.53C54.8,17.16,58,15.14,61.17,13Z"/><path class="cls-2" d="M15.17,1453c1.77,1.93,3.69,3.74,5.26,5.82a66.22,66.22,0,0,1,3.73,6.18C20.42,1463.8,14.89,1456.42,15.17,1453Z"/><path class="cls-2" d="M873.17,1501l-8,2,14-7v3Z"/><path class="cls-2" d="M849.17,1506a29.88,29.88,0,0,1-2.29,2.93,22.93,22.93,0,0,1-2.71,2l-3,1c-.34-1-.67-2-1-3l1-2Z"/><path class="cls-2" d="M49.16,1490l12,9C55.81,1497.8,51.55,1495.15,49.16,1490Z"/><path class="cls-2" d="M916.17,1464c1.68-2.58,3.24-5.26,5.11-7.7a23,23,0,0,1,3.88-3.3c-1.18,5.36-3.85,9.61-9,12Z"/><path class="cls-2" d="M895.17,1487c-2.93,4.42-6.31,8.26-12,9h0c.33-.67.66-1.34,1-2l6-6h0l4-1Z"/><path class="cls-2" d="M21.17,55l-6,8h-1c-.35-5.57,2.81-9.09,7-12Z"/><path class="cls-5" d="M902.17,32l3,2v1l2,5q-4-4-8-8Z"/><path class="cls-2" d="M916.17,1464v3l-2,2c-.67,1.66-1.34,3.33-2,5l-3-3c1.66-2.34,3.33-4.67,5-7Z"/><path class="cls-2" d="M46.17,1485l2,5-4-2-4-2c0-1.34,0-2.67,0-4l5,2Z"/><path class="cls-2" d="M100.17,1507l5,1v3l-6,1v-3C99.5,1508.33,99.84,1507.67,100.17,1507Z"/><path class="cls-2" d="M96.17,5V2l3-1,3,3Z"/><path class="cls-2" d="M840.17,1509c.33,1,.66,2,1,3l-6-1v-2l2-1Z"/><path class="cls-2" d="M3.17,104q-.51-3-1-6h3q0,3,0,6Z"/><path class="cls-2" d="M5.17,1409c0,.66,0,1.32,0,2,0,1.33,0,2.67,0,4h-3q.5-3,1-6Z"/><path class="cls-2" d="M909.18,1471l3,3-4,1-1-1Z"/><path class="cls-2" d="M907.16,1474l1,1-5,4Z"/><path class="cls-2" d="M895.17,1487h-1v-2l1-1h3l2,2Z"/><path class="cls-2" d="M102.17,4l-3-3,6,1V4Z"/><path class="cls-2" d="M914.17,44c.33,1.34.66,2.67,1,4h-1l-3-3V43l1-1Z"/><path class="cls-2" d="M896.17,28l4-1,1,3h-3Z"/><path class="cls-2" d="M912.17,42l-1,1-2-2V38l3,1v3Z"/><path class="cls-2" d="M938.16,1415c-3.49-1.48-2.09-3.77-1-6Z"/><path class="cls-2" d="M5.17,98h-3c.33-1,.67-2,1-3l2,1Z"/><path class="cls-2" d="M879.17,1499v-3h1l3,0h0C883.47,1499.18,881.31,1499.07,879.17,1499Z"/><path class="cls-2" d="M2.17,1415h3v2l-2,1Z"/><path class="cls-2" d="M883.17,17c-2.14.08-4.31.2-4-3C881.31,13.92,883.47,13.81,883.17,17Z"/><path class="cls-2" d="M99.17,1509v3l-3-1c.33-.67.66-1.34,1-2Z"/><path class="cls-2" d="M937.17,104c-1.1-2.24-2.5-4.53,1-6Z"/><path class="cls-2" d="M909.17,38v3h-1c-.33-.33-.66-.67-1-1l-2-5h1Z"/><path class="cls-2" d="M888.17,20c-2.14.08-4.31.2-4-3Z"/><path class="cls-3" d="M45.17,1484l-5-2v-1c0-.34,0-.68,0-1Z"/><path class="cls-2" d="M900.16,1486l-2-2,3-2h0C900.83,1483.33,900.5,1484.66,900.16,1486Z"/><path class="cls-2" d="M939.16,113l-1-5C941.29,109.11,940.49,111,939.16,113Z"/><path class="cls-2" d="M109.17,1512l5,1C112.17,1514.32,110.28,1515.12,109.17,1512Z"/><path class="cls-2" d="M938.17,1404l1-5C940.49,1401,941.29,1402.89,938.17,1404Z"/><path class="cls-2" d="M2.17,108c-.33,1.66-.67,3.33-1,5C-.16,111-.95,109.11,2.17,108Z"/><path class="cls-2" d="M105.17,1511v-3h3v3Z"/><path class="cls-2" d="M3.17,104h3v3h-3Z"/><path class="cls-2" d="M829.16,1l-4-1Z"/><path class="cls-2" d="M31.17,38l-2.59,4.95L28.17,39Z"/><path class="cls-2" d="M1.17,1399c.33,1.33.67,2.66,1,4C1.84,1401.66,1.5,1400.33,1.17,1399Z"/><path class="cls-2" d="M114.16,0l-4,1Z"/><path class="cls-2" d="M28.17,1474c.08-.78.16-1.56.41-3.93,1.32,2.52,2,3.73,2.59,4.94Z"/><path class="cls-2" d="M922.17,60h3v4h-1Z"/><path class="cls-2" d="M825.17,1513l4-1Z"/><path class="cls-2" d="M40.17,27l3.94.41c-2.53,1.32-3.74,1.95-4.94,2.59C39.5,29,39.84,28,40.17,27Z"/><path class="cls-2" d="M898.17,30h3l1,2h-3c-.33-.33-.66-.67-1-1C898.16,30.67,898.17,30.33,898.17,30Z"/><path class="cls-2" d="M40.17,1486l4,2Z"/><path class="cls-2" d="M844.16,2l-3-1Z"/><path class="cls-2" d="M105.17,4V2h3V3Z"/><path class="cls-2" d="M5.17,1409h-2v-3h2Z"/><path class="cls-2" d="M835.17,1509v2h-3v-2Z"/><path class="cls-2" d="M48.17,23l-3,2Z"/><path class="cls-2" d="M854.16,4l-2-2Z"/><path class="cls-2" d="M84.17,4c-.67.33-1.34.66-2,1C82.83,4.66,83.5,4.33,84.17,4Z"/><path class="cls-2" d="M858.16,5l-2-1Z"/><path class="cls-2" d="M934.17,1432l1-2Z"/><path class="cls-2" d="M5.17,85c-.67.66-1.33,1.33-2,2C3.84,86.33,4.5,85.66,5.17,85Z"/><path class="cls-2" d="M25.16,1467c.34.66.67,1.33,1,2C25.83,1468.33,25.5,1467.66,25.16,1467Z"/><path class="cls-2" d="M914.17,1469l2-2Z"/><path class="cls-2" d="M935.17,1428l2-2Z"/><path class="cls-2" d="M3.17,1426l2,2Z"/><path class="cls-2" d="M5.17,1430l1,2Z"/><path class="cls-2" d="M935.16,83l-1-2Z"/><path class="cls-2" d="M6.17,81l-1,2Z"/><path class="cls-2" d="M932.16,71l-2-2Z"/><path class="cls-2" d="M10.17,69c-.67.66-1.33,1.33-2,2C8.84,70.33,9.5,69.66,10.17,69Z"/><path class="cls-2" d="M891.17,22l-2-2Z"/><path class="cls-2" d="M70.17,1504l2,2Z"/><path class="cls-2" d="M868.17,1506l2-2Z"/><path class="cls-2" d="M23.17,48l-2,2Z"/><path class="cls-2" d="M870.16,9l-2-2Z"/><path class="cls-2" d="M26.17,44l-2,2Z"/><path class="cls-2" d="M937.16,87l-2-2Z"/><path class="cls-2" d="M8.17,1442l2,2Z"/><path class="cls-2" d="M912.17,41V39l1.55.77Z"/><path class="cls-2" d="M82.17,1508l2,1Z"/><path class="cls-2" d="M895.17,25l-2-2Z"/><path class="cls-2" d="M856.17,1509l2-1Z"/><path class="cls-2" d="M86.17,1509l2,2Z"/><path class="cls-2" d="M88.17,2c-.67.67-1.34,1.33-2,2C86.83,3.33,87.5,2.67,88.17,2Z"/><path class="cls-2" d="M852.17,1511l2-2Z"/><path class="cls-2" d="M72.17,7l-2,2Z"/><path class="cls-2" d="M930.17,1444l2-2Z"/><path class="cls-2" d="M14.17,63h1l-1,2C14.16,64.33,14.16,63.66,14.17,63Z"/><path class="cls-2" d="M901.17,1480h1c-.33.67-.67,1.33-1,2h0C901.17,1481.33,901.17,1480.67,901.17,1480Z"/><path class="cls-2" d="M906.17,35h-1V34Z"/><path class="cls-2" d="M926.17,64v2h-1V64h1Z"/><path class="cls-4" d="M926.17,64h-1V62Z"/><path class="cls-4" d="M925.17,66h1v1h-1Z"/><path class="cls-2" d="M933.17,814V818a22.89,22.89,0,0,0-1,4.66q-.09,39.57,0,79.12a29,29,0,0,0,1,5.29q0,10,0,20l0,59.94a27.56,27.56,0,0,0-1,5.16q-.11,39.32,0,78.61a55.59,55.59,0,0,0,1,7.32V1109l-1,1q0,14,0,28c0,.35,0,.7,0,1s0,.66,0,1,0,.65,0,1c0,.66,0,1.33,0,2q-.48,44.51-1,89v15q0,50.34,0,100.69,0,23.05.33,46.12c0,.75,1.08,1.49,1.66,2.23V1399c-1,4.55-2.47,9.06-2.9,13.66-1.78,18.85-8.71,35.61-19.92,50.69-15.17,20.4-35.39,33.21-60,39a93.64,93.64,0,0,1-21.13,2.6q-358,.19-715.95.12a102.53,102.53,0,0,1-64.62-22.13C27.27,1466.23,15,1444,10.33,1417.49a92.36,92.36,0,0,1-1.12-15.86q-.08-644.7,0-1289.41A102.13,102.13,0,0,1,30.45,48.87C47.29,26.62,69.64,14.31,96.5,9.11c2.21-.43,4.45-.74,6.68-1.11h4l5-2h714c1,.66,1.85,1.73,2.89,1.91,3.08.54,6.23.74,9.35,1.05,32.29,3.21,57.13,19.07,75.28,45.4,13.12,19,18.25,40.61,17.51,63.64q0,9,0,18c.33,44.61.84,89.21.94,133.82.16,68.13,0,136.27.09,204.41a46.92,46.92,0,0,0,1,6.81V767a15,15,0,0,0-1,3.66q-.11,19.88,0,39.75A15,15,0,0,0,933.17,814Z"/><path class="cls-3" d="M5.17,1406h-1V107h2c.33,12.77,1,25.54,1,38.31q.08,622.79,0,1245.56C7.08,1395.91,5.84,1401,5.17,1406Z"/><path class="cls-6" d="M826.15,6h-714l-5,2h-4c-6.5-2.48-12.51.42-18.63,1.8C80.71,10.67,77,11.92,73.16,13c0-1,0-2,0-3h3l6-2h1l2-1h2l3-1h1l3-1h2l6-1h3l3-1q278.36-.5,556.71-1c14.62,0,29.24.77,43.86.92,41.28.42,82.56.55,123.83,1.15,7.55.11,15.07,1.88,22.6,2.88,2.37,1,4.82,1.78,7.1,2.95a27.32,27.32,0,0,1,3.91,3C853.21,8.52,840,5.61,826.15,6Z"/><path class="cls-7" d="M822.16,1510c-49.77,0-99.54-.13-149.31,0-50.73.17-101.46.74-152.19.9-17.93,0-35.87-.59-53.81-1a16.66,16.66,0,0,1-3.68-1c13.82,0,27.71.92,41.44-.17,53.07-4.18,106.27-2.82,159.26-1.18,52.8,1.63,105.54.1,158.29,1.34Z"/><path class="cls-2" d="M189.18,1511c-22.72,0-45.44.06-68.16-.08-2.29,0-4.57-1.25-6.85-1.91,1.29-.67,2.58-1.91,3.88-1.91q51.71-.16,103.43,0a15.2,15.2,0,0,1,3.69,1v1h-9c-7.57,0-15.13-.11-22.69.09C192,1509.12,190.61,1510.33,189.18,1511Z"/><path class="cls-6" d="M189.18,1511c1.43-.66,2.85-1.87,4.3-1.9,7.56-.2,15.12-.09,22.69-.09a23.47,23.47,0,0,0,4.67,1q60.41.09,120.81,0a13.55,13.55,0,0,0,3.51-1,24.2,24.2,0,0,1,4.67-1q43.34-.08,86.67,0a24.23,24.23,0,0,1,4.67,1l-14,1-7-1c-15.47,0-31-.84-46.4.14C312.26,1513.08,250.7,1509.92,189.18,1511Z"/><path class="cls-3" d="M345.16,1509a13.55,13.55,0,0,1-3.51,1q-60.4.08-120.81,0a23.47,23.47,0,0,1-4.67-1h88Z"/><path class="cls-2" d="M304.18,1509h-52v-1h1c15.28,0,30.56,0,45.84,0A28.63,28.63,0,0,1,304.18,1509Z"/><path class="cls-6" d="M252.17,1508v1h-27v-1Z"/><path class="cls-3" d="M890.17,1488l-6,6h-3Z"/><path class="cls-5" d="M929.17,1437l-3,3,5-11C930.5,1431.66,929.83,1434.33,929.17,1437Z"/><path class="cls-2" d="M929.17,1437c.66-2.67,1.33-5.34,2-8v-2h1c1.26,4.28.58,8-3,11Z"/><path class="cls-6" d="M822.16,1510v-1c1.77-4.33,4.66-.75,7-1v1Z"/><path class="cls-5" d="M932.17,1427h-1l1-8Q932.17,1423,932.17,1427Z"/><path class="cls-7" d="M829.17,1509v-1l8-1v1l-2,1h-6Z"/><path class="cls-3" d="M6.17,104h-1q0-3,0-6V96h1C6.18,98.66,6.17,101.33,6.17,104Z"/><path class="cls-3" d="M901.17,1480c0,.67,0,1.33,0,2l-3,2h-3Z"/><path class="cls-5" d="M932.19,1410c3.06,2,3.08,4,0,6C932.18,1414,932.18,1412,932.19,1410Z"/><path class="cls-3" d="M5.17,1417v-2c0-1.34,0-2.68,0-4,3.48,1.47,2.08,3.77,1,6Z"/><path class="cls-2" d="M864.17,1503c-1.25,2.38-2.67,3.93-5,1Z"/><path class="cls-6" d="M837.17,1508v-1h4c-.33.67-.67,1.33-1,2Z"/><path class="cls-3" d="M894.17,1485v2l-4,1Z"/><path class="cls-2" d="M881.16,1494h3c-.34.66-.67,1.33-1,2l-3,0Z"/><path class="cls-3" d="M99.17,1509h-2l-1-2h4C99.84,1507.67,99.5,1508.33,99.17,1509Z"/><path class="cls-2" d="M855.18,1505l0,1.78-2-1.76Z"/><path class="cls-2" d="M73.18,10c0,1,0,2,0,3h-1c-.34-.33-.67-.66-1-1Z"/><path class="cls-3" d="M108.17,1510v-2h2Z"/><path class="cls-7" d="M95.17,1507h-2c0-.67,0-1.33,0-2Z"/><path class="cls-6" d="M253.17,1508h0Z"/><path class="cls-3" d="M112.17,1509l-1-1Z"/><path class="cls-7" d="M933.17,481a46.92,46.92,0,0,1-1-6.81c-.06-68.14.07-136.28-.09-204.41-.1-44.61-.61-89.21-.94-133.82h4q0,172,0,344Z"/><path class="cls-2" d="M933.17,481l2-1a41.47,41.47,0,0,1,1,6.31q.11,36.44,0,72.88,0,96.7,0,193.42c0,4.79-.61,9.59-1,14.38l-2,0V481Z"/><path class="cls-8" d="M933.17,1396c-.58-.74-1.65-1.48-1.66-2.23q-.28-23.05-.33-46.12-.06-50.36,0-100.69h4q0,71.37-.07,142.75C935.07,1391.85,933.83,1393.94,933.17,1396Zm.75-41.14h-.42v3l.42,0Z"/><path class="cls-1" d="M826.15,6c13.82-.39,27.06,2.52,40,7,10.86,2.15,19.24,8.92,28,15l4,3c.34.33.67.67,1,1q4,4,8,8c.34.33.67.67,1,1l3,4,3,3,4,6,1,3,1,2h0q2.51,4.5,5,9,1,2.49,2,5c-.76,3.92-.77,7.52,4,9h0v4c0,.66,0,1.33,0,2s0,1.32,0,2c.33,1.33.66,2.67,1,4,0,1,0,2,0,3,.34,1,.67,2,1,3l3,7c0,.33,0,.65,0,1v4l-3,.28V118h-2c.74-23-4.39-44.61-17.51-63.64C895.52,28,870.68,12.17,838.39,9c-3.12-.31-6.27-.51-9.35-1.05C828,7.73,827.11,6.66,826.15,6Z"/><path class="cls-8" d="M931.17,1232q.5-44.51,1-89l2-1a41.24,41.24,0,0,1,1,6.29q.09,41.85,0,83.7Z"/><path class="cls-7" d="M933.17,907a29,29,0,0,1-1-5.29q-.09-39.56,0-79.12a22.89,22.89,0,0,1,1-4.66c.67,1.79,1.9,3.58,1.91,5.37.12,27.56.09,55.12.09,82.67Z"/><path class="cls-1" d="M933.16,1078a55.59,55.59,0,0,1-1-7.32q-.11-39.3,0-78.61a27.56,27.56,0,0,1,1-5.16c.66,1.77,1.9,3.53,1.91,5.3.13,22.15.23,44.31,0,66.47C935,1065.16,933.83,1071.6,933.16,1078Z"/><path class="cls-7" d="M933.17,767l2,0c0,14.06.06,28.13-.09,42.19,0,1.62-1.24,3.23-1.91,4.85a15,15,0,0,1-1-3.66q-.11-19.87,0-39.75A15,15,0,0,1,933.17,767Z"/><path class="cls-2" d="M933.17,907l2-1a25.48,25.48,0,0,1,1,4.8q.12,17.69,0,35.36a37,37,0,0,1-1,5.84l-1,0c0-6.77.06-13.55,0-20.32a24.71,24.71,0,0,0-.93-4.65Q933.18,917,933.17,907Z"/><path class="cls-8" d="M931.18,118h2l2,2q0,8,0,16h-4Q931.19,127,931.18,118Z"/><path class="cls-7" d="M931.17,1232h4v15h-4Z"/><path class="cls-5" d="M932.16,1138q0-14,0-28h1q0,10.49,0,21c0,2.34,0,4.67,0,7Z"/><path class="cls-2" d="M935.17,120l-2-2v-5.73l3-.28Z"/><path class="cls-7" d="M933.17,1138c0-2.34,0-4.67,0-7q.5,5.51,1,11l-2,1c0-.66,0-1.33,0-2,.13-.1.39-.23.37-.27a4.79,4.79,0,0,0-.37-.71c0-.33,0-.66,0-1Z"/><path class="cls-2" d="M936.16,110v0Z"/><path class="cls-1" d="M934.16,952l1,0-.52,1.29Z"/><path class="cls-7" d="M933.17,1110h-1l1-1C933.17,1109.31,933.17,1109.66,933.17,1110Z"/><path class="cls-3" d="M420.17,1509l7,1Z"/><path class="cls-5" d="M898.16,31l-4-3h2l2,2C898.17,30.33,898.16,30.67,898.16,31Z"/><path class="cls-7" d="M931.15,82c-4.76-1.48-4.75-5.08-4-9Z"/><path class="cls-7" d="M925.16,68q-2.49-4.5-5-9l2,1h0l2,4,1,2h0v1C925.17,67.33,925.16,67.67,925.16,68Z"/><path class="cls-2" d="M931.16,86V82c.34,1.33.67,2.66,1,4h-1Z"/><path class="cls-2" d="M82.17,8l-6,2Z"/><path class="cls-2" d="M94.17,5l-3,1Z"/><path class="cls-2" d="M90.17,6l-3,1Z"/><path class="cls-2" d="M85.17,7l-2,1Z"/><path class="cls-5" d="M932.18,94c-.34-1.34-.67-2.68-1-4C931.51,91.32,931.84,92.66,932.18,94Z"/><path class="cls-5" d="M933.17,100c-.33-1-.66-2-1-3C932.51,98,932.84,99,933.17,100Z"/><path class="cls-5" d="M931.16,86h1c-.34.66-.67,1.33-1,2C931.17,87.33,931.16,86.66,931.16,86Z"/><path class="cls-4" d="M918.16,54l-4-6h1Q916.67,51,918.16,54Z"/><path class="cls-4" d="M922.17,60l-2-1h0c0-.67,0-1.34,0-2Z"/><path class="cls-7" d="M920.17,57c0,.67,0,1.34,0,2l-1-2Z"/><path class="cls-5" d="M911.16,45l-3-4h1l2,2Z"/><path class="cls-4" d="M925.17,66l-1-2h1Z"/><path class="cls-1" d="M107.17,8l5-2Z"/><path class="cls-5" d="M932.17,1140a4.79,4.79,0,0,1,.37.71s-.24.17-.37.27C932.16,1140.66,932.16,1140.33,932.17,1140Z"/><path class="cls-8" d="M933.17,1138l-1,1c0-.35,0-.7,0-1Z"/><path class="cls-4" d="M933.92,1354.9v3l-.42,0v-3Z"/></g></g></svg>