<?xml version="1.0" encoding="UTF-8"?>
<svg width="302px" height="287px" viewBox="0 0 302 287" version="1.1" xmlns="http://www.w3.org/2000/svg" xmlns:xlink="http://www.w3.org/1999/xlink">
    <!-- Generator: Sketch 64 (93537) - https://sketch.com -->
    <title>DoorIconOpenPartially</title>
    <desc>Created with Sketch.</desc>
    <g id="DoorIconOpenPartially" stroke="none" stroke-width="1" fill="none" fill-rule="evenodd">
        <g transform="translate(62.000000, 0.000000)" fill-rule="nonzero">
            <path d="M35.08,232.82 C27.08,232.82 19.95,232.88 12.79,232.82 C3.69,232.69 0,228.93 0,220 L0,13.08 C0,4 3.88,0 12.91,0 C63.5766667,0 114.243333,0 164.91,0 C173.16,0 178.45,3.32 178.31,13.5 C177.97,39.16 178.2,64.83 178.2,90.5 C178.2,134.606667 178.216667,178.716667 178.25,222.83 C178.25,228.37 175.99,231.83 170.95,233.92 C145.063333,244.84 119.193333,255.816667 93.34,266.85 C79.47,272.75 65.5,278.45 51.78,284.69 C40.91,289.63 34.58,283.48 34.95,273.69 C35.46,260.26 35.08,246.79 35.08,232.82 Z M158.43,217.64 L158.43,25.69 L55.24,73.34 L55.24,261.73 L158.43,217.64 Z M118.62,22.32 C115,19.56 32.57,18.46 20.11,20.4 L20.11,214 C22.9918647,213.843826 25.8805791,213.863864 28.76,214.06 C33.85,214.69 35.21,212.72 35.19,207.66 C35,161.29 35.13,115 35,68.63 C35,63.53 37,60 41.36,57.94 C55,51.54 68.77,45.31 82.47,39 L118.62,22.32 Z" id="Shape" fill="#414042"></path>
            <path d="M158.43,217.64 L55.24,261.73 L55.24,73.34 L158.43,25.69 L158.43,217.64 Z M86,153.48 C91.63,151.09 97,149 102.2,146.54 C108.14,143.73 110.09,138.25 107.46,132.68 C105.19,127.87 99.58,126.04 94.02,128.39 C87.34,131.2 80.72,134 74.15,137 C69.37,139.12 66.44,142.42 66.85,148.14 C67.16,152.62 66.9,157.14 66.92,161.64 C66.92,168.17 70.59,172.87 75.72,173.01 C81.72,173.16 85.92,168.49 85.95,161.73 C86,159 86,156.36 86,153.48 Z" id="Shape" fill="#FCFCFC"></path>
            <path d="M118.62,22.32 L82.47,39 C68.77,45.31 55,51.54 41.37,57.94 C37,60 35,63.53 35,68.63 C35.12,114.96 35,161.29 35.18,207.63 C35.18,212.69 33.84,214.63 28.75,214.03 C25.8705791,213.833864 22.9818647,213.813826 20.1,213.97 L20.1,20.4 C32.57,18.46 115,19.56 118.62,22.32 Z" id="Path" fill="#FDFDFD"></path>
            <path d="M86,153.48 C86,156.36 86,159.02 86,161.68 C86,168.44 81.73,173.11 75.77,172.96 C70.64,172.82 66.99,168.12 66.97,161.59 C66.97,157.09 67.21,152.59 66.9,148.09 C66.49,142.37 69.42,139.09 74.2,136.95 C80.72,134 87.34,131.2 94,128.39 C99.56,126.04 105.17,127.87 107.44,132.68 C110.07,138.25 108.12,143.68 102.18,146.54 C97,149 91.58,151.09 86,153.48 Z" id="Path" fill="#424143"></path>
        </g>
    </g>
</svg>