<svg xmlns="http://www.w3.org/2000/svg" viewBox="0 0 1617.1 674.02"><defs><style>.cls-1{fill:#f7f7f7;}.cls-2{fill:#f0f0f0;}.cls-3{fill:#eaeaea;}.cls-4{fill:#f3f3f3;}.cls-5{fill:#f2f2f2;}.cls-6{fill:#efefef;}.cls-7{fill:#f4f4f4;}</style></defs><title>DoorPageBackground</title><g id="Layer_2" data-name="Layer 2"><g id="Layer_1-2" data-name="Layer 1"><path class="cls-1" d="M808.52,0Q1158,0,1507.46.18c27,0,50.73,10.06,71.24,27.89s32.13,40.59,37.12,67a74.66,74.66,0,0,1,1.18,13.85q.09,228-.13,456c-.06,26.76-10.09,50.39-27.81,70.76-17.88,20.56-40.56,32.18-67,37.17a74.56,74.56,0,0,1-13.84,1.19q-699.69.07-1399.38-.13c-26.58,0-50.06-10.14-70.3-27.7C18,628.3,6.31,605.65,1.35,579.24A75.48,75.48,0,0,1,.1,565.4Q0,336.92.25,108.44C.33,82.07,10.44,58.73,27.87,38.62,45.71,18,68.33,6.3,94.75,1.35A78.27,78.27,0,0,1,109.09.08Q458.8,0,808.52,0ZM24.05,622l2,3h0l3,4h0l3,3,3,3,4,4,3,3,3,3h0l4,3h0l3,2,7,4,12,6,5,2c1.21.92,2.29,2.3,3.65,2.67A105.24,105.24,0,0,0,94.6,668c4.42.54,9,.07,13.45,0h5a28.54,28.54,0,0,0,5.18,1q689.33.06,1378.65,0a28.44,28.44,0,0,0,5.17-1h6c.39.29.74.77,1.17.86,8.85,1.75,17-2,25.35-3.57.29-.06.33-1.5.49-2.29l11-2,3-2,9-5,4-2c4.2-.78,7.8-2.35,9-7l2-2c.39.23,1.07.74,1.13.67,4.32-4.53,8.59-9.11,12.87-13.68h0q2-2.5,4-5c1.36-2.39,2.46-5,4.13-7.11a41.5,41.5,0,0,0,7.88-15.88l2-2q2-6,4-12l1.56-.77-1.56-1.23h0v-2c.33-1,.67-2,1-3v-2c.33-1.33.66-2.67,1-4,0-1,0-2,0-3,.33-.67.67-1.33,1-2,.33-1.33.66-2.67,1-4-.34-19.28-.89-38.56-1-57.84q-.22-64.71,0-129.43.39-135.36,1-270.73c-.34-1.33-.67-2.66-1-4l-3-16,1.56-.77L1609.05,86l-1-1-1-3-2-4c0-1.33,0-2.66,0-4l-1-4-2-2-5-8c-.67-1.66-1.34-3.33-2-5-1.12-4.57-3-8.52-8-10l-4-5,1.46-1.78L1577.05,33l-4-3-2-2-3-2,.48-1.48-1.48.48-4-2-5-3h0c-2-5-6.17-6.14-11-6l-6-2-10-4-.77-1.56L1529.05,8l-16-3-4-1c-4.46.33-8.91,1-13.37,1Q808.48,5,121.28,5c-2.79,0-5.6-.84-8.37-.71-2,.08-3.91,1.13-5.86,1.74l-23,3a12,12,0,0,0-2.47,0C69.33,11.83,58.65,17.84,48.64,25.2c-.42.31-.4,1.21-.59,1.83l-3,3a14.76,14.76,0,0,0-11,9h0l-2,3h0l-2,2-1,1-3,4h0l-7,10c0,.33,0,.66,0,1l-2,3c-6.62,14.28-11.63,29-11,45a27.84,27.84,0,0,0-1,5.19Q5,335.53,5.09,557.84A28.54,28.54,0,0,0,6,563c0,3.34,0,6.67,0,10l1,2v4l1,2v3l1,4c1.07,3.47,1.82,7.09,3.28,10.4,3,7,6.46,13.74,9.73,20.59Z"/><path class="cls-2" d="M1531.05,8l10,4c-.88.22-1.84.78-2.63.61-7.54-1.67-15-3.58-22.61-5.09-1.43-.28-3.16.94-4.76,1.47h-7c-2.29-.67-4.58-1.91-6.87-1.92Q808.54,7,119.92,7a20.88,20.88,0,0,0-4.48.1c-.89.21-1.6,1.24-2.39,1.9h-6V6c2-.61,3.88-1.66,5.86-1.74,2.77-.13,5.58.71,8.37.71q687.21,0,1374.4,0c4.46,0,8.91-.62,13.37-1l4,1,16,3Z"/><path class="cls-3" d="M113.05,668h-5v-3h1400v3h-6a28.34,28.34,0,0,0-5.17-1q-689.33-.06-1378.66,0A28.34,28.34,0,0,0,113.05,668Z"/><path class="cls-2" d="M113.05,668a28.34,28.34,0,0,1,5.17-1q689.33-.06,1378.66,0a28.34,28.34,0,0,1,5.17,1,28.44,28.44,0,0,1-5.17,1q-689.33.06-1378.65,0A28.54,28.54,0,0,1,113.05,668Z"/><path class="cls-3" d="M107.05,6V9a45.35,45.35,0,0,1-5.36,1,86.1,86.1,0,0,0-32.4,8.51A103,103,0,0,0,30.23,50.28c-13.68,18.46-21.08,39.1-21.1,62Q8.91,336.65,9.05,561c-.67-2-1.92-3.91-1.92-5.87Q7,334.68,7,114.2a40,40,0,0,0-1-6.18c-.62-16,4.39-30.71,11-45,.66-1,1.33-2,2-3,0-.33,0-.66,0-1l7-10h0l3-4,1-1,2-2h0l2-3h0l11-9,3-3a9.64,9.64,0,0,0,1.89-.57c8.37-4.33,16.7-8.71,25.08-13,3-1.54,6-2.94,9-4.4Z"/><path class="cls-2" d="M1613.05,108q-.51,135.38-1,270.73-.18,64.71,0,129.43c.06,19.28.61,38.56,1,57.84-.34,1.33-.67,2.67-1,4-.33.67-.67,1.33-1,2l-3-4v-7c.67-2,1.92-3.91,1.92-5.87q.13-218.13.08-436.26a16.36,16.36,0,0,0-.14-4c-.19-.74-1.21-1.27-1.86-1.89v-6c.65-1.44,1.88-2.91,1.82-4.32-.13-2.76-1.18-5.46-1.47-8.22-.34-3.13-.26-6.3-.36-9.45l1,1v2l3,16C1612.38,105.36,1612.71,106.69,1613.05,108Z"/><path class="cls-2" d="M6.05,108a40,40,0,0,1,1,6.18q.06,220.49.12,441c0,2,1.25,3.91,1.92,5.87v2H6a28.54,28.54,0,0,1-1-5.18Q5,335.53,5.09,113.21A27.84,27.84,0,0,1,6.05,108Z"/><path class="cls-3" d="M6,563h3c.33,3.11.8,6.22,1,9.34a86.75,86.75,0,0,0,8.48,32.34,102.14,102.14,0,0,0,30.43,38.18c11.2,8.59,23.22,15.54,37.27,18.32,6.61,1.31,13.23,2.54,19.85,3.81-2.31,3.91-5.85,2-8.75,1.49-7.13-1.24-14.17-3-21.25-4.49l-5-2-12-6-7-4-3-2h0l-4-3h0l-3-3-3-3-4-4-3-3-3-3h0l-3-4h0l-2-3-2-3c-3.27-6.85-6.68-13.64-9.73-20.59C10.86,595.12,10.11,591.5,9,588l-1-4c0-1,0-2,0-3l-1-2c0-1.33,0-2.66,0-4l-1-2C6.05,569.69,6,566.36,6,563Z"/><path class="cls-3" d="M1608.05,568l3,4c0,1,0,2,0,3-.34,1.34-.67,2.68-1,4v2c-.33,1-.67,2-1,3v2q-2.51,7-5,14l-1,2a41.5,41.5,0,0,1-7.88,15.88c-1.67,2.14-2.77,4.72-4.13,7.11q-2,2.49-4,5h0l-14,13-2,2-9,7-4,2-10,5-2,2-11,2c-5.75,1.29-11.45,2.86-17.26,3.71-2.12.31-4.49-1.09-6.75-1.72a11.27,11.27,0,0,1,2.81-.92c14.53-.66,28-5.13,40.45-12.27,25.13-14.37,42.21-35.3,49.77-63.48C1605.86,581.7,1606.75,574.8,1608.05,568Z"/><path class="cls-3" d="M1608,85c.1,3.15,0,6.32.36,9.45.29,2.76,1.34,5.46,1.47,8.22.06,1.41-1.17,2.88-1.82,4.32a20.33,20.33,0,0,1-.92-3.85c-.7-14.51-5.14-28-12.28-40.44-14.38-25.11-35.3-42.19-63.48-49.73-6.65-1.78-13.54-2.68-20.32-4,1.6-.53,3.33-1.75,4.76-1.47,7.58,1.51,15.07,3.42,22.61,5.09.79.17,1.75-.39,2.63-.61l6,2c2.15,4.79,6.53,5.47,11,6h0l5,3,4,2,1,1,3,2,2,2,4,3,6,7,4,5,8,10c.66,1.66,1.33,3.33,2,5l5,9,1,1c.67,1.34,1.33,2.67,2,4v4l2,4Z"/><path class="cls-4" d="M84.06,9c-3,1.46-6.07,2.86-9,4.4-8.38,4.32-16.71,8.7-25.08,13a9.64,9.64,0,0,1-1.89.57c.19-.62.17-1.52.59-1.83,10-7.36,20.69-13.37,33-16.15A12,12,0,0,1,84.06,9Z"/><path class="cls-2" d="M76.05,662c7.08,1.53,14.12,3.25,21.25,4.49,2.9.5,6.44,2.42,8.75-1.49h2v3c-4.49,0-9,.5-13.45,0a105.24,105.24,0,0,1-14.9-3.3C78.34,664.32,77.26,662.94,76.05,662Z"/><path class="cls-2" d="M1511.05,665c2.26.63,4.63,2,6.75,1.72,5.81-.85,11.51-2.42,17.26-3.71-.16.79-.2,2.23-.49,2.29-8.4,1.58-16.5,5.32-25.35,3.57-.43-.09-.78-.57-1.17-.86v-3Z"/><path class="cls-5" d="M1573.05,643l14-13c-4.28,4.57-8.55,9.15-12.87,13.68C1574.12,643.77,1573.44,643.26,1573.05,643Z"/><path class="cls-6" d="M1558.05,20c-4.48-.52-8.86-1.2-11-6C1551.88,13.89,1556,15,1558.05,20Z"/><path class="cls-4" d="M1595.05,55l-8-10C1592,46.51,1593.93,50.46,1595.05,55Z"/><path class="cls-4" d="M45.05,30l-11,9A14.76,14.76,0,0,1,45.05,30Z"/><path class="cls-4" d="M59.05,654l12,6Z"/><path class="cls-7" d="M1562.05,652l9-7C1569.85,649.67,1566.25,651.24,1562.05,652Z"/><path class="cls-2" d="M1604.05,600q2.49-7,5-14h0v2q-2,6-4,12Z"/><path class="cls-4" d="M26.05,49l-7,10Z"/><path class="cls-1" d="M1583.06,40l-6-7,7.47,5.21Z"/><path class="cls-6" d="M1548.05,659l10-5-9,5Z"/><path class="cls-6" d="M1602.05,69l-5-9,5,8Z"/><path class="cls-5" d="M1587.05,630q2-2.5,4-5Q1589,627.51,1587.05,630Z"/><path class="cls-6" d="M1563.05,23l-5-3Z"/><path class="cls-1" d="M1513.05,5l-4-1Z"/><path class="cls-2" d="M1610,579c.33-1.33.66-2.67,1-4C1610.7,576.35,1610.37,577.69,1610,579Z"/><path class="cls-4" d="M26.06,625l3,4Z"/><path class="cls-4" d="M29.06,45l-3,4Z"/><path class="cls-6" d="M1605,74c-.67-1.33-1.33-2.66-2-4h1Z"/><path class="cls-4" d="M45.06,645l4,3Z"/><path class="cls-1" d="M1612.05,570c.33-1.33.66-2.67,1-4C1612.71,567.35,1612.38,568.69,1612.05,570Z"/><path class="cls-1" d="M1613.05,108c-.34-1.33-.67-2.66-1-4C1612.38,105.36,1612.71,106.69,1613.05,108Z"/><path class="cls-7" d="M8.05,584l1,4Z"/><path class="cls-4" d="M29.06,629l3,3Z"/><path class="cls-4" d="M42.05,642l3,3Z"/><path class="cls-2" d="M1607.05,82l-2-4Z"/><path class="cls-4" d="M32.05,632l3,3Z"/><path class="cls-4" d="M39.05,639l3,3Z"/><path class="cls-2" d="M1609,584c.33-1,.67-2,1-3C1609.71,582,1609.37,583,1609,584Z"/><path class="cls-4" d="M34.06,39l-2,3Z"/><path class="cls-4" d="M49.06,648l3,2Z"/><path class="cls-4" d="M22.05,619l2,3Z"/><path class="cls-4" d="M24.05,622l2,3Z"/><path class="cls-4" d="M19.05,60c-.66,1-1.33,2-2,3C17.72,62,18.39,61,19.05,60Z"/><path class="cls-1" d="M1573.05,30l-2-2Z"/><path class="cls-7" d="M1548.05,659h1l-3,2Z"/><path class="cls-1" d="M1531.05,8h-2l1.23-1.56Z"/><path class="cls-1" d="M1568.05,26l-1-1,1.48-.48Z"/><path class="cls-4" d="M32.05,42l-2,2Z"/><path class="cls-4" d="M1604.05,600h1l-2,2Z"/><path class="cls-1" d="M1609.05,588v-2l1.56,1.23Z"/><path class="cls-1" d="M1609.05,88V86l1.56,1.23Z"/><path class="cls-7" d="M7.05,579l1,2Z"/><path class="cls-7" d="M6.05,573l1,2Z"/><path class="cls-4" d="M1604.05,70h-1l-1-1V68Z"/><path class="cls-1" d="M1511.05,665h-1405c-6.62-1.27-13.24-2.5-19.85-3.81-14-2.78-26.07-9.73-37.27-18.32A102.14,102.14,0,0,1,18.5,604.71,86.75,86.75,0,0,1,10,572.37c-.17-3.12-.64-6.23-1-9.34v-2q0-224.38.08-448.76c0-22.88,7.42-43.52,21.1-62A103,103,0,0,1,69.29,18.5,86.1,86.1,0,0,1,101.69,10a45.35,45.35,0,0,0,5.36-1h1404c6.78,1.3,13.67,2.2,20.32,4,28.18,7.54,49.1,24.62,63.48,49.73,7.14,12.47,11.58,25.93,12.28,40.44a20.33,20.33,0,0,0,.92,3.85V568c-1.3,6.78-2.19,13.68-4,20.33-7.56,28.18-24.64,49.11-49.77,63.48-12.47,7.14-25.92,11.61-40.45,12.27A11.27,11.27,0,0,0,1511.05,665Z"/><path class="cls-3" d="M1504.05,9h-1391c.79-.66,1.5-1.69,2.39-1.9a20.88,20.88,0,0,1,4.48-.1q688.64,0,1377.26.08C1499.47,7.11,1501.76,8.35,1504.05,9Z"/><path class="cls-3" d="M1608.05,561V113c.65.62,1.67,1.15,1.86,1.89a16.36,16.36,0,0,1,.14,4q0,218.13-.08,436.26C1610,557.11,1608.72,559.06,1608.05,561Z"/></g></g></svg>