<svg xmlns="http://www.w3.org/2000/svg" viewBox="0 0 444.02 1093.07"><defs><style>.cls-1{fill:#f9f9f9;}.cls-2{fill:#f7f7f7;}.cls-3{fill:#eaeaea;}.cls-4{fill:#e9e9e9;}.cls-5{fill:#f1f1f1;}.cls-6{fill:#f6f6f6;}.cls-7{fill:#f2f2f2;}.cls-8{fill:#f3f3f3;}.cls-9{fill:#f4f4f4;}.cls-10{fill:#eee;}.cls-11{fill:#efefef;}</style></defs><title>MediaSidePadBackground</title><g id="Layer_2" data-name="Layer 2"><g id="Layer_1-2" data-name="Layer 1"><path class="cls-1" d="M444,546.9q0,219.72-.09,439.44c0,24.79-9.16,46.66-24.63,65.87-17.28,21.46-39.87,34.13-66.72,39.42a70.06,70.06,0,0,1-13.32,1.35q-116,.12-232,0c-23,0-43.6-7.79-62.06-21.28-23.91-17.48-38.07-41.17-43.78-70A71.16,71.16,0,0,1,.06,987.86Q0,547.42.06,107c0-22.8,7.81-43.27,21.16-61.6,17.54-24.1,41.44-38.25,70.45-44A68.57,68.57,0,0,1,105,.09Q221,0,337,.1c22.81,0,43.29,7.77,61.62,21.1,24.1,17.53,38.3,41.4,44.06,70.43A70.12,70.12,0,0,1,444,105Q444,325.93,444,546.9ZM121,1090l1-1a82.85,82.85,0,0,0,8.84.94c17,.1,34,.19,51,0,13.91-.13,27.81-.71,41.71-.93,9.47-.15,18.93,0,28.4,0,4.26,4.26,9.37,1.27,14.1,1.57.26,0,.6-1,.9-1.57,8.26.33,16.51.76,24.76.94,4.63.11,9.26-.26,13.89-.31,5.58-.06,11.17.07,16.75,0,2.54,0,5.07-.4,7.61-.62h6c2.44.64,5.5,3.19,6-2h2c1.68,3.16,3.35,3.18,5,0h3c3.94,1,7.42.51,10-3h1l15-6,5-2,4-2h0l9-7,3-2c2.46-1.3,5.44-2.11,7.26-4,4.05-4.24,9.79-7.32,10.74-14l2-3c.95-.56,2.22-.91,2.8-1.73,8.5-12.35,13.8-26.06,17.05-40.61.18-.78-.54-1.77-.85-2.66v-2l1.56-1.24L438,995v-2l1-2,1-13v-5l1-4-1-12q0-16,0-32c.32-.56.91-1.11.91-1.67q.08-17.83,0-35.67c0-.56-.59-1.11-.91-1.67V794a15.27,15.27,0,0,0,1-3.65q.1-20.85,0-41.69a15.47,15.47,0,0,0-1-3.66V632a38,38,0,0,0,1-5.74c.11-7.42,0-14.84,0-22.26,0-7.78.07-15.57-.05-23.36a49.19,49.19,0,0,0-1-6.64V427q0-39.5,0-79c.33-11.45.83-22.89,1-34.35.16-15.48.06-31,0-46.46a12.12,12.12,0,0,0-1-3.19V119.25q0-8.1,0-16.21l-2-3V98l1.55-.78L438,96V94c.31-.89,1-1.87.85-2.65-3.26-14.36-8.32-28-16.85-40.13-.79-1.12-2.63-1.5-4-2.22-.33-.67-.67-1.33-1-2-.37-1.85-.14-4.23-1.22-5.47a142.15,142.15,0,0,0-11.87-11.93c-1.17-1.06-3.25-1.09-4.92-1.6l-9-6c-1-1.17-1.82-2.63-3.06-3.47-10.18-6.87-21.76-10.32-33.52-13.11-3.63-.86-7.6-.32-11.42-.42h-8l2.51-2H331l-2,1q-103.58,0-207.16,0c-5,0-9.9.61-14.84.94l-3-1L97,5C84.35,5,73,9.76,62,15.17c-4,2-7.36,5.21-11,7.87l-2,1c-9.06,3.57-14.66,11.15-20.82,18.07-.35.39-.13,1.27-.18,1.92h0l-3,3-1,2-2,2v4l-3,3-1,1-1,1c-4.15,2.88-5.24,6.13-3,9,0,.33,0,.65,0,1H13l-1,1-2,2c-.34,3-.67,6-1,9,0,.34,0,.67,0,1-.88.45-2.42.77-2.53,1.37A50.38,50.38,0,0,0,6,91v1L4,94a38.84,38.84,0,0,0-.69,6.75c.11,1.78,1.09,3.5,1.69,5.25L4,118c-.67,2-1.92,3.92-1.92,5.87q-.15,217.5-.1,435c0,7.86-.54,15.76,3,23.15q.5,4,1,8c0,12.66,0,25.32,0,38,0,5.74.06,11.49-.26,17.22-.36,6.42-1.63,12.83-1.64,19.24Q3.92,821.82,4,979.18A65.44,65.44,0,0,0,5,987l-2,2c-.07,2.14-.2,4.3,3,4,0,1,0,2,0,3L4.18,997.3,6,999v2c-.28,5.44-.36,10.82,4,15v3c.66,1,1.32,2,2,3v2l12,21,3,3v1l5,5c3.27,5.16,6.62,10.22,13,12l3,3,8,4c2,1.82,3.66,4.48,6,5.31,9.9,3.53,20,6.51,30,9.68h10l2.25,1.91c.59-1,1.18-1.93,1.78-2.89h2c2.29,3.91,6.06,1.11,9,2l3,1Z"/><path class="cls-2" d="M336,1089h-6c-1.13-1-2.22-2.82-3.39-2.88-12.27-.53-24.55-1.06-36.83-1.08q-89.4-.13-178.79,0H101l-22-5-4-1-20-10h0l-3-2h0l-7-6-3-2-8-8-10-13q-1.52-2.49-3-5h0l-7-15c-.33-1.33-.67-2.67-1-4a141.13,141.13,0,0,1-5.08-38.79Q8.09,540.14,8,105l1-5q2-10.5,4-21c.34-1.33.68-2.67,1-4L24,55l9-12c4.7-4.2,9.2-8.64,14.13-12.55,19-15.12,40.81-22.43,65-22.44q111-.06,221.94.1a93.48,93.48,0,0,1,21.12,2.6c21.52,5.1,39.82,15.67,54.6,32.46,17.09,19.42,26.05,42,26.07,67.59q.27,435.13,0,870.27a92.5,92.5,0,0,1-2.29,22.18c-9.28,37-31.31,63.1-67.76,75.79-9.3,3.24-19.22,4.7-28.86,7l-3.62.49.06,1,2.56.51C336,1088.37,336,1088.7,336,1089Z"/><path class="cls-3" d="M337,1086c9.64-2.28,19.56-3.74,28.86-7,36.45-12.69,58.48-38.77,67.76-75.79a92.5,92.5,0,0,0,2.29-22.18q.16-435.14,0-870.27c0-25.58-9-48.17-26.07-67.59C395,26.42,376.74,15.85,355.22,10.75a93.48,93.48,0,0,0-21.12-2.6q-111-.29-221.94-.1c-24.22,0-46,7.32-65,22.44C42.2,34.4,37.7,38.84,33,43V41c1.39-1.69,2.68-3.49,4.2-5.06,3.88-4,7.87-8,11.81-11.93l2-1c2.8-1.31,5.71-2.43,8.38-4C71.08,12.37,83.43,7.82,97,7l5-1,5-1c4.94-.33,9.89-.94,14.84-.94Q225.41,4,329,4l2-1c.32,0,.65,0,1,0l2,2h8a14.17,14.17,0,0,0,3.36,2c9.2,2.43,18.56,4.31,27.61,7.2,5.91,1.89,11.37,5.19,17,7.85l9,6q9,9.51,18,19c.33.67.67,1.33,1,2,3.58,6.16,7.78,12.06,10.59,18.56,3.71,8.57,6.32,17.61,9.4,26.44v2c0,.67,0,1.34,0,2v2l2,3q0,8.11,0,16.21V264c-.67,2.29-1.89,4.57-1.91,6.85-.15,18.72-.08,37.43-.08,56.15,0,5.16-.09,10.32,0,15.47A36.9,36.9,0,0,0,439,348h1q0,39.51,0,79V574c-.66,1.72-1.86,3.43-1.9,5.16-.2,8.28-.08,16.57-.08,24.85.33,7.77.62,15.55,1,23.32a30.49,30.49,0,0,0,1,4.67v58c-.62,6.56-1.28,13.12-1.78,19.69,0,.39,1.16.87,1.78,1.32v34a15,15,0,0,0-1,3.66q-.1,20.85,0,41.69a14.82,14.82,0,0,0,1,3.65v89c0,1,0,2,0,3-.66,1.12-1.88,2.23-1.9,3.36q-.22,16.14,0,32.29c0,1.13,1.24,2.24,1.9,3.36q0,16,0,32-.51,5.51-1,11c-.55,1.85-2.59,4,1,5v2l-1.81,1.74L440,978l-1,13-1,2v2c0,.67,0,1.34,0,2v2c-4.16,13.26-8.07,26.62-15.71,38.47A68.73,68.73,0,0,0,419,1044l-2,3-18,18-3,2-9,7h0l-4,2-5,2-15,6h-1l-10,1-2,2h-8l-5,0Z"/><path class="cls-4" d="M8,105q0,435.1-.09,870.2A141.13,141.13,0,0,0,13,1014l-4-3v-2l-1-2v-6c-.67-1-1.33-2-2-3l0-2c0-1,0-2,0-3,0-1.33,0-2.67,0-4l-1-2a65.44,65.44,0,0,1-1-7.85Q4,821.83,4.08,664.47c0-6.41,1.28-12.82,1.64-19.24C6,639.5,6,633.75,6,628c0-12.65,0-25.31,0-38q0-4.5,0-9V124.72a12.15,12.15,0,0,0-.08-3.47A15.43,15.43,0,0,0,4,118l1-12c0-.34,0-.67,0-1Z"/><path class="cls-5" d="M4,118a15.43,15.43,0,0,1,1.91,3.22A12.15,12.15,0,0,1,6,124.72V581c-.34.34-.67.68-1,1-3.54-7.39-3-15.29-3-23.15q0-217.5.1-435C2.09,122,3.34,120,4,118Z"/><path class="cls-5" d="M111,1085q89.4,0,178.79,0c12.28,0,24.56.55,36.83,1.08,1.17.06,2.26,1.88,3.39,2.88-2.54.22-5.07.58-7.61.62-5.58.09-11.17,0-16.75,0-4.63,0-9.26.42-13.89.31-8.25-.18-16.5-.61-24.76-.94H252c-9.47,0-18.93-.12-28.4,0-13.9.22-27.8.8-41.71.93-17,.17-34,.08-51,0A82.85,82.85,0,0,1,122,1089h-5c-3-.87-6.73,1.93-9-2Z"/><path class="cls-6" d="M440,348h-1c0-2,.09-4,0-6-.27-5-.64-10-1-15.06,0-18.72-.07-37.43.08-56.15,0-2.28,1.24-4.56,1.91-6.85a12.12,12.12,0,0,1,1,3.19c.06,15.49.16,31,0,46.46C440.83,325.14,440.33,336.58,440,348Z"/><path class="cls-7" d="M390,22c-5.66-2.66-11.12-6-17-7.85-9.05-2.89-18.41-4.77-27.61-7.2A14.17,14.17,0,0,1,342,5c3.82.1,7.79-.44,11.42.42,11.76,2.79,23.34,6.24,33.52,13.11C388.18,19.4,389,20.86,390,22Z"/><path class="cls-5" d="M440,925c-.66-1.12-1.88-2.23-1.9-3.36q-.22-16.14,0-32.29c0-1.13,1.24-2.24,1.9-3.36.32.56.91,1.11.91,1.67q.08,17.84,0,35.67C440.9,923.93,440.31,924.48,440,925Z"/><path class="cls-8" d="M97,7c-13.57.79-25.92,5.34-37.62,12-2.67,1.53-5.58,2.65-8.38,4,3.65-2.66,7-5.91,11-7.87C73,9.76,84.35,5,97,5Z"/><path class="cls-7" d="M438,94c-3.08-8.83-5.69-17.87-9.4-26.44-2.81-6.5-7-12.4-10.59-18.56,1.36.72,3.2,1.1,4,2.22,8.53,12.13,13.59,25.77,16.85,40.13C439,92.16,438.31,93.14,438,94Z"/><path class="cls-7" d="M419,1044a68.73,68.73,0,0,1,3.29-6.53c7.64-11.85,11.55-25.21,15.71-38.47.31.89,1,1.88.85,2.66-3.25,14.55-8.55,28.26-17.05,40.61C421.22,1043.12,420,1043.47,419,1044Z"/><path class="cls-9" d="M440,794a14.82,14.82,0,0,1-1-3.65q-.1-20.85,0-41.69a15,15,0,0,1,1-3.66,15.47,15.47,0,0,1,1,3.66q.1,20.85,0,41.69A15.27,15.27,0,0,1,440,794Z"/><path class="cls-8" d="M92,1088c-10-3.17-20.11-6.15-30-9.68-2.34-.83-4-3.49-6-5.31l1-1h1l1,1,10,5,2,2h3l8,4h2l2,1h6Z"/><path class="cls-5" d="M438,604c0-8.28-.12-16.57.08-24.85,0-1.73,1.24-3.44,1.9-5.16a49.19,49.19,0,0,1,1,6.64c.12,7.79.05,15.58.05,23.36Z"/><path class="cls-9" d="M49,24c-3.94,4-7.93,7.9-11.81,11.93C35.67,37.54,34.38,39.34,33,41l-5,3c.05-.65-.17-1.53.18-1.92C34.34,35.19,39.94,27.61,49,24Z"/><path class="cls-8" d="M24,1045l-12-21h3c.67,3.89,1.44,7.71,6,9h0l2,5,2,7Z"/><path class="cls-9" d="M417,47q-9-9.49-18-19c1.67.51,3.75.54,4.92,1.6a142.15,142.15,0,0,1,11.87,11.93C416.87,42.8,416.64,45.18,417,47Z"/><path class="cls-4" d="M24,55,14,75c-.33-1-.67-2-1-3l1-1,1-2c.67-3,1.34-6,2-9l1-1,1-1,3-3Z"/><path class="cls-6" d="M438,604h3c0,7.42.07,14.84,0,22.26a38,38,0,0,1-1,5.74,30.49,30.49,0,0,1-1-4.67C438.63,619.59,438.34,611.81,438,604Z"/><path class="cls-8" d="M399,1065l18-18c-.95,6.66-6.69,9.74-10.74,14C404.44,1062.92,401.46,1063.73,399,1065Z"/><path class="cls-10" d="M25,1045l-2-7h1l10,13v3H32l-5-5v-1Z"/><path class="cls-10" d="M24,55H22c0-1.33,0-2.65,0-4l2-2,1-2,3-3h0l5-3c0,.67,0,1.34,0,2Z"/><path class="cls-4" d="M13,79q-2,10.5-4,21H6c0-1.66,0-3.33,0-5l1-2L6,92V91c3.75-1.65,2.46-5.17,3-8,0-.33,0-.66,0-1Z"/><path class="cls-9" d="M440,711c-.62-.45-1.81-.93-1.78-1.32.5-6.57,1.16-13.13,1.78-19.69Z"/><path class="cls-9" d="M32,1054h2l6,6,5,6h0C38.62,1064.25,35.27,1059.19,32,1054Z"/><path class="cls-8" d="M8,1001v6l1,2v2q.51,2.51,1,5c-4.37-4.19-4.29-9.57-4-15Z"/><path class="cls-11" d="M363,1084l15-6Z"/><path class="cls-10" d="M92,1088v-3h12v2l-2,1Z"/><path class="cls-9" d="M252,1089h15c-.3.55-.64,1.59-.9,1.57C261.37,1090.31,256.26,1093.3,252,1089Z"/><path class="cls-11" d="M57,1072l-1,1-8-4v-3h0l4,1h0l3,2h0Z"/><path class="cls-10" d="M13,79,9,82c.34-3,.67-6,1-9l2-1h1c.33,1,.67,2,1,3C13.67,76.37,13.33,77.71,13,79Z"/><path class="cls-5" d="M6,95c0,1.66,0,3.33,0,5l-1,5c0,.33,0,.66,0,1-.6-1.75-1.58-3.47-1.69-5.25A38.84,38.84,0,0,1,4,94H6Z"/><path class="cls-8" d="M352,1085l10-1c-2.58,3.51-6.06,4-10,3Z"/><path class="cls-10" d="M10,1016q-.5-2.5-1-5l4,3c.34,1.33.68,2.67,1,4l-1,1H10Z"/><path class="cls-9" d="M439,968q.5-5.49,1-11,.5,6,1,12Z"/><path class="cls-9" d="M17,60c-.68,3-1.35,6-2,9H14C11.77,66.17,12.86,62.92,17,60Z"/><path class="cls-8" d="M387,1074l9-7Z"/><path class="cls-9" d="M9,83c-.53,2.84.76,6.36-3,8a50.38,50.38,0,0,1,.46-6.64C6.57,83.8,8.11,83.48,9,83Z"/><path class="cls-9" d="M440,675v0Z"/><path class="cls-8" d="M337,1087l5,0c-.52,5.17-3.58,2.62-6,2,0-.33,0-.66,0-1Z"/><path class="cls-9" d="M27,1049l5,5Z"/><path class="cls-4" d="M104,1087v-2h7l-3,2h-2Z"/><path class="cls-5" d="M97,7V5l7-1-2,2Z"/><path class="cls-5" d="M439,968l2,1-1,4C436.41,972,438.45,969.88,439,968Z"/><path class="cls-9" d="M440,653v0Z"/><path class="cls-8" d="M6,989c0,1.34,0,2.68,0,4-3.18.29-3.05-1.87-3-4Z"/><path class="cls-9" d="M440,883v0Z"/><path class="cls-8" d="M344,1087.05h5C347.34,1090.23,345.67,1090.21,344,1087.05Z"/><path class="cls-5" d="M104,1087l2,0c-.6,1-1.19,1.92-1.78,2.89L102,1088Z"/><path class="cls-9" d="M440,660v0Z"/><path class="cls-11" d="M5,582c.34-.33.67-.67,1-1q0,4.51,0,9Q5.48,586.05,5,582Z"/><path class="cls-8" d="M10,1019h3c0,1,0,2,0,3H12C11.33,1021,10.67,1020,10,1019Z"/><path class="cls-5" d="M440,978l-1.81-1.26L440,975Z"/><path class="cls-9" d="M48,1066v3l-3-3h3Z"/><path class="cls-9" d="M102,6l2-2,3,1Z"/><path class="cls-9" d="M28,44l-3,3Z"/><path class="cls-5" d="M334,5l-2-2h4.53Z"/><path class="cls-9" d="M25,1045l2,3-3-3Z"/><path class="cls-8" d="M383,1076l4-2Z"/><path class="cls-8" d="M6,996c0,.67,0,1.33,0,2,0,.34,0,.67,0,1L4.18,997.3Z"/><path class="cls-10" d="M12,1022h1l2,2H12Z"/><path class="cls-5" d="M6,989H3l2-2Z"/><path class="cls-10" d="M6,999c0-.34,0-.67,0-1,.66,1,1.32,2,2,3H6Z"/><path class="cls-9" d="M6,94H4l2-2c.33.34.67.67,1,1Z"/><path class="cls-7" d="M440,103l-2-3Z"/><path class="cls-9" d="M117,1089h3v1Z"/><path class="cls-7" d="M438,997c0-.67,0-1.34,0-2l1.55.77Z"/><path class="cls-9" d="M24,49l-2,2Z"/><path class="cls-7" d="M438,993l1-2Z"/><path class="cls-7" d="M438,98c0-.67,0-1.34,0-2l1.56,1.23Z"/><path class="cls-9" d="M12,72l-2,1,2-2Z"/><path class="cls-11" d="M352,1085v2h-2Z"/><path class="cls-9" d="M14,71l-1,1h0V70h1C14,70.36,14,70.69,14,71Z"/><path class="cls-5" d="M331,3.05l-2,1Z"/><path class="cls-5" d="M13,70v2H12V71Z"/><path class="cls-5" d="M14,71c0-.34,0-.67,0-1s0-.65,0-1h1Z"/><path class="cls-11" d="M440,428v0Z"/><path class="cls-9" d="M440,641v0Z"/><path class="cls-6" d="M120,1090v-1h1v1Z"/><path class="cls-9" d="M121,1090v-1h1Z"/><path class="cls-5" d="M19,58l-1,1Z"/><path class="cls-4" d="M57,1072l-2-3,20,10-1,1H71l-2-2-10-5-1-1Z"/><path class="cls-4" d="M101,1085H86l-2-1H82l-3-4Z"/><path class="cls-4" d="M15,1024l-2-2c0-1,0-2,0-3l1-1,7,15C16.44,1031.75,15.67,1027.93,15,1024Z"/><path class="cls-4" d="M40,1060l-6-6v-3l8,8Z"/><path class="cls-10" d="M79,1080l3,4-8-4,1-1Z"/><path class="cls-11" d="M40,1060l2-1,3,2,3,5H45Z"/><path class="cls-10" d="M5,105l1-5H9l-1,5Z"/><path class="cls-4" d="M48,1066l-3-5,7,6Z"/><path class="cls-4" d="M24,1038H23l-2-5Q22.5,1035.54,24,1038Z"/><path class="cls-4" d="M337,1087l-1,1-2.56-.51-.06-1L337,1086Z"/><path class="cls-4" d="M55,1069l-3-2Z"/><path class="cls-11" d="M438,327c.33,5,.7,10,1,15.06.11,2,0,4,0,6a36.9,36.9,0,0,1-.95-5.54C437.92,337.35,438,332.19,438,327Z"/><path class="cls-10" d="M8,1005v0Z"/><path class="cls-10" d="M9,1009l-1-2Z"/><path class="cls-10" d="M69,1078l2,2Z"/><path class="cls-10" d="M84,1084l2,1Z"/><path class="cls-10" d="M88,1085h0Z"/><path class="cls-11" d="M58,1072l1,1Z"/><path class="cls-10" d="M6,94l1-1L6,95C6,94.7,6,94.37,6,94Z"/></g></g></svg>