<svg xmlns="http://www.w3.org/2000/svg" viewBox="0 0 133.37 166.12"><defs><style>.cls-1{fill:#414042;}.cls-2{fill:#5d5c5e;}</style></defs><title>MediaIconHDMI</title><g id="Layer_2" data-name="Layer 2"><g id="Layer_1-2" data-name="Layer 1"><path class="cls-1" d="M9.24.45C20.54.33,31.84.12,43.14.1c25.48,0,51,.07,76.44-.1,4.29,0,5.8,1.14,5.74,5.62-.23,17.64-.09,35.29-.09,53.36H133c.11,1.82.28,3.25.28,4.67,0,17.32-.19,34.64.07,52,.21,14.11-11.74,26.43-26.52,26.25-7.66-.09-15.31,0-23.42,0v24.27H49.36V141.86c-7.75,0-15-.24-22.27,0-12.27.48-20.37-5.46-25.57-16a13.31,13.31,0,0,1-1.25-5.64C.14,101.09.28,81.94,0,62.8c-.09-6.61,4.75-3.76,8.48-5V1.29ZM26.08,58h81.67V18H26.08Z"/><path class="cls-2" d="M9.24.45l-.76.84Z"/><path class="cls-1" d="M74.3,42.28v-17c5.11,0,10.54-1.17,15.15.3C95,27.37,91.57,33.27,92,37.29c.17,1.53-1.78,4.6-3,4.76C84.3,42.62,79.49,42.28,74.3,42.28Z"/><path class="cls-1" d="M41.38,41.94V25.6H57.9V41.94Z"/></g></g></svg>