<svg xmlns="http://www.w3.org/2000/svg" viewBox="0 0 640.06 291.01"><defs><style>.cls-1{fill:#f9f9f9;}.cls-2{fill:#f7f7f7;}.cls-3{fill:#f3f3f3;}.cls-4{fill:#f5f5f5;}.cls-5{fill:#e9e9e9;}.cls-6{fill:#ebebeb;}.cls-7{fill:#ededed;}.cls-8{fill:#ececec;}.cls-9{fill:#f2f2f2;}.cls-10{fill:#f1f1f1;}.cls-11{fill:#f6f6f6;}.cls-12{fill:#eee;}.cls-13{fill:#efefef;}</style></defs><title>MediaSoundIputBackground</title><g id="Layer_2" data-name="Layer 2"><g id="Layer_1-2" data-name="Layer 1"><path class="cls-1" d="M319.79,291q-104.25,0-208.5,0C86.2,291,63.48,283.47,43.74,268,19.36,249,4.61,224.15,1,193.13a141.23,141.23,0,0,1-1-15.37q-.15-33.25,0-66.5c0-25.09,7.53-47.8,23-67.55C42.05,19.33,66.88,4.58,97.91,1a136.07,136.07,0,0,1,15.36-1Q321,0,528.77,0c25.09,0,47.8,7.52,67.55,23C620.7,42,635.45,66.86,639,97.88a138.46,138.46,0,0,1,1,15.37c.11,22.16.08,44.33,0,66.5,0,25.08-7.53,47.8-23,67.54-19,24.39-43.89,39.13-74.91,42.71a133.79,133.79,0,0,1-15.37,1Q423.28,291,319.79,291ZM527,5l-1,1c-2.62-2.92-6-3.06-9.64-3.06Q318.64,3,120.9,3a20.25,20.25,0,0,0-4.48.11c-.89.2-1.6,1.23-2.39,1.89l-3,1h-2c-4.34-3-8.68-3-13,0H94L74,12c-10,2.13-18.47,7.22-26,14h0l-7,6L24,51c-7,6.53-10.52,15-13,24Q7.53,88.5,4,102c1.09,1.88-3.25,4.65,1,6,0,1.34,0,2.67,0,4v12c-5,2.33-.11,4.67,0,7v46l1,4-1,1v1l-1.82,1.73L5,186h0l0,2c-.63,10.21,2.17,19.77,6.09,29,2.51,5.87,5.91,11.37,8.91,17q7,9.51,14,19l7,6c.25.58.35,1.35.79,1.74A102,102,0,0,0,80,282c13.64,5.88,28.28,5.82,42.55,5.82,136.18,0,272.37-.55,408.55-.71a92.51,92.51,0,0,0,33.44-6.59C570,278.43,574.9,274.89,580,272l1,0,2-1c6.07-3.42,12.48-6.43,16-13l8-8c.86-.43,2-.64,2.52-1.33,3.57-5.17,7-10.44,10.48-15.67.66-.67,1.32-1.35,2-2v-1l2-3c0-1,0-2,0-3l3-3q1-5.49,2-11l1-1q1-4,2-8v-2c.34-.67.67-1.34,1-2l1-6v-3q0-6,0-12c3.48.22,3-2.28,3-4.39,0-17.58.07-35.17-.08-52.75,0-2-1.24-3.91-1.91-5.87l-1-10-1-3V98l1.55-.78L633,96V94c-.27-2.61-.32-5.26-.84-7.82C629.3,72,622.81,59.48,614.28,48c-2-2.66-4.81-4.67-7.25-7l-6-6c-1.33-1.83-2.35-4.06-4.06-5.4a109.41,109.41,0,0,0-13.77-9.73C571.93,13.51,560.32,7.81,547,7h-5c0-.34,0-.67,0-1l-2-1-3,1-3,1-5.94-1Z"/><path class="cls-2" d="M528.05,6,534,7c1.52,1,3,2.74,4.55,2.88a93.26,93.26,0,0,1,43.37,14.83c32,20.93,48.55,50.87,49.07,89.25.28,21,.13,42,0,63-.08,17.68-3.8,34.52-12.47,50.08-17.43,31.26-43.8,49.38-79.36,54.12-1.82.25-3.45,1.89-5.16,2.88h-9c-1.8-.66-3.59-1.91-5.39-1.91q-201.22-.13-402.46,0a29.62,29.62,0,0,0-5.2.94l-3,1h-4c-1-1-1.87-2.79-2.91-2.87a93,93,0,0,1-39-12.13C37.76,254.6,20.59,233.58,13,205.21c-1.69-6.3-2.65-12.8-4-19.21q0-6.09,0-12.19,0-30.9,0-61.8c.67-6.23.75-12.59,2.11-18.66C20.42,52.13,45.21,25.07,85.84,13,92.07,11.1,98.63,10.3,105,9h3l4,0H519.18a16.36,16.36,0,0,0,4-.14c.75-.2,1.29-1.21,1.91-1.86l2-1Z"/><path class="cls-3" d="M105.05,284h4l3,0H534c10.45-.17,20.55-1.86,30.12-6.37,5.19-2.45,10.59-4.43,15.9-6.63v1c-5.13,2.88-10,6.42-15.46,8.51a92.51,92.51,0,0,1-33.44,6.59c-136.18.16-272.37.68-408.55.71-14.27,0-28.91.06-42.55-5.82v-2Z"/><path class="cls-4" d="M527,6l-2,1Q361.77,6,198.48,5c-28.15-.15-56.3,0-84.45,0,.79-.66,1.5-1.69,2.39-1.89A20.25,20.25,0,0,1,120.9,3q197.73,0,395.47-.06c3.67,0,7,.14,9.64,3.06h1Z"/><path class="cls-5" d="M114,5c28.15,0,56.3-.12,84.45,0q163.29.91,326.58,2c-.62.65-1.16,1.66-1.91,1.86a16.36,16.36,0,0,1-4,.14H112c-.33-1-.67-2-1-3Z"/><path class="cls-6" d="M580,271c-5.31,2.2-10.71,4.18-15.9,6.63-9.57,4.51-19.67,6.2-30.12,6.37,1.71-1,3.34-2.63,5.16-2.88,35.56-4.74,61.93-22.86,79.36-54.12,8.67-15.56,12.39-32.4,12.47-50.08.11-21,.26-42,0-63-.52-38.38-17-68.32-49.07-89.25A93.26,93.26,0,0,0,538.54,9.88C537,9.74,535.51,8,534,7l3-1,5,1h3l2,1a124,124,0,0,1,42.29,18.84c3.92,2.71,7.81,5.44,11.71,8.16l6,6c1,1.84,2,3.72,3,5.52,4.39,7.31,9.39,14.32,13.07,22,3.94,8.19,6.65,17,9.9,25.5v2c0,.67,0,1.34,0,2v2l1,3,1,10c-.47,1.42-1.4,2.86-1.32,4.25.23,4.1,1.31,8.2,1.2,12.27-.15,5.55-2.66,11.48-1.34,16.51,2,7.63-1.52,14.57-.54,21.82.36,2.72.68,5.44,1,8.16q0,6,0,12v3l-1,6c-.33.67-.66,1.34-1,2v2q-1,3.51-2,7l-1,2q-1,5.49-2,11l-3,3c0,1,0,2,0,3l-2,3v1l-2,1c-3.06,3.79-6.23,7.49-9.14,11.39A62.86,62.86,0,0,0,607,250l-8,8Z"/><path class="cls-7" d="M105,9c-6.4,1.29-13,2.09-19.19,4C45.21,25.07,20.42,52.13,11.13,93.35,9.77,99.42,9.69,105.78,9,112H5v-4c0-2,0-4,0-6,.62-.46,1.68-.83,1.8-1.39C8.64,92.1,10.32,83.55,12,75c3-5.63,6-11.25,8.92-16.92C22.12,55.79,23,53.37,24,51L41,32l7-6h0c1.64-.66,3.35-1.19,4.92-2C60,20.39,67,16.68,74,13c5.72-1.62,11.47-3.19,17.16-4.93C92.25,7.74,93.09,6.72,94,6h2a44.29,44.29,0,0,1,5.15,1A26.32,26.32,0,0,1,105,9Z"/><path class="cls-8" d="M105.05,284l-25-4q-16.19-8.6-32.36-17.19c-2.25-1.2-4.43-2.53-6.64-3.8l-7-6L21,234a41.09,41.09,0,0,0-1.82-4.55A114.91,114.91,0,0,1,7.33,195.58,71,71,0,0,0,5,188c0-.67,0-1.34,0-2H9c1.3,6.41,2.26,12.91,4,19.21C20.59,233.58,37.76,254.6,63.13,269a93,93,0,0,0,39,12.13C103.18,281.21,104.08,283,105.05,284Z"/><path class="cls-5" d="M9,186H5v-4l1-1-1-4c2.86-2.69,2.86-9.3,0-12V131c1.64-2.34,4-4.67,0-7V112H9q0,30.9,0,61.8Q9,179.92,9,186Z"/><path class="cls-4" d="M634.05,176c-.34-2.72-.66-5.44-1-8.16-1-7.25,2.53-14.19.54-21.82-1.32-5,1.19-11,1.34-16.51.11-4.07-1-8.17-1.2-12.27-.08-1.39.85-2.83,1.32-4.25.67,2,1.89,3.91,1.91,5.87.15,17.58.09,35.17.08,52.75C637,173.73,637.53,176.23,634.05,176Z"/><path class="cls-9" d="M601,35c-3.9-2.72-7.79-5.45-11.71-8.16A124,124,0,0,0,547,8V7c13.29.81,24.9,6.51,36.17,12.87A109.41,109.41,0,0,1,597,29.6C598.68,30.94,599.7,33.17,601,35Z"/><path class="cls-9" d="M633,94c-3.25-8.52-6-17.31-9.9-25.5-3.68-7.66-8.68-14.67-13.07-22-1.08-1.8-2-3.68-3-5.52,2.44,2.31,5.29,4.32,7.25,7,8.53,11.5,15,24,17.91,38.2C632.71,88.74,632.76,91.39,633,94Z"/><path class="cls-9" d="M5,188a71,71,0,0,1,2.3,7.58,114.91,114.91,0,0,0,11.88,33.87A41.09,41.09,0,0,1,21,234H20c-3-5.66-6.4-11.16-8.91-17C7.2,207.77,4.4,198.21,5,188Z"/><path class="cls-9" d="M41,259c2.21,1.27,4.39,2.6,6.64,3.8Q63.84,271.44,80,280v2a102,102,0,0,1-38.21-21.25C41.38,260.36,41.28,259.59,41,259Z"/><path class="cls-9" d="M12,75c-1.71,8.55-3.39,17.1-5.19,25.62-.12.56-1.18.93-1.8,1.39H4q3.5-13.5,7-27Z"/><path class="cls-3" d="M12,75H11c2.48-9,6-17.47,13-24-1,2.37-1.91,4.79-3.08,7.08C18,63.75,15,69.37,12,75Z"/><path class="cls-9" d="M580,271l19-13c-3.53,6.56-9.94,9.57-16,13l-2,1-1,0Z"/><path class="cls-3" d="M74,13C67,16.68,60,20.39,53,24c-1.57.8-3.28,1.33-4.92,2,7.53-6.79,16-11.88,26-14Z"/><path class="cls-3" d="M20,234h1l13,19Q27,243.51,20,234Z"/><path class="cls-9" d="M607,250a62.86,62.86,0,0,1,3.86-6.62c2.91-3.9,6.08-7.6,9.14-11.39v1c-3.48,5.23-6.91,10.5-10.48,15.67C609.07,249.37,607.89,249.58,607,250Z"/><path class="cls-10" d="M105,9a26.32,26.32,0,0,0-3.85-2A44.29,44.29,0,0,0,96,6c4.33-3,8.67-3,13,0-.34,1-.68,2-1,3Z"/><path class="cls-10" d="M74,13V12L94,6c-.94.71-1.78,1.73-2.84,2.06C85.5,9.81,79.75,11.38,74,13Z"/><path class="cls-11" d="M5,165c2.86,2.7,2.86,9.31,0,12Z"/><path class="cls-9" d="M5,124c4,2.34,1.63,4.67,0,7C4.93,128.67,0,126.33,5,124Z"/><path class="cls-3" d="M48,26l-7,6Z"/><path class="cls-9" d="M630,208q1-3.5,2-7-1,4-2,8Z"/><path class="cls-7" d="M108,9c.33-1,.67-2,1-3h2c.33,1,.67,2,1,3Z"/><path class="cls-4" d="M4,102H5c0,2,0,4,0,6C.78,106.65,5.12,103.88,4,102Z"/><path class="cls-3" d="M624,224l3-3Z"/><path class="cls-10" d="M542,7l-5-1,3-1,2,1C542,6.33,542,6.66,542,7Z"/><path class="cls-9" d="M634,103l-1-3Z"/><path class="cls-9" d="M634,191c0-1,0-2,0-3C634,189,634,190,634,191Z"/><path class="cls-3" d="M622,230l2-3Z"/><path class="cls-4" d="M5,183v3l-1.82-1.26Z"/><path class="cls-11" d="M5,154v0Z"/><path class="cls-12" d="M630,208v1l-1,1Z"/><path class="cls-3" d="M620,233v-1l2-1C621.35,231.66,620.69,232.34,620,233Z"/><path class="cls-10" d="M547,7V8l-2-1Z"/><path class="cls-4" d="M542,6l-2-1Z"/><path class="cls-9" d="M633,98c0-.67,0-1.34,0-2l1.56,1.23Z"/><path class="cls-9" d="M632,199c.34-.67.67-1.34,1-2Z"/><path class="cls-9" d="M5,151v0Z"/><path class="cls-6" d="M581,272l2-1Z"/><path class="cls-11" d="M6,181l-1,1Z"/><path class="cls-10" d="M528.05,6l-1,0V5Z"/><path class="cls-13" d="M527,5V6h-1Z"/><path class="cls-5" d="M525.06,284H112c0-.35,0-.69,0-1a29.62,29.62,0,0,1,5.2-.94q201.23-.06,402.46,0C521.47,282.09,523.26,283.34,525.06,284Z"/><path class="cls-8" d="M112,283c0,.34,0,.68,0,1l-3,0Z"/></g></g></svg>