<svg xmlns="http://www.w3.org/2000/svg" viewBox="0 0 940.41 291.08"><defs><style>.cls-1{fill:#f9f9f9;}.cls-2{fill:#f3f3f3;}.cls-3{fill:#e9e9e9;}.cls-4{fill:#ededed;}.cls-5{fill:#eee;}.cls-6{fill:#ececec;}.cls-7{fill:#f5f5f5;}.cls-8{fill:#f2f2f2;}.cls-9{fill:#f4f4f4;}.cls-10{fill:#f1f1f1;}.cls-11{fill:#f6f6f6;}.cls-12{fill:#f7f7f7;}</style></defs><title>MediaVideoBackground</title><g id="Layer_2" data-name="Layer 2"><g id="Layer_1-2" data-name="Layer 1"><path class="cls-1" d="M470.68.06C591,.06,711.31-.14,831.62.22,857.34.29,880.09,9.87,900,26.31c21.37,17.62,33.26,40.54,38.73,67.19a67.79,67.79,0,0,1,1.35,13.32c.13,25.66.67,51.34-.11,77-.76,25.14-9.84,47.45-26,67-17.49,21.2-40.11,33.31-66.67,38.65A73,73,0,0,1,833.11,291q-363,.11-725.89-.15c-25.1,0-47.39-9.92-66.91-26s-31.5-37-37.37-61.41A96.3,96.3,0,0,1,.3,182.29C0,158.13-.16,134,.26,109.8.72,83.5,9.82,60.33,26.63,40,44.3,18.6,67.3,6.88,93.91,1.38A71.6,71.6,0,0,1,108.24.11Q289.46,0,470.68.06Zm460.49,82-1-2c0-.34,0-.67,0-1l-1-2v-1l-9-18c-.33-.67-.67-1.34-1-2l-2-3-7-9-2-2-9-10-3-2-9-7-3-2-2-1-11-6-3-1-2-1-9-2-7-3h-2l-3-1h-12l-7-2h-1l-2,1h-2a24.54,24.54,0,0,0-4.64-1c-5.78-.12-11.57,0-17.36,0H315a20.77,20.77,0,0,0-4.47.1c-.9.2-1.61,1.23-2.4,1.89-65.32-1.78-130.66-.68-196-1l-10,1h-8l-11,3h-2l-2,1-6,2c-7.66,1.87-14.51,5.19-20,11l-2,2-3,1-1,1-4,3-1,1-5,4-2,2-5,6h0l-4,6-5,7c-1.4,1.5-3.34,2.76-4.13,4.53-3.15,7.07-5.94,14.3-8.87,21.48l-1,2v2l-1,2-1,8-1,2v7c-3.69,2.63-2,5.85-1,9v62c-1.05,3.47-2.84,7,1,10,.45,17.43,6.29,33.16,15,48a48.85,48.85,0,0,0,3.88,6.25c2.88,3.39,6.06,6.52,9.12,9.76l9,9,2,2h0a30.3,30.3,0,0,0,3.62,4,103.66,103.66,0,0,0,35.38,18c21.1,5.77,42.72,5,64.26,5q294.22,0,588.46-.06c36.58,0,73.22,1.68,109.72-2.05,3.95-.4,7.71-2.54,11.56-3.87h4c9.42-4.59,19-8.86,28.15-13.94,3.79-2.11,6.6-6,9.86-9.05l10-10q4.32.31,4-4h0l3-4c0-.33,0-.66,0-1,3.68.21,3.26-2.86,4-5,.33-.66.67-1.33,1-2l8-16,3-10,1-2v-3l1-2c0-.33,0-.66,0-1L935,197.8l-1.81-1.75v-3l2.9-1.76-1.91-2.25q0-3.5,0-7c.33-2,.67-4,1-6,.67-1.28,1.91-2.56,1.92-3.85q.18-26.64,0-53.29c0-1.29-1.25-2.57-1.92-3.85v-12l-1-5-2-12Z"/><path class="cls-2" d="M856.17,282.06c-3.85,1.33-7.61,3.47-11.56,3.87-36.5,3.73-73.14,2-109.72,2.05q-294.24.24-588.46.06c-21.54,0-43.16.78-64.26-5v-2c3.38.73,6.73,1.82,10.15,2.1,6.6.55,13.23.63,19.85.91h723a7.36,7.36,0,0,0,2.15.44C843.61,283.72,849.89,282.88,856.17,282.06Z"/><path class="cls-3" d="M112.18,5.07c65.33.3,130.67-.8,196,1a72,72,0,0,1,8.36-1q159.6-.07,319.2,0H823.17l2-1h1c.33,1.66.67,3.31,1,5h-715Z"/><path class="cls-4" d="M868.17,13.06l3,1,11,6,2,1,3,2,9,7,3,2,9,10,2,2,7,9,2,3c.33.66.67,1.33,1,2,2.17,5.31,4.27,10.64,6.56,15.9.39.88,1.6,1.41,2.44,2.1v1l1,2c0,.34,0,.67,0,1v2c.66,1.33,1.33,2.66,2,4l2,12c-1.37,2-2.1,3.88,1,5v9h-4c-.33-3.29-.77-6.57-1-9.86C929.1,84.81,923,69,913.27,55c-15.59-22.58-36.88-37.44-64-43.31C844,10.5,838.55,9.9,833.17,9.05v-3h12l3,1h2l7,3,9,2Z"/><path class="cls-5" d="M112.18,5.07v4a104.51,104.51,0,0,0-103,103h-2c-.33-1.55-1.09-3.14-.93-4.64.85-7.8,1.93-15.58,2.93-23.37v-2c.63-1.11,1.34-2.19,1.87-3.35q5.1-11.31,10.13-22.65l5-7,4-6h0l5-6,2-2q2.49-2,5-4l1-1,4-3,1-1,3-1,2-2C59.56,20,66,16.89,72.3,13.73c.46-.23.59-1.1.88-1.67l6-2,2-1h2l11-3h8Z"/><path class="cls-5" d="M112.17,284.06c-6.62-.28-13.25-.36-19.85-.91-3.42-.28-6.77-1.37-10.15-2.1C69.26,276.55,57,270.9,46.42,262c-.78-.66-2.15-.62-3.25-.91h0l-2-2-9-9-11-16c-.38-.89-.69-1.82-1.15-2.68C12.48,217.54,6.89,203.14,7.18,187c5.32.35,2.58,4.54,3,6.91,4.45,22.57,13.93,42.3,30.71,58.5,20,19.28,43.81,28.61,71.25,29.62C112.18,282.73,112.17,283.39,112.17,284.06Z"/><path class="cls-6" d="M856.17,282.06c-6.28.82-12.56,1.66-18.86,2.43a7.36,7.36,0,0,1-2.15-.44c1-1,1.87-2.78,2.91-2.87a93,93,0,0,0,38.61-11.93c25.65-14.4,42.92-35.54,50.59-64.12,2-7.27,3.28-14.71,4.89-22.07l2-1q0,3.51,0,7l-1,4c0,1,0,2,0,3s0,2,0,3c0,.34,0,.67,0,1l-1,2c0,1,0,2,0,3l-1,2-3,10q-4,8-8,16c-.33.67-.67,1.34-1,2l-4,5c0,.33,0,.66,0,1l-3,4h0c-1.33,1.34-2.67,2.67-4,4l-10,10c-.63.18-1.43.17-1.87.56-10.49,9.58-23.07,15.43-36.14,20.44l-2,2Z"/><path class="cls-5" d="M797.17,5.06H635.73q-159.6,0-319.2,0a72,72,0,0,0-8.36,1c.79-.66,1.5-1.69,2.4-1.89a20.77,20.77,0,0,1,4.47-.1H797.17Z"/><path class="cls-2" d="M7.18,187c-.29,16.11,5.3,30.51,12.84,44.34.46.86.77,1.79,1.15,2.68h-2c-8.71-14.84-14.55-30.57-15-48l-1-10v-62l1-9v-7l1-2c.33-2.66.67-5.33,1-8l1-2v-2h2c-1,7.79-2.08,15.57-2.93,23.37-.16,1.5.6,3.09.93,4.64v75Z"/><path class="cls-3" d="M934.17,182.05l-2,1c-.33-6.09-.9-12.18-.94-18.27-.12-17.58,0-35.16,0-52.73h4c0,1,0,2,0,3v61C934.84,178.05,934.5,180.05,934.17,182.05Z"/><path class="cls-7" d="M935.17,176.05v-61c.67,1.28,1.91,2.56,1.92,3.85q.18,26.64,0,53.29C937.08,173.49,935.84,174.77,935.17,176.05Z"/><path class="cls-2" d="M43.17,261.05c1.1.29,2.47.25,3.25.91C57,270.9,69.26,276.55,82.17,281.05v2a103.66,103.66,0,0,1-35.38-18A30.3,30.3,0,0,1,43.17,261.05Z"/><path class="cls-8" d="M860.17,280.06c13.07-5,25.65-10.86,36.14-20.44.44-.39,1.24-.38,1.87-.56-3.26,3.07-6.07,6.94-9.86,9.05-9.14,5.08-18.73,9.35-28.15,13.94Z"/><path class="cls-2" d="M21.17,56.05Q16.12,67.39,11,78.7c-.53,1.16-1.24,2.24-1.87,3.35h-1C11.1,74.88,13.89,67.65,17,60.58,17.83,58.81,19.77,57.55,21.17,56.05Z"/><path class="cls-9" d="M19.17,234.05h2l11,16c-3.06-3.24-6.24-6.37-9.12-9.76A48.85,48.85,0,0,1,19.17,234.05Z"/><path class="cls-2" d="M73.18,12.06c-.29.57-.42,1.44-.88,1.67C66,16.89,59.56,20,53.17,23.05,58.67,17.25,65.52,13.93,73.18,12.06Z"/><path class="cls-2" d="M929.17,76.06c-.84-.69-2-1.22-2.44-2.1-2.29-5.26-4.39-10.59-6.56-15.9Z"/><path class="cls-2" d="M920.17,233.05q4-8,8-16Q924.17,225,920.17,233.05Z"/><path class="cls-5" d="M833.17,6.05v3h-6c-.33-1.66-.67-3.31-1-5Z"/><path class="cls-9" d="M821.17,5.06h-22v-1c5.79,0,11.58-.07,17.36,0A24.54,24.54,0,0,1,821.17,5.06Z"/><path class="cls-10" d="M94.18,6.06l-11,3Z"/><path class="cls-10" d="M882.17,20.06l-11-6Z"/><path class="cls-1" d="M3.18,176.05l1,10C.34,183.07,2.13,179.52,3.18,176.05Z"/><path class="cls-1" d="M4.17,105.06l-1,9C2.17,110.91.48,107.69,4.17,105.06Z"/><path class="cls-2" d="M35.18,37.06l-5,6Z"/><path class="cls-10" d="M857.18,10.05l-7-3Z"/><path class="cls-7" d="M933.19,193.06l1-4,1.91,2.25Z"/><path class="cls-2" d="M915.18,240.06l4-5C918.44,237.2,918.86,240.27,915.18,240.06Z"/><path class="cls-2" d="M908.17,249.05c1.33-1.33,2.67-2.66,4-4Q912.49,249.37,908.17,249.05Z"/><path class="cls-2" d="M30.17,43.06l-4,6Z"/><path class="cls-8" d="M42.18,31.06q-2.51,2-5,4Q39.67,33.05,42.18,31.06Z"/><path class="cls-10" d="M935.16,103.06c-3.09-1.12-2.36-3-1-5Z"/><path class="cls-10" d="M102.17,6.05h0Z"/><path class="cls-2" d="M912.17,245.05l3-4Z"/><path class="cls-8" d="M47.17,27.06l-4,3Z"/><path class="cls-10" d="M842.17,6.06h0Z"/><path class="cls-10" d="M932.16,86.06c-.66-1.34-1.33-2.67-2-4h1Z"/><path class="cls-10" d="M848.17,7.06l-3-1Z"/><path class="cls-7" d="M933.17,199.05c0-1,0-2,0-3L935,197.8Z"/><path class="cls-1" d="M8.17,82.06h1v2h-2Z"/><path class="cls-8" d="M919.17,56.06l-2-3Z"/><path class="cls-8" d="M51.17,25.05l-3,1Z"/><path class="cls-8" d="M887.17,23.06l-3-2Z"/><path class="cls-8" d="M899.17,32.06l-3-2Z"/><path class="cls-1" d="M7.17,86.05l-1,2C6.5,87.39,6.84,86.72,7.17,86.05Z"/><path class="cls-1" d="M5.17,96.05l-1,2Z"/><path class="cls-8" d="M910.17,44.06l-2-2Z"/><path class="cls-10" d="M868.17,13.06l-2-1Z"/><path class="cls-10" d="M81.18,9.07l-2,1Z"/><path class="cls-10" d="M932.17,202.05l1-2Z"/><path class="cls-10" d="M931.17,207.05l1-2Z"/><path class="cls-2" d="M930.16,79.05l-1-2Z"/><path class="cls-2" d="M931.17,82.05h-1v-2Z"/><path class="cls-2" d="M41.17,259.06l2,2Z"/><path class="cls-2" d="M860.17,280.06v2h-2Z"/><path class="cls-11" d="M825.19,4.07l-2,1Z"/><path class="cls-11" d="M799.17,4.05v1h-2v-1Z"/><path class="cls-12" d="M827.17,9.05h6c5.38.85,10.81,1.45,16.13,2.6,27.09,5.87,48.38,20.73,64,43.31C923,69,929.1,84.81,930.2,102.2c.21,3.29.65,6.57,1,9.86,0,17.57-.08,35.15,0,52.73,0,6.09.61,12.18.94,18.27-1.61,7.36-2.94,14.8-4.89,22.07-7.67,28.58-24.94,49.72-50.59,64.12a93,93,0,0,1-38.61,11.93c-1,.09-1.94,1.87-2.91,2.87h-9c-2-.66-3.92-1.91-5.88-1.91q-354.08-.13-708.14-.08c-27.44-1-51.29-10.34-71.25-29.62-16.78-16.2-26.26-35.93-30.71-58.5-.46-2.37,2.28-6.56-3-6.91q0-4,0-7.95c.67-1.61,1.91-3.23,1.92-4.85.12-20.72.08-41.45.08-62.17a104.51,104.51,0,0,1,103-103Z"/><path class="cls-3" d="M112.18,282.06q354.06,0,708.14.08c2,0,3.92,1.25,5.88,1.91h-714C112.17,283.39,112.18,282.73,112.18,282.06Z"/><path class="cls-3" d="M9.17,112.06c0,20.72,0,41.45-.08,62.17,0,1.62-1.25,3.24-1.92,4.85v-67Z"/></g></g></svg>