<svg xmlns="http://www.w3.org/2000/svg" viewBox="0 0 230.94 138.03"><defs><style>.cls-1{fill:#434244;}.cls-2{fill:#464547;}.cls-3{fill:#454446;}.cls-4{fill:#484749;}</style></defs><title>MediaIconBlueToothInput</title><g id="Layer_2" data-name="Layer 2"><g id="Layer_1-2" data-name="Layer 1"><path class="cls-1" d="M109.86,138V86.6l-1.16-.79c-6.58,6.54-13.16,13.07-20,19.84l-7.68-7.09,28.35-27.25-28-25.89,7-8L109.76,57V0c14.28,14.36,28,28.1,41.6,41.84l-28,27.46,29,27Zm10.58-80.61,1.25.85c4.82-5,9.68-9.88,14.42-14.91.53-.57.87-2.22.5-2.61-5-5.26-10.17-10.4-16.17-16.45Zm-.11,57.32c2.31-2.71,3.76-4.54,5.35-6.25s3.52-3.52,5.27-5.3c6.85-7,6.9-5.16.12-11.94-3.34-3.34-6.9-6.46-10.74-10Z"/><path class="cls-2" d="M28.46,9.08C30.21,10.29,32.28,11,33,12.37a6.88,6.88,0,0,1,0,5.45c-1.29,2.44-3.48,4.41-5.28,6.59a73.67,73.67,0,0,0,3,97c1.62,1.74,3.14,4.64,2.92,6.82-.43,4.35-6.48,5.43-9.55,1.35-6-7.93-12.81-15.73-16.54-24.72C-6.39,71.37-1,40.55,23.25,13.29,24.64,11.73,26.52,10.62,28.46,9.08Z"/><path class="cls-3" d="M220,71.48c.11-20-7.06-36.79-20.07-51.35-1.26-1.4-2.76-3.47-2.57-5a6.61,6.61,0,0,1,3.55-4.65c1.51-.52,4.23.4,5.53,1.62A75.28,75.28,0,0,1,227,46.23c9,30.49,2.39,57.6-18.18,81.54-.64.76-1.39,1.43-2.07,2.16-2.37,2.5-5.09,3.29-7.83.86s-2.15-5.18,0-7.91a167.83,167.83,0,0,0,10.2-13.48A67.42,67.42,0,0,0,220,71.48Z"/><path class="cls-3" d="M207.28,71.17c-.44,16.24-6.61,29.81-17.09,41.69-2.39,2.71-5.23,3.89-8.22,1.36s-2.33-5.65.12-8.31c7.18-7.76,11.85-16.66,13.38-27.25,2.18-15-1.53-28.24-11.1-39.9-.84-1-1.76-2-2.66-3-2.34-2.54-2.27-5.17.15-7.48,2.72-2.58,5.51-1.88,7.86.64,6.79,7.27,12.09,15.49,14.52,25.21C205.64,59.73,206.29,65.49,207.28,71.17Z"/><path class="cls-2" d="M24.05,70.13a62.57,62.57,0,0,1,14.41-38c.85-1,1.75-2,2.65-3,2.5-2.68,5.32-3.61,8.23-.82,2.75,2.63,2,5.23-.41,7.84-5.78,6.34-10.27,13.42-12.28,21.92C32.7,74.87,35.74,90,46.78,103.37c.85,1,1.67,2.08,2.57,3.06,2.37,2.52,2.34,5.15,0,7.5s-5,2.21-7.43-.22A58.58,58.58,0,0,1,24.82,78C24.54,75.41,24.31,72.77,24.05,70.13Z"/><path class="cls-4" d="M185.83,71.32A39.6,39.6,0,0,1,175.48,96.5c-2.39,2.61-5,3.34-7.76.85s-1.94-5.1-.12-8c2.45-3.87,5.23-7.79,6.51-12.09,2.6-8.72,0-16.75-5.72-23.59-2.65-3.14-3.75-6.24-.42-9.05s6.1-.55,8.47,2.13C182.64,53.8,185.28,62.14,185.83,71.32Z"/><path class="cls-3" d="M45.72,74.67C45.46,61.37,49,53,55.59,45.89c2.41-2.6,5.14-3.47,7.84-1s2.45,5.47,0,8c-9.47,9.5-10,26.29,0,36.48,2.56,2.6,2.69,5.92-.33,8.33s-5.53,1.07-7.82-1.49C48.88,89,45.76,81,45.72,74.67Z"/></g></g></svg>