<svg xmlns="http://www.w3.org/2000/svg" viewBox="0 0 184.49 132.95"><defs><style>.cls-1{fill:#414042;}</style></defs><title>MediaIconTV</title><g id="Layer_2" data-name="Layer 2"><g id="Layer_1-2" data-name="Layer 1"><path class="cls-1" d="M66.31,122.14V107.29H61q-26.51,0-53,0c-6.64,0-7.91-1.15-7.92-7.85Q-.06,53.18,0,6.94C0,1.18,1.32,0,7.05,0H175.51c7.28,0,9,1.62,9,9q0,29.25,0,58.49c0,10.17,0,20.33,0,30.5,0,7.43-2,9.32-9.35,9.32-19,0-37.95,0-57.3,0v14.84h29.89a33.76,33.76,0,0,1,4.5,0c3.23.45,6.46,1.25,6.19,5.49-.26,3.87-2.84,5.14-6.48,5.15-22,0-44,.13-66,.14-17.83,0-35.66-.14-53.49-.14-3.74,0-6.8-.95-6.92-5.17-.12-4.52,3-5.58,7-5.54C43.6,122.21,54.74,122.14,66.31,122.14ZM172.43,96.76l.91-.8V10.89H10.77v86c14.15,0,28,0,41.75,0ZM107.2,107.6H76.67v14.3H107.2Z"/></g></g></svg>