<svg xmlns="http://www.w3.org/2000/svg" viewBox="0 0 126.53 93.17"><defs><style>.cls-1{fill:#424143;}.cls-2{fill:#454446;}</style></defs><title>MediaSoundMuteButton</title><g id="Layer_2" data-name="Layer 2"><g id="Layer_1-2" data-name="Layer 1"><path class="cls-1" d="M74.25,46.87c0,13.15.14,26.3-.13,39.44-.05,2.31-1.22,5.51-2.94,6.58-1.37.85-4.74-.37-6.58-1.62C56.66,85.86,49,80,41.1,74.54a12.49,12.49,0,0,0-6.33-2.06c-7.15-.25-14.31-.06-21.47-.1C6,72.33.94,68.51.48,61.23A240.38,240.38,0,0,1,.39,32.32c.42-7.39,5.46-11.43,13.07-11.69a122.82,122.82,0,0,1,15.47.06c6,.55,10.86-1.34,15.57-5C51,10.76,57.74,6.2,64.6,1.8,66.47.6,69.84-.57,71.19.3c1.72,1.12,2.88,4.3,2.93,6.62C74.38,20.23,74.25,33.55,74.25,46.87Z"/><path class="cls-2" d="M106.94,54.69c-3.84,4.42-6.35,7.31-8.85,10.21-2.11,2.46-3.94,2.21-6.19-.09C84,56.72,85.11,58.66,91.58,52c1.62-1.66,3.53-3,6.37-5.48-3.66-3.15-6.65-5.77-9.68-8.33C86,36.29,86,34.65,88.11,32.4c6.78-7.3,6.72-7.4,13.63-.42,1.51,1.54,2.77,3.33,4.93,6,3.29-3.72,6-6.66,8.55-9.68,1.8-2.1,3.27-2,5.37-.1,7.33,6.71,7.4,6.63.38,13.87-1.38,1.43-2.74,2.88-4.68,4.92,2.94,2.82,5.72,5.6,8.63,8.24,2.24,2.05,2.06,3.71-.08,5.8-8.3,8.09-6.2,7.46-13.5.19C109.83,59.68,108.89,57.61,106.94,54.69Z"/></g></g></svg>