<svg xmlns="http://www.w3.org/2000/svg" viewBox="0 0 100.92 107.92"><defs><style>.cls-1{fill:#ae1f34;}.cls-2{fill:#b42d41;}</style></defs><title>MediaPowerButton</title><g id="Layer_2" data-name="Layer 2"><g id="Layer_1-2" data-name="Layer 1"><path class="cls-1" d="M100.92,58.13a52.17,52.17,0,0,1-42.69,49.09c-20,3.53-40.93-6.43-51.47-24.57a48.44,48.44,0,0,1,4.87-56.21c3.64-4.22,8.27-7.6,12.5-11.31,2.19-1.92,4.92-2.29,6.53.19,1.73,2.67-.43,4.51-2.74,5.93-13,8-20.16,19.71-20.53,34.93-.42,17.59,7,31.42,22.8,39.6,16,8.3,32,6.79,46.19-4.21C99.87,73.43,98.05,38.21,73.18,22c-.84-.54-2.11-.91-2.43-1.67a31.08,31.08,0,0,1-1.27-5.22c1.93-.16,4.32-1.13,5.72-.34,10,5.63,17.39,13.85,21.26,24.66C98.6,45.42,99.47,51.88,100.92,58.13Z"/><path class="cls-2" d="M53.56,20.1c0,5.16.26,10.35-.15,15.48-.13,1.59-2.07,3-3.19,4.56-1.36-1.36-3.87-2.68-3.91-4.08q-.48-16,0-32c0-1.41,2.6-2.73,4-4.1,1.08,1.54,3,3,3.08,4.62C53.81,9.76,53.56,14.94,53.56,20.1Z"/></g></g></svg>