<svg xmlns="http://www.w3.org/2000/svg" viewBox="0 0 323.91 293"><defs><style>.cls-1{fill:#f9f9f9;}.cls-2{fill:#ededed;}.cls-3{fill:#ececec;}.cls-4{fill:#f2f2f2;}.cls-5{fill:#f5f5f5;}.cls-6{fill:#e9e9e9;}.cls-7{fill:#f3f3f3;}.cls-8{fill:#f4f4f4;}.cls-9{fill:#f7f7f7;}</style></defs><title>MediaBluetoothIput</title><g id="Layer_2" data-name="Layer 2"><g id="Layer_1-2" data-name="Layer 1"><path class="cls-1" d="M159.41,292.89c-14.33,0-28.66.29-43-.07-19.24-.48-38.05-3.58-55.2-12.86C28,262,6.61,234.62,2.34,196.93-.65,170.62,0,143.84.17,117.27.26,102.61,2,87.94,7.31,73.86c9.27-24.34,24.7-43.43,46.81-57,16.41-10,34.28-15.79,53.71-16,32.11-.34,64.22-1,96.33-.87,20.37.08,40.43,2.91,58.68,12.88,33,18,53.41,45.33,58.88,82.69,2,13.87,2,28.11,2.08,42.19.13,17.95.4,36-1.12,53.83-1.93,22.64-10.66,42.89-25.39,60.54a108.91,108.91,0,0,1-36.51,28.68c-14.6,7.07-30,11.35-46.52,11.12-18.28-.26-36.56-.06-54.85-.06Zm139.5-241c-.66-1-1.33-2-2-3l-1-1c-1-1.34-2-2.67-3-4q-5-5-10-10l-8-7h0l-9-6h-1c-1.35-1.17-2.51-2.78-4.08-3.45-6.24-2.67-12.61-5.05-18.93-7.54h-2l-11-3h-11c-.79-.66-1.54-1.81-2.39-1.89a160,160,0,0,0-16.35-1c-30.59.37-61.18.64-91.75,1.59-7.87.25-15.68,2.84-23.51,4.35h-2C77.1,11.56,72,12.65,67.51,15c-6.46,3.46-12.42,7.86-18.59,11.86h0l-5,4h0c-.67.66-1.34,1.32-2,2l-9,9c-.85.42-2,.64-2.52,1.31C20.57,55,13,68,8.92,82.89l-1,11c0,1,0,2,0,3-3.15.1-3.94,1.37-2,4,0,.67,0,1.34,0,2,0,1,0,2,0,3L4.1,107.15l1.82,1.74,1,5c-1,1.66-2.84,3.31-2.86,5-.21,18.12-.18,36.24,0,54.35,0,1.56,1.24,3.12,1.91,4.67v4c-2.24,2-2.64,4,0,6v4l1,4q1.52,7.5,3,15c1,3.63,1.67,7.43,3.16,10.86,5.25,12.06,12,23.17,21.84,32.14l7,6a15.66,15.66,0,0,0,2.18,3c13.28,11.6,28.73,18.93,45.82,22.95h10l3,1,1.26,1.82,1.74-1.82h4c1.62.66,3.24,1.9,4.86,1.91q43.89.17,87.76,0c2.13,0,4.25-1.25,6.38-1.91l5,1c8-1.05,16.26-1.3,24-3.35,10.37-2.73,20.63-6.34,29-13.64h0l10-7h0q2.49-2,5-4l21-26,8-16c.67-3,1.35-6,2-9,1-2.34,2-4.68,3-7v-2c.65-1.49,1.7-2.94,1.86-4.48.84-7.87,1.91-15.76,2.05-23.66.31-16.95.22-33.9,0-50.85-.06-4-1.25-8-1.92-12v-6l-1-6v-2q-1.5-6.51-3-13l-2-5c-.33-1-.67-2-1-3l-1-2c-.33-1-.67-2-1-3q-2.49-4.5-5-9h0l-2-2c-.33-1-.67-2-1-3l-2-3Z"/><path class="cls-2" d="M7.91,96.89c0-1,0-2,0-3l3-11C14.91,74.25,18.61,65.45,23,57c2.77-5.32,6.58-10.11,9.92-15.13l9-9c.66-.67,1.33-1.33,2-2h0l5-4h0a23.93,23.93,0,0,0,3.68-1.18q13.55-6.75,27-13.66a11.33,11.33,0,0,0,2.3-2.15h2c3.57-.46,7.13-1.09,10.72-1.34,5.08-.37,10.18-.46,15.28-.66v2c-21.07,1.18-40.43,7.57-57.3,20.26C25.18,50.78,11.15,78.6,9.91,112.9l-2,1h-1l-1-5v-3c0-1,0-2,0-3l2-2Z"/><path class="cls-2" d="M316.91,94.9v2c-1.1,2.24-2.49,4.53,1,6v6q-1,2-2,4h-2c-.33-3.12-.76-6.24-1-9.37-1.28-18.74-8-35.49-19-50.49-14.51-19.82-33.56-33.28-57.51-39.44-6.48-1.66-13-3.14-19.5-4.7v-1l1-1h11l11,3h2l23,11h1l9,6h0l8,7q5,5,10,10c1,1.34,2,2.67,3,4l1,1c.66,1,1.33,2,2,3h0l2,3c.34,1,.68,2,1,3l2,2h0q2.49,4.52,5,9c.33,1,.67,2,1,3l1,2c.33,1,.67,2,1,3,.34,1.67.67,3.34,1,5Z"/><path class="cls-2" d="M41.92,259.9l-7-6A23.37,23.37,0,0,0,33,249.54c-2.1-3-4.88-5.54-6.59-8.7-5.36-9.88-10.35-20-15.48-30l-3-15v-4l-1-4,1-4h1c.69,3.5,1.45,7,2.07,10.5,4.9,27.83,18.28,50.67,40.85,67.72C69,275,88.51,281.71,109.92,282.9v4h-7l-3-1-10-2c-9.78-4-19.79-7.45-29.27-12C54,268.65,48.14,263.94,41.92,259.9Z"/><path class="cls-3" d="M302.92,233.89l-21,26q-2.51,2-5,4h0l-10,7h0a80.47,80.47,0,0,0-8.26,3.17,101.05,101.05,0,0,1-37.85,11.15c-2.43.21-3-.19-2.9-2.32,3.51-.64,7-1.33,10.53-1.92,44.4-7.35,80.88-46.2,84.6-91.19.09-1,1.88-1.94,2.87-2.9a9.22,9.22,0,0,1,.44,2.16c-.1,3.62-.28,7.24-.44,10.85v2c-1,2.33-2,4.67-3,7-.67,3-1.35,6-2,9Z"/><path class="cls-4" d="M217.92,6.88l-1,1h-107c-5.1.2-10.2.29-15.28.66-3.59.25-7.15.88-10.72,1.34,7.83-1.51,15.64-4.1,23.51-4.35C138,4.59,168.59,4.32,199.18,4a160,160,0,0,1,16.35,1C216.38,5.07,217.13,6.22,217.92,6.88Z"/><path class="cls-4" d="M315.91,199.89c.16-3.61.34-7.23.44-10.85a9.22,9.22,0,0,0-.44-2.16v-4c0-2.85,0-5.7,0-8.55V112.89q1-2,2-4c.67,4,1.86,8,1.92,12,.21,16.95.3,33.9,0,50.85-.14,7.9-1.21,15.79-2.05,23.66C317.61,197,316.56,198.4,315.91,199.89Z"/><path class="cls-5" d="M109.92,286.9v-2c16.67.66,33.34,1.79,50,1.84,16.33.05,32.77,1.72,49-1.84,0,.66,0,1.33,0,2-2.13.66-4.25,1.9-6.38,1.91q-43.87.18-87.76,0C113.16,288.8,111.54,287.56,109.92,286.9Z"/><path class="cls-5" d="M6.91,113.9h1c0,19.72,0,39.43-.08,59.15,0,1.62-1.24,3.23-1.91,4.84-.67-1.55-1.9-3.11-1.91-4.67-.14-18.11-.17-36.23,0-54.35C4.07,117.21,5.91,115.56,6.91,113.9Z"/><path class="cls-6" d="M5.92,177.89c.67-1.61,1.9-3.22,1.91-4.84.13-19.72.08-39.43.08-59.15l2-1q-.48,35.49-1,71h-1l-1-1-1-1Z"/><path class="cls-4" d="M217.91,282.89c-.1,2.13.47,2.53,2.9,2.32a101.05,101.05,0,0,0,37.85-11.15,80.47,80.47,0,0,1,8.26-3.17c-8.36,7.3-18.62,10.91-29,13.64-7.76,2.05-16,2.3-24,3.35l0-4Z"/><path class="cls-7" d="M41.92,259.9c6.22,4,12.11,8.75,18.73,12,9.48,4.59,19.49,8.08,29.27,12v2c-17.09-4-32.54-11.35-45.82-22.95A15.66,15.66,0,0,1,41.92,259.9Z"/><path class="cls-7" d="M10.92,210.89c5.13,10,10.12,20.07,15.48,30,1.71,3.16,4.49,5.72,6.59,8.7a23.37,23.37,0,0,1,1.93,4.35c-9.85-9-16.59-20.08-21.84-32.14-1.49-3.43-2.13-7.23-3.16-10.86Z"/><path class="cls-7" d="M32.92,41.89C29.58,46.91,25.77,51.7,23,57c-4.39,8.43-8.09,17.23-12.08,25.87h-2C13,68,20.57,55,30.4,43.2,31,42.53,32.07,42.31,32.92,41.89Z"/><path class="cls-7" d="M81.93,9.9a11.33,11.33,0,0,1-2.3,2.15Q66.16,19,52.6,25.71a23.93,23.93,0,0,1-3.68,1.18c6.17-4,12.13-8.4,18.59-11.86C72,12.65,77.1,11.56,81.93,9.9Z"/><path class="cls-4" d="M264.92,20.89l-23-11c6.32,2.49,12.69,4.87,18.93,7.54C262.41,18.11,263.57,19.72,264.92,20.89Z"/><path class="cls-4" d="M10.92,210.89h-1q-1.5-7.5-3-15h1Z"/><path class="cls-4" d="M302.92,233.89l8-16Z"/><path class="cls-4" d="M8.92,82.89h2l-3,11C8.25,90.23,8.59,86.56,8.92,82.89Z"/><path class="cls-4" d="M266.92,270.89l10-7Z"/><path class="cls-4" d="M316.91,94.9l-4-13h1Z"/><path class="cls-7" d="M89.92,285.89v-2l10,2Z"/><path class="cls-8" d="M282.92,33.89l-8-7Z"/><path class="cls-4" d="M239.92,9.9l-11-3Z"/><path class="cls-8" d="M274.92,26.9l-9-6Z"/><path class="cls-7" d="M308.91,68.9q-2.49-4.5-5-9Q306.41,64.41,308.91,68.9Z"/><path class="cls-3" d="M213.94,283.88l0,4-5-1c0-.67,0-1.34,0-2l1-1Z"/><path class="cls-5" d="M5.92,181.89l1,1,1,1h0l-1,4h-1C3.28,185.89,3.68,183.89,5.92,181.89Z"/><path class="cls-4" d="M312.93,208.9c1-2.34,2-4.68,3-7C314.92,204.22,313.92,206.56,312.93,208.9Z"/><path class="cls-5" d="M7.91,96.89v4h-2C4,98.26,4.76,97,7.91,96.89Z"/><path class="cls-4" d="M317.91,102.9c-3.48-1.48-2.09-3.77-1-6Z"/><path class="cls-5" d="M7.92,195.89h-1l-1-4h2Z"/><path class="cls-4" d="M226.92,6.9h0Z"/><path class="cls-7" d="M48.92,26.9l-5,4Z"/><path class="cls-4" d="M276.92,263.89q2.49-2,5-4Q279.41,261.89,276.92,263.89Z"/><path class="cls-7" d="M313.92,81.89h-1c-.34-1.66-.67-3.33-1-5Z"/><path class="cls-7" d="M295.91,47.9c-1-1.34-2-2.67-3-4C293.92,45.23,294.92,46.56,295.91,47.9Z"/><path class="cls-4" d="M7.91,191.9h-2v-4h1Z"/><path class="cls-5" d="M5.92,105.89v3L4.1,107.15Z"/><path class="cls-5" d="M102.92,286.89h3l-1.74,1.82Z"/><path class="cls-7" d="M300.91,54.9l-2-3Z"/><path class="cls-7" d="M298.91,51.9c-.66-1-1.33-2-2-3C297.58,49.9,298.25,50.9,298.91,51.9Z"/><path class="cls-7" d="M310.91,73.9l-1-2Z"/><path class="cls-7" d="M303.91,59.89l-2-2Z"/><path class="cls-7" d="M43.92,30.9c-.67.66-1.34,1.32-2,2C42.58,32.22,43.25,31.56,43.92,30.9Z"/><path class="cls-4" d="M5.92,100.89h2l-2,2C5.92,102.23,5.92,101.56,5.92,100.89Z"/><path class="cls-9" d="M213.94,283.88h-4a29.45,29.45,0,0,0-5.2-.94q-47.4-.07-94.82,0c-21.41-1.19-41-7.86-58.07-20.78C29.28,245.07,15.9,222.23,11,194.4c-.62-3.51-1.38-7-2.07-10.5q.5-35.51,1-71c1.24-34.3,15.27-62.12,42.71-82.76,16.87-12.69,36.23-19.08,57.3-20.26q47.42,0,94.83,0a29.48,29.48,0,0,0,5.19-.93l7,0c6.5,1.56,13,3,19.5,4.7,24,6.16,43,19.62,57.51,39.44,11,15,17.75,31.75,19,50.49.21,3.13.64,6.25,1,9.37,0,20.69-.08,41.38.08,62.07,0,2.65,1.24,5.3,1.9,7.94v4c-1,1-2.78,1.86-2.87,2.9-3.72,45-40.2,83.84-84.6,91.19-3.52.59-7,1.28-10.53,1.92Z"/><path class="cls-6" d="M209.94,8.92a29.48,29.48,0,0,1-5.19.93q-47.42.08-94.83,0v-2h100Z"/><path class="cls-6" d="M315.91,182.91c-.66-2.64-1.88-5.29-1.9-7.94-.16-20.69-.09-41.38-.08-62.07h2v61.47C315.92,177.21,315.91,180.06,315.91,182.91Z"/><path class="cls-2" d="M209.94,8.92l0-1h7v1Z"/><path class="cls-6" d="M109.92,282.9q47.42,0,94.82,0a29.45,29.45,0,0,1,5.2.94l-1,1c-16.21,3.56-32.65,1.89-49,1.84-16.67-.05-33.34-1.18-50-1.84Z"/><path class="cls-2" d="M7.92,183.89l-1-1Z"/></g></g></svg>