<svg xmlns="http://www.w3.org/2000/svg" viewBox="0 0 178.83 145.94"><defs><style>.cls-1{fill:#414141;}</style></defs><title>MediaIconChromeCast</title><g id="Layer_2" data-name="Layer 2"><g id="Layer_1-2" data-name="Layer 1"><path class="cls-1" d="M162.55,130.09V16.6H16.3V40.31H.27c0-9.1-.74-18.26.22-27.23C1.38,4.77,8.67,0,18,0h124c6.66,0,13.33-.06,20,0,10.17.13,16.87,6.86,16.88,17q0,56,0,112c0,10.31-6.55,16.88-16.83,16.91-18.48,0-36.95,0-55.85,0V130.09Z"/><path class="cls-1" d="M89,145.74H73.4c-.79-19.84-7.54-37.15-21.62-51.21S20.38,73.67.28,72.85V57.55C41.74,54.48,90.12,92.7,89,145.74Z"/><path class="cls-1" d="M56.65,145.71H41.07c-2.74-24.2-16.2-38-40.88-40.57V89.84C26.91,87.78,57.08,112.29,56.65,145.71Z"/><path class="cls-1" d="M23.77,145.68H.23V122.35C12.78,121.09,24.64,132.78,23.77,145.68Z"/></g></g></svg>