<svg xmlns="http://www.w3.org/2000/svg" viewBox="0 0 176.88 170.86"><defs><style>.cls-1{fill:#474648;}.cls-2{fill:#464546;}</style></defs><title>MediaIconBlueToothSound</title><g id="Layer_2" data-name="Layer 2"><g id="Layer_1-2" data-name="Layer 1"><path class="cls-1" d="M112.37,85.17q0,35.24,0,70.46c0,9.38-4.81,14.53-14.16,15.11a76.05,76.05,0,0,1-8,0c-9.92-.4-14.64-5.36-15.32-15.35a8.47,8.47,0,0,0-3-5.57q-13.39-10-27.25-19.4a15.48,15.48,0,0,0-7.3-2.35c-5.14-.35-10.32.05-15.48-.14C9.07,127.51.3,118.73.14,106,0,92.17-.06,78.34.15,64.52c.2-12.91,9.5-22.6,22.34-21.6C36,44,47.13,40.65,57.09,31.64,61.62,27.53,67.18,24.58,72,20.72a8.7,8.7,0,0,0,2.93-5.56C75.56,5.27,80.49.23,90.35.05c2.66,0,5.33-.09,8,0,9.12.38,14,5.49,14,14.64Q112.39,49.95,112.37,85.17Zm-10.63.26c0-23.16-.07-46.32.06-69.48,0-3.87-1.26-5.63-5.16-5.32-1.16.09-2.34,0-3.5,0-7.2,0-7.35.16-7.35,7.16q0,66.24,0,132.47c0,10,0,9.88,10.22,9.88,4.16,0,5.86-1.21,5.82-5.73C101.63,131.42,101.74,108.43,101.74,85.43ZM74.77,139V31.8c-8.82,6.26-17.08,12-25.17,18-.92.68-1.25,2.64-1.26,4q-.12,31.47,0,62.94c0,1.48.52,3.57,1.56,4.35C57.88,127.05,66,132.72,74.77,139ZM37.38,53.38c-5.2,0-10.14-.05-15.09,0-7,.1-11.45,4.1-11.54,11q-.29,20.94,0,41.89c.08,6.09,3.72,10.39,9.54,10.93,5.55.52,11.18.12,17.09.12Z"/><path class="cls-2" d="M142.82,98.49c-2.29,2.8-4.49,5.7-6.92,8.38-2.29,2.53-5.29,3.32-7.94.89-2.9-2.66-2.07-5.78.51-8.31,4.61-4.52,9.35-8.92,14.76-14C137.85,80.19,133,75.69,128.41,71c-3-3-3-7.21.21-8.35a8.7,8.7,0,0,1,7,1.22c3,2.19,5.2,5.37,7.74,8.14l1.52-.86c0-7.88,0-15.75,0-23.63A33.34,33.34,0,0,1,145,42c.68-4,4.87-6.2,7.78-3.5,7.91,7.34,15.52,15,22.9,22.9,2.65,2.82.26,5.59-1.94,7.78-5.28,5.26-10.62,10.46-16.53,16.27,5.57,5.42,10.7,10.34,15.74,15.35s5.08,6.63-.14,11.84c-5.89,5.88-11.65,11.91-17.79,17.51-1.67,1.52-5,2.91-6.71,2.23s-3.23-4-3.32-6.23c-.38-8.76-.16-17.54-.16-26.31Zm12.93,16.33c3.18-3.53,5.39-6,7.85-8.74l-7.85-7.47ZM156,56.19V72l8.1-8.09Z"/></g></g></svg>