<svg xmlns="http://www.w3.org/2000/svg" viewBox="0 0 375.8 395.74"><title>UH logo</title><g id="Layer_2" data-name="Layer 2"><g id="Layer_1-2" data-name="Layer 1"><path d="M303.13,0c0,.56-.09,1.11-.09,1.67q0,29.88,0,59.75V63H289c3.35-10.37.57-19.6-5.19-28.25.53,2,1.15,4,1.56,6.09a28.81,28.81,0,0,1-3.46,20.45c-3.19,5.66-7.48,10.45-11.93,15.11-6.86,7.15-14,14-20.29,21.73-8.8,10.9-15.08,23-17.67,36.89A92.24,92.24,0,0,0,230.6,157c.76,13.88,4,27.24,8.35,40.34,1,2.95,2.08,5.87,3.17,8.79a1.57,1.57,0,0,1-.27,1.59c-1.13,1.78-2.63,2.23-4.71,2.22q-50.13-.09-100.25,0a3.24,3.24,0,0,1-2.51-1q-16-16-32-31.92c-2.69-2.68-5.37-5.37-8.1-8a2.76,2.76,0,0,1-.9-2.21q0-50.82,0-101.63V63.18H72.48c0-.47-.12-.81-.12-1.15q0-30.83,0-61.67c0-.12,0-.24,0-.36H177.21c0,.52,0,1,0,1.56V63.1H157.68c-1.59,0-1.59,0-1.59,1.64v80.39c0,1.7,0,1.71,1.65,1.71h61.41V63.09h-21V1.67c0-.56-.06-1.11-.1-1.67h67.64a57.55,57.55,0,0,0-13,14.3,77,77,0,0,0-12.26,37,62.33,62.33,0,0,0,5.42,30.94c1.06,2.29,2.36,4.48,3.62,6.83l11.22-11a43.26,43.26,0,0,1-4.45-10.54c.39-.16.68-.29,1-.4l21.19-8.23c1.75-.68,2.51-2.09,1.93-3.54s-2-2-3.81-1.27l-11.61,4.48L255,62.46a61.12,61.12,0,0,1-.83-16.06c.51,0,.86-.1,1.22-.11l20.47-.65c1.82,0,3-1,3-2.56s-1.32-2.56-3.18-2.5q-8.21.26-16.41.49c-1.5,0-3,0-4.5,0,.15-3.08,2.32-12,3.39-13.91l.54.16,14,4.58c1.89.62,3.35.13,3.82-1.29s-.31-2.71-2.22-3.35l-4.2-1.39L259.57,22.4,265,11.78l1.59,1.68C268,15,269.37,16.51,270.83,18a2.29,2.29,0,0,0,3.33.16,2.37,2.37,0,0,0,.09-3.34c-.2-.25-.42-.48-.64-.71l-5.8-6.21c1-1.14,1.83-2.28,2.82-3.31C272.14,3,273.74,1.52,275.31,0Z"/><path d="M375.8,344.15l-11.86-.1h-1.53V314.41H333.64V344H320.53v-71.5h13v29.9H362.4v-30h13.4Z"/><path d="M233.09,395.74c-.48-.15-1-.31-1.45-.44-6.5-1.71-10.49-7.7-9.78-14.69a13.26,13.26,0,1,1,15.49,14.89,4,4,0,0,0-.66.24Zm11.1-13.27a9.24,9.24,0,1,0-18.46-.18,9.23,9.23,0,1,0,18.46.18Z"/><path d="M375.8,395.26h-4v-11h-11.9v10.94H356v-26c1.12,0,2.26-.05,3.39,0,.19,0,.47.66.47,1,0,3,0,5.92,0,8.88v1.44H362c2.87,0,5.75,0,8.63,0,.84,0,1.09-.28,1.08-1.11,0-3.35,0-6.71,0-10.2l4.06-.18Z"/><path d="M291.14,395.74a27.93,27.93,0,0,1-3.94-1.64,8.19,8.19,0,0,1-4.14-7.15c-.12-5.76,0-11.52,0-17.28a1.9,1.9,0,0,1,.11-.4H287v1.48c0,5.12,0,10.24,0,15.36a5.61,5.61,0,0,0,7.82,5.36,5.43,5.43,0,0,0,3.49-5.35c0-5.16,0-10.32,0-15.48v-1.36h4v16.47c0,5.29-2.56,8.54-7.7,9.78a2.35,2.35,0,0,0-.42.21Z"/><path d="M8.12,395.74c-.61-.18-1.21-.36-1.81-.56A9.07,9.07,0,0,1,0,386.48v-17.2H4v1.46c0,5.16,0,10.32,0,15.48a5.31,5.31,0,0,0,3.16,5.1,5.52,5.52,0,0,0,6-.61,5.27,5.27,0,0,0,2.14-4.47q0-7.8,0-15.59v-1.37h4v16.58c0,5.15-2.66,8.48-7.7,9.67a1.83,1.83,0,0,0-.42.21Z"/><path d="M138.83,395.74l-1.44-.49a8.09,8.09,0,0,1-5.84-6.08,10.39,10.39,0,0,1-.15-1.26h3.87c1.09,3.33,3.76,4.82,7.08,4a4,4,0,0,0,3.21-3.58,3.66,3.66,0,0,0-2.78-3.62c-1.39-.49-2.85-.78-4.26-1.2a20,20,0,0,1-2.61-.88c-2.38-1.06-4-2.74-4.24-5.48a6.91,6.91,0,0,1,3.52-6.85c3.59-2.22,8.84-1.68,11.54,1.16a6.4,6.4,0,0,1,1.8,5.16h-3.6c-1.32-3.47-3.73-4.72-6.76-3.56a3.51,3.51,0,0,0-2.54,3.28,3.16,3.16,0,0,0,2.43,3.07c1.46.52,3,.8,4.48,1.28a18.84,18.84,0,0,1,3.53,1.45,6.86,6.86,0,0,1,.9,11.42,22.24,22.24,0,0,1-4.54,2.22Z"/><path d="M.52,344V272.46h13v29.87H42.41v-29.9H55.74v71.51H42.44v-29.5H13.63V344Z"/><path d="M282,76.77v28.5c-1.36-1.29-2.58-2.46-3.83-3.61-1.89-1.75-4.23-1.72-5.83.06s-1.36,4,.45,5.75q4.33,4.07,8.61,8.17a1.85,1.85,0,0,1,.62,1.08c0,3.31,0,6.62,0,9.9-1.71,0-3.33,0-4.95,0-4.87-.2-9.73-.45-14.6-.67a4,4,0,0,0-4.37,3.89,4.09,4.09,0,0,0,4.12,4.1l13,.56,6.76.36c0,3.81,0,7.49,0,11.16,0,.3-.51.72-.88.87q-10.2,4.13-20.43,8.2a4.24,4.24,0,0,0,.87,8.22,5.35,5.35,0,0,0,2.42-.43c5.61-2.21,11.19-4.47,16.78-6.72.36-.14.74-.26,1.29-.45v4.4c0,2.36,0,4.72,0,7.08a2.3,2.3,0,0,1-.56,1.46Q271,179.05,260.49,189.42c-.14.14-.3.25-.59.49-1.11-2.35-2.22-4.59-3.23-6.88a109.06,109.06,0,0,1-8-25.64,67.92,67.92,0,0,1,8.13-46.34A163,163,0,0,1,271.1,90.66C274.72,86.09,278.29,81.48,282,76.77Z"/><path d="M198,344.05h-3.58c-3.07,0-6.15,0-9.23,0a1.38,1.38,0,0,1-1.56-1.06c-1.87-5.1-3.82-10.16-5.7-15.26a1.47,1.47,0,0,0-1.62-1.16q-12.22.06-24.46,0a1.41,1.41,0,0,0-1.55,1.1c-1.9,5.12-3.84,10.24-5.75,15.36-.23.59-.42,1-1.22,1-4.16,0-8.32,0-12.47,0-.19,0-.38-.06-.72-.11.16-.48.27-.88.42-1.28q12.91-34.53,25.82-69.09a1.58,1.58,0,0,1,1.8-1.24c4,.06,8,0,12,0a1.26,1.26,0,0,1,1.43.91q13.06,35.07,26.19,70.11C197.87,343.51,197.91,343.66,198,344.05Zm-33.79-56-.33,0C161,297,158.14,305.93,155.22,315h17.91Z"/><path d="M119.8,272.43v11.69h-31c0,.53-.08.95-.09,1.38,0,5.35,0,10.71,0,16.07,0,1.08.32,1.34,1.36,1.34,8.11-.05,16.23,0,24.34,0h1.52v11.67H88.83v17.6h32.05a10,10,0,0,1,.1,1.06c0,3.24,0,6.48,0,9.72,0,.78-.15,1.14-1,1.14q-21.65,0-43.29,0c-.87,0-1.07-.32-1.07-1.13q0-34.72,0-69.47c0-.79.18-1.13,1.06-1.13q21.16,0,42.33,0C119.21,272.36,119.45,272.4,119.8,272.43Z"/><path d="M305.66,272.46v11.9c-.47,0-.93.06-1.39.06-5.79,0-11.59,0-17.38,0-1.12,0-1.39.34-1.39,1.42,0,18.91,0,37.83.05,56.74,0,1.23-.33,1.55-1.53,1.52-3.48-.08-7,0-10.43,0h-1.44V286.11c0-1.68,0-1.68-1.69-1.68H252.12v-12Z"/><path d="M223.16,332.17h27.57v11.77H209.92V272.47a8,8,0,0,1,.94-.11c3.71,0,7.43,0,11.15,0,1,0,1.17.37,1.17,1.26q0,15.36,0,30.72v27.86Z"/><path d="M26.69,369.21c1.12,0,2.23-.06,3.33,0,.32,0,.69.48.89.82,3.22,5.34,6.41,10.69,9.62,16a3.51,3.51,0,0,0,1,1.12c0-.42.06-.83.06-1.25,0-5.16,0-10.31,0-15.47,0-1.08.32-1.43,1.36-1.33a24.14,24.14,0,0,0,2.56,0v26.07c-1.13,0-2.28.07-3.4,0-.31,0-.62-.56-.83-.92q-4.83-8-9.63-16l-.92-1.45c0,.72-.09,1.11-.09,1.5,0,5.2,0,10.4,0,15.6,0,1.14-.35,1.48-1.42,1.38-.79-.08-1.59,0-2.48,0Z"/><path d="M111.71,395.23h-3.95V369.37a1.22,1.22,0,0,1,.39-.15c3.47,0,7-.15,10.42,0,4.32.22,7.08,3.22,7.26,7.57.1,2.39-.22,4.75-2,6.43a26,26,0,0,1-4.41,2.78l6.49,9.26c-1.67,0-3.08,0-4.49,0-.3,0-.64-.42-.85-.72-1.79-2.59-3.55-5.21-5.33-7.82a2.75,2.75,0,0,0-3.11-.93c-.24.13-.38.65-.39,1,0,2.35,0,4.71,0,7.07Zm.05-13.17c2.24,0,4.36.12,6.45,0s3.36-1.85,3.52-4.31c.15-2.2-1.06-4.42-2.94-4.64a63.25,63.25,0,0,0-7-.06Z"/><path d="M351,395.3c-1.3,0-2.41.06-3.52,0a1.46,1.46,0,0,1-.93-.83q-1-2.31-1.82-4.68a1.22,1.22,0,0,0-1.36-1c-2.87.05-5.75,0-8.62,0a1.18,1.18,0,0,0-1.32.91c-.55,1.58-1.21,3.12-1.76,4.71a1.2,1.2,0,0,1-1.39.95c-1-.07-2,0-3.14,0,.13-.46.19-.79.31-1.1,3-8,6-16,9-24a1.38,1.38,0,0,1,1.56-1.06c3.16,0,3.17,0,4.29,3q4.15,11,8.28,21.94C350.7,394.41,350.79,394.75,351,395.3Zm-15.83-10.14h7.8l-3.78-10.61-.28.07C337.65,378.09,336.42,381.57,335.14,385.16Z"/><path d="M85.45,395.19V369.3h15.6v3.57H89.46v7.76h10.1v3.6H89.46v7.44h11.9v3.52Z"/><path d="M80.68,369.2l-1.33,4.44c-2.07,6.87-4.16,13.74-6.2,20.62-.24.8-.57,1.07-1.39,1.06-2.68,0-2.67,0-3.47-2.61q-3.36-11.11-6.73-22.22c-.11-.37-.22-.75-.37-1.28a34.71,34.71,0,0,1,3.56,0c.33,0,.75.62.87,1,1.63,5.58,3.23,11.18,4.84,16.78.1.37.24.73.47,1.44.25-.75.4-1.18.52-1.61,1.6-5.52,3.22-11,4.77-16.56.25-.91.65-1.23,1.57-1.15S79.53,369.2,80.68,369.2Z"/><path d="M268.76,369.27v3.6H257.4v7.75h8.94v3.64h-9v10.93h-3.93c0-.43,0-.82,0-1.21,0-7.83,0-15.66,0-23.49,0-1,.21-1.33,1.25-1.31,4.35.05,8.7,0,13.05,0C268,369.2,268.32,369.25,268.76,369.27Z"/><path d="M185.49,369.2c1.59,0,2.91-.07,4.21.05a1.91,1.91,0,0,1,1.14.87c2,2.77,3.88,5.57,5.82,8.35.22.33.47.64.79,1.08l.88-1.19c1.94-2.78,3.86-5.58,5.86-8.32a2.39,2.39,0,0,1,1.54-.8c1.15-.12,2.31,0,3.68,0-.24.41-.39.7-.57,1-2.88,4.08-5.79,8.13-8.62,12.25a4.38,4.38,0,0,0-.71,2.28c-.08,3.47,0,6.94,0,10.51h-4c0-.42-.08-.85-.08-1.27,0-3.16,0-6.31,0-9.47a3.74,3.74,0,0,0-.63-2c-2.78-4.05-5.62-8.06-8.44-12.08C186.08,370.1,185.87,369.77,185.49,369.2Z"/><path d="M163.56,372.93V369.3h19.31v3.6H175.3v22.31h-4.06c0-.51-.06-1-.06-1.51,0-6.44,0-12.87,0-19.31,0-1.12-.26-1.54-1.45-1.49C167.73,373,165.7,372.93,163.56,372.93Z"/><path d="M327,373h-7.59V395.2h-4.06v-1.39c0-6.52,0-13,0-19.56,0-1-.26-1.39-1.33-1.34-2.07.08-4.15,0-6.32,0v-3.61H327Z"/><path d="M52.32,369.27H56v25.91H52.32Z"/><path d="M155,369.28h3.74v25.91H155Z"/></g></g></svg>