<svg xmlns="http://www.w3.org/2000/svg" viewBox="0 0 201.74 176.31"><defs><style>.cls-1{fill:#ad1b30;}.cls-2{fill:#ad1b31;}.cls-3{fill:#fbf4f5;}.cls-4{fill:#fbf5f6;}</style></defs><title>NursseCallIcon2</title><g id="Layer_2" data-name="Layer 2"><g id="Layer_1-2" data-name="Layer 1"><path class="cls-1" d="M98.36,108.09c2,8.85,3.6,17.82,6.16,26.5a22.44,22.44,0,0,0,6.52,9.88c4.25,3.75,5.43,7.92,4.95,13.22-.33,3.63.06,7.33-.08,11-.2,5.07-4.43,8.59-9.08,7.39-25.63-6.59-37.78-28.29-36.46-48,.5-7.37,3.17-14.6,4.88-21.89,2.51-10.71,5.09-21.39,7.55-32.11A53.34,53.34,0,0,1,97.36,47.75c2.1-2.11,2.29-3.93,1.52-6.61C96.71,33.61,95,26,92.81,18.45c-1.23-4.31.16-7.08,4-9Q136-9.42,175.27,9.39c4.22,2,5.33,5,4.09,9.39-2.12,7.53-4.23,15.08-5.91,22.72a7.69,7.69,0,0,0,1.53,6c7.22,7.93,12.44,16.79,14.77,27.35,4,18.05,9.87,35.87,11.77,54.12,2.24,21.44-12.77,40.81-34.11,46.29-3.79,1-9.43-2.49-10.19-7.06-1.37-8.3-3.65-16.63,4.33-23.94,7.32-6.7,10.61-16,11-26.07.3-6.82.22-13.66.59-20.48.2-3.7-1.63-5.49-4.42-7.58a103.39,103.39,0,0,1-14.39-12.85c-4.37-4.82-5.43-5.47-10.54-1.3-9.21,7.5-19.41,12.85-31.16,15-.66.12-1.32.2-2,.28C99.2,92.79,99.2,92.79,99.58,104.81c0,1,0,2,0,3ZM143.77,41c1.46,0,3.43-.12,5.38,0,4.5.33,6.86-1.12,6.6-6.17-.31-6-.57-6.59-6.58-6.61-7.44,0-6.81.65-6.59-6.69.13-4.53-1.19-6.9-6.15-6.73-5.63.18-6.53.9-6.58,6.75,0,6.6,0,6.43-6.71,6.76-2,.1-5.1.84-5.88,2.27-3.09,5.7.1,10.38,6.6,10.39h6c0,3.45-.24,6.42,0,9.33.48,4.76,4.35,3.86,7.32,3.72C146.73,53.57,140.29,45.54,143.77,41Z"/><path class="cls-2" d="M27.11,79.38A27.5,27.5,0,1,1,55,52.53,27.46,27.46,0,0,1,27.11,79.38ZM8.36,60.07c3.94,2.94,7.43,6.1,11.44,8.28,1.69.92,5.39.66,6.66-.6C34,60.3,41.11,52.4,48.66,44.32l-6.75-5.64L22.41,59.5l-8.34-6Z"/><path class="cls-3" d="M143.77,41c-3.48,4.54,3,12.57-6.53,13-3,.14-6.84,1-7.32-3.72-.29-2.91,0-5.88,0-9.33h-6c-6.5,0-9.69-4.69-6.6-10.39.78-1.43,3.83-2.17,5.88-2.27,6.66-.33,6.66-.16,6.71-6.76.05-5.85,1-6.57,6.58-6.75,5-.17,6.28,2.2,6.15,6.73-.22,7.34-.85,6.67,6.59,6.69,6,0,6.27.59,6.58,6.61.26,5-2.1,6.5-6.6,6.17C147.2,40.88,145.23,41,143.77,41Z"/><path class="cls-4" d="M8.36,60.07l5.71-6.61,8.34,6,19.5-20.82,6.75,5.64C41.11,52.4,34,60.3,26.46,67.75c-1.27,1.26-5,1.52-6.66.6C15.79,66.17,12.3,63,8.36,60.07Z"/></g></g></svg>