<svg xmlns="http://www.w3.org/2000/svg" viewBox="0 0 218.79 176.36"><defs><style>.cls-1{fill:#ad1b30;}.cls-2{fill:#ae1d32;}.cls-3{fill:#fbf4f5;}.cls-4{fill:#f7eaec;}.cls-5{fill:#f8ecee;}.cls-6{fill:#f8eef0;}</style></defs><title>NursseCallIcon1</title><g id="Layer_2" data-name="Layer 2"><g id="Layer_1-2" data-name="Layer 1"><path class="cls-1" d="M115.2,108.33c1.93,8.7,3.25,17.61,6,26,1.49,4.53,5.1,8.56,8.43,12.19a10.17,10.17,0,0,1,3.11,7.91c-.2,4.83.1,9.68-.09,14.51a7.45,7.45,0,0,1-9.26,7.19c-21.55-4.89-37.92-25.91-36.3-47.71.55-7.38,3.14-14.62,4.84-21.91Q95.82,90,99.73,73.44a51.8,51.8,0,0,1,13.86-25c2.5-2.51,2.87-4.68,1.91-7.9-2.17-7.35-3.89-14.83-6-22.21-1.15-4.07.13-6.82,3.82-8.62q39.67-19.32,79.31.1c3.58,1.77,4.65,4.49,3.65,8.25-2,7.57-3.86,15.19-6.07,22.71-.9,3.06-.56,5.14,1.8,7.51a52.13,52.13,0,0,1,14.26,25.91c4,17.88,8.92,35.6,12.05,53.63,3.45,19.9-14.14,43.62-33.88,47.56-4.31.86-9.89-2.53-10.67-7.72-1.24-8.17-3.17-16.34,4.67-23.44,7.21-6.54,10.42-15.77,10.88-25.63.33-7,.25-14,.6-21,.18-3.5-1.58-5.23-4.17-7.23A120.08,120.08,0,0,1,171,77.14c-4.22-4.58-5.3-5.27-10.2-1.28-8.67,7-18.16,12.41-29.17,14.68a44.07,44.07,0,0,1-9.9,1c-4.41-.1-6.11,1.9-5.88,6,.19,3.5.4,7,.6,10.48ZM145.34,41c3.65,4.35-3,12.12,6.34,13.17,11.62,1.32,5.83-8.47,7.81-12,4.47-3.36,12.45,3.13,12.92-6.45.1-1.94.11-5.31-.72-5.61-3.72-1.35-7.76-1.84-12.4-2.78,0-2.2,0-4.81,0-7.41.09-3.31-1.48-4.8-4.76-5-6.57-.49-8.2.69-7.81,7.36.27,4.73-1.09,6.86-6,6a18.77,18.77,0,0,0-2.49,0c-4.69-.17-4.74,3-4.77,6.38s.22,6.49,4.81,6.4C140.9,41,143.51,41,145.34,41Z"/><path class="cls-2" d="M75.45,81.93l6,14.49-.69.66c-4.94-3.94-9.66-8.19-14.89-11.69A20,20,0,0,0,56,81.87c-13.8-.41-27.62-.17-41.44-.25C5.77,81.57.25,76.19.09,67.26-.07,58.11,0,49,.2,39.8A12.86,12.86,0,0,1,12.89,26.89q30.71-.34,61.41-.08c8.3.08,13.54,5.85,13.63,14.13.08,7-.25,14,.13,21C88.58,71.48,86.59,79.26,75.45,81.93ZM27.51,54.78c0-3.92-2.93-7-6.37-6.82-3.83.17-6.24,2.19-6.44,6.2a6.14,6.14,0,0,0,6.54,6.57C25.16,60.45,27.17,58.13,27.51,54.78ZM75,54.16c-.46-3.91-2.6-6.2-6.5-6.15s-6.11,2.41-6.33,6.28a6.18,6.18,0,0,0,6.72,6.36C72.83,60.35,74.74,58,75,54.16Zm-23.71.26C50.93,50.48,48.85,48.11,45,48s-6.23,2-6.45,6a6,6,0,0,0,6.41,6.58C48.86,60.45,50.88,58.19,51.29,54.42Z"/><path class="cls-3" d="M145.34,41c-1.83,0-4.44,0-7,0-4.59.09-4.83-2.93-4.81-6.4s.08-6.55,4.77-6.38a18.77,18.77,0,0,1,2.49,0c4.9.82,6.26-1.31,6-6-.39-6.67,1.24-7.85,7.81-7.36,3.28.24,4.85,1.73,4.76,5-.07,2.6,0,5.21,0,7.41,4.64.94,8.68,1.43,12.4,2.78.83.3.82,3.67.72,5.61-.47,9.58-8.45,3.09-12.92,6.45-2,3.55,3.81,13.34-7.81,12C142.35,53.14,149,45.37,145.34,41Z"/><path class="cls-4" d="M27.51,54.78c-.34,3.35-2.35,5.67-6.27,5.95a6.14,6.14,0,0,1-6.54-6.57c.2-4,2.61-6,6.44-6.2C24.58,47.8,27.51,50.86,27.51,54.78Z"/><path class="cls-5" d="M75,54.16c-.26,3.83-2.17,6.19-6.11,6.49a6.18,6.18,0,0,1-6.72-6.36c.22-3.87,2.43-6.22,6.33-6.28S74.54,50.25,75,54.16Z"/><path class="cls-6" d="M51.29,54.42c-.41,3.77-2.43,6-6.35,6.22a6,6,0,0,1-6.41-6.58c.22-4,2.6-6.1,6.45-6S50.93,50.48,51.29,54.42Z"/></g></g></svg>