<svg xmlns="http://www.w3.org/2000/svg" viewBox="0 0 450.59 268.08"><defs><style>.cls-1{fill:#fbfbfb;}.cls-2{fill:#f2f2f2;}.cls-3{fill:#f6f6f6;}.cls-4{fill:#fefefe;}.cls-5{fill:#eaeaea;}.cls-6{fill:#eee;}.cls-7{fill:#d1d1d1;}.cls-8{fill:#e7e7e7;}.cls-9{fill:#dcdcdc;}</style></defs><title>NurseCallBackground1</title><g id="Layer_2" data-name="Layer 2"><g id="Layer_1-2" data-name="Layer 1"><path class="cls-1" d="M168.65,268q-73,0-146,0a69,69,0,0,1-12.34-1.13A10.93,10.93,0,0,1,1.24,258,54.56,54.56,0,0,1,.05,246.65Q0,133.93.1,21.21c0-4.54.55-9.47,2.4-13.5,1.31-2.83,5-5.39,8.1-6.38C14.76,0,19.44.08,23.89.07Q169.34,0,314.81.08c32.06,0,61.26,9.44,86.25,29.76s40.7,46.59,46.85,78.23c6,31,2,60.83-12.9,88.64-19.73,36.79-50.31,59.85-91.34,68.2a163.5,163.5,0,0,1-31.56,3C264.29,268.2,216.47,268,168.65,268ZM9,7H9C4.25,9.2,3.3,11.34,5,16a63.45,63.45,0,0,0-1,7.85Q4,134,4.05,244.18A63.68,63.68,0,0,0,5,252c-1.7,4.69-.75,6.83,4,9,5,1,10,2.86,14.93,2.87q146.12.25,292.22.09a65.44,65.44,0,0,0,7.85-1,21.7,21.7,0,0,0,4.69,1c17-.38,32.85-5.74,47.48-13.38a129.65,129.65,0,0,0,52.55-49.51C445.19,173.31,451,143.4,445.54,112c-5.34-30.73-20-56.94-44.28-77.39A134.37,134.37,0,0,0,340,5.35c-5.47-1.09-11.33-.27-17-.33a71.61,71.61,0,0,0-8.35-.95Q172.26,4,29.86,4.07c-5,0-9.91.62-14.86,1C12.15,3.13,10.21,4,9,7Z"/><path class="cls-2" d="M324,263a65.44,65.44,0,0,1-7.85,1q-146.1.06-292.22-.09C19,263.89,14,262,9,261v-2h5c2,.66,3.91,1.9,5.87,1.91q150.06.14,300.12.08l4,1Z"/><path class="cls-2" d="M15,5c4.95-.34,9.9-1,14.86-1q142.39-.09,284.79,0A71.61,71.61,0,0,1,323,5V6l-4,1H24.37a52.37,52.37,0,0,0-7,.09C16.2,7.28,15.13,8.36,14,9H9V7H9Z"/><path class="cls-3" d="M323,6V5c5.68.06,11.54-.76,17,.33a134.37,134.37,0,0,1,61.25,29.29C425.56,55.09,440.2,81.3,445.54,112c5.46,31.37-.35,61.28-16.82,89.06a129.65,129.65,0,0,1-52.55,49.51c-14.63,7.64-30.52,13-47.48,13.38a21.7,21.7,0,0,1-4.69-1v-1l3.05-1,2.9,0c8.82,1.19,17.11-1.72,25.12-4.32,28.15-9.14,50.7-25.72,67.7-50.47a127.5,127.5,0,0,0,22-60.52c2.45-24.41-2.32-47.95-13.46-69.91a126.37,126.37,0,0,0-37.83-44.69C372.59,15.59,349.26,6.6,323,6Z"/><path class="cls-2" d="M5,252a63.68,63.68,0,0,1-1-7.85Q4,134,4.05,23.88A63.45,63.45,0,0,1,5,16H7V252Z"/><path class="cls-3" d="M7,16H5C3.3,11.34,4.25,9.2,9,7v3L7,13Z"/><path class="cls-3" d="M5,252H7c0,1,0,2,0,3l2,3v3C4.25,258.86,3.3,256.72,5,252Z"/><path class="cls-3" d="M15,5,9,7C10.21,4,12.15,3.13,15,5Z"/><path class="cls-4" d="M9,259v-1c0-1,0-2,0-3V9h5Q163.92,9,313.82,9A29.48,29.48,0,0,0,319,8.08c1.79.31,3.57.73,5.37.92,20,2.1,39,7.35,56.33,17.88,21.87,13.26,38.61,31.32,49.06,54.54,9.92,22,14.34,45,10.53,69.61-4.28,27.58-15.56,51.25-34.91,70.89-19.78,20.09-44,32.09-72,36.2-1.26.19-2.3,1.9-3.44,2.9l-2.9,0c-1.72-4.54-4.78.08-7-1a30.67,30.67,0,0,0-5.22-.9Q164.43,259,14,259ZM222,135.69c-4.3,50.07,44.75,103.31,103.36,98.69,29.11-2.29,52.91-13.32,71.37-35,19.55-23,26.07-50.8,21.68-80.13-6-39.85-38.86-81.92-97.83-83.12C266,35,218.42,82.77,222,135.69Z"/><path class="cls-5" d="M14,259q150.41,0,300.82,0a30.67,30.67,0,0,1,5.22.9c0,.35,0,.71-.05,1.06Q169.94,261,19.88,261C17.92,260.94,16,259.7,14,259Z"/><path class="cls-6" d="M320,261c0-.35,0-.71.05-1.06,2.22,1.11,5.28-3.51,7,1L324,262Z"/><path class="cls-6" d="M330,261c1.14-1,2.18-2.71,3.44-2.9,28-4.11,52.24-16.11,72-36.2C424.76,202.28,436,178.61,440.32,151c3.81-24.63-.61-47.57-10.53-69.61C419.34,58.2,402.6,40.14,380.73,26.88,363.37,16.35,344.4,11.1,324.4,9c-1.8-.19-3.58-.61-5.37-.92l0-1,4-1c26.26.57,49.59,9.56,70.47,25.08A126.37,126.37,0,0,1,431.3,75.8c11.14,22,15.91,45.5,13.46,69.91a127.5,127.5,0,0,1-22,60.52c-17,24.75-39.55,41.33-67.7,50.47C347.06,259.3,338.77,262.21,330,261Z"/><path class="cls-5" d="M319,7l0,1a29.48,29.48,0,0,1-5.21.91Q163.91,9,14,9c1.12-.66,2.19-1.74,3.38-1.9a52.37,52.37,0,0,1,7-.09Z"/><path class="cls-5" d="M9,13V255H7c0-1,0-2,0-3V16c0-1,0-2,0-3Z"/><path class="cls-2" d="M9,13H7l2-3C9,11,9,12,9,13Z"/><path class="cls-2" d="M7,255H9c0,1,0,2,0,3Z"/><path class="cls-7" d="M222,135.69C218.42,82.77,266,35,320.58,36.09c59,1.2,91.86,43.27,97.83,83.12,4.39,29.33-2.13,57.13-21.68,80.13-18.46,21.72-42.26,32.75-71.37,35C266.75,239,217.7,185.76,222,135.69Zm45,78.36,3,2,1,0c.08,4.23,3.54,3.37,6,4,.68.33,1.35.67,2,1,8.39,5.93,18,7.94,28,9l4,1h19l4-1c4.89-.72,10-.85,14.61-2.34s8.95-4.36,13.4-6.63l2,0c2.25-1.37,5.9-1,6-5l1,0a12.71,12.71,0,0,0,10-7l1-1a18,18,0,0,0,11-11l1-1c1.3-1,3-1.66,3.85-2.92,8-11.56,13.91-24.06,16.14-38.09,0-.66,0-1.33,0-2,.33-1,.65-2,1-3l0-4c2.31-7.34,2-14.67,0-22,0-.67,0-1.34,0-2-1.17-6.32-1.41-13-3.67-18.89-12.44-32.48-35.49-53.3-69.48-61.66-20.75-5.1-40.8-2.56-60.21,5.76a92.8,92.8,0,0,0-36.3,27.88c-11.17,14-18.57,29.67-20.14,47.39-1.84,20.72-.07,41.22,11.06,59.65,3,5,7.12,9.28,10.72,13.89l1,1a18,18,0,0,0,11,11l1,1c1,3.51,3.87,4.45,7,5Z"/><path class="cls-8" d="M394,196c-.34.33-.67.67-1,1l-11,11-1,1-10,7-1,0c-2.64.89-6,.87-6,5l-2,0c-.71-.15-1.51-.59-2.11-.41q-12.06,3.65-24,7.48c-.74.24-1.24,1.25-1.86,1.9l-4,1c-.62-.63-1.23-1.8-1.87-1.82q-7.65-.24-15.29,0c-.64,0-1.25,1.19-1.87,1.82l-4-1c-.61-.65-1.11-1.66-1.86-1.9q-12-3.85-24-7.48c-.61-.18-1.4.26-2.11.41-.67-.34-1.34-.68-2-1l-6-4-1,0-3-2h0l-7-5-1-1-11-11-1-1a58.5,58.5,0,0,0-2.49-5.8C241,184,237.1,178.08,234,171.73c-7.83-15.78-8.89-33-6.46-49.74,4.2-28.89,19.08-51.66,44.45-66.91,19.45-11.68,40.47-16.83,63-12.78s42,14,56.92,32c11,13.18,18.41,27.9,21.24,44.89.17,1,1.27,1.91,1.94,2.86,0,.67,0,1.34,0,2q0,11,0,22l0,4c-.32,1-.64,2-1,3,0,.67,0,1.34,0,2a48.44,48.44,0,0,0-2.74,4.71c-3.9,8.69-7.6,17.46-11.58,26.11C398.07,189.37,395.92,192.65,394,196Z"/><path class="cls-9" d="M415,122c-.67-1-1.77-1.83-1.94-2.86-2.83-17-10.27-31.71-21.24-44.89-14.95-17.94-34.42-27.92-56.92-32s-43.52,1.1-63,12.78c-25.37,15.25-40.25,38-44.45,66.91-2.43,16.77-1.37,34,6.46,49.74,3.15,6.35,7.08,12.31,10.55,18.51A58.5,58.5,0,0,1,247,196c-3.6-4.61-7.72-8.92-10.72-13.89-11.13-18.43-12.9-38.93-11.06-59.65,1.57-17.72,9-33.44,20.14-47.39a92.8,92.8,0,0,1,36.3-27.88c19.41-8.32,39.46-10.86,60.21-5.76,34,8.36,57,29.18,69.48,61.66C413.6,109,413.84,115.7,415,122Z"/><path class="cls-9" d="M394,196c1.9-3.39,4.05-6.67,5.67-10.19,4-8.65,7.68-17.42,11.58-26.11A48.44,48.44,0,0,1,414,155c-2.23,14-8.13,26.53-16.14,38.09C397,194.38,395.32,195.08,394,196Z"/><path class="cls-9" d="M279,221.06c.71-.15,1.5-.59,2.11-.41q12,3.65,24,7.48c.75.24,1.25,1.25,1.86,1.9C297,229,287.39,227,279,221.06Z"/><path class="cls-9" d="M334,230c.62-.65,1.12-1.66,1.86-1.9q12-3.85,24-7.48c.6-.18,1.4.26,2.11.41-4.45,2.27-8.71,5.13-13.4,6.63S338.89,229.31,334,230Z"/><path class="cls-9" d="M415,146q0-11,0-22A38.07,38.07,0,0,1,415,146Z"/><path class="cls-9" d="M311,231c.62-.63,1.23-1.8,1.87-1.82q7.63-.24,15.29,0c.64,0,1.25,1.19,1.87,1.82Z"/><path class="cls-9" d="M248,197.05l11,11A18,18,0,0,1,248,197.05Z"/><path class="cls-9" d="M382,208.05l11-11A18,18,0,0,1,382,208.05Z"/><path class="cls-9" d="M371,216l10-7A12.71,12.71,0,0,1,371,216Z"/><path class="cls-9" d="M364,221c0-4.09,3.4-4.07,6-5C369.89,220,366.24,219.65,364,221Z"/><path class="cls-9" d="M260,209l7,5C263.86,213.49,261,212.55,260,209Z"/><path class="cls-9" d="M271,216.06l6,4C274.51,219.43,271.05,220.29,271,216.06Z"/><path class="cls-9" d="M414,153c.33-1,.65-2,1-3Z"/><path class="cls-9" d="M267,214.05l3,2Z"/></g></g></svg>