<svg xmlns="http://www.w3.org/2000/svg" viewBox="0 0 95.2 63.76"><defs><style>.cls-1{fill:#ae1d32;}.cls-2{fill:#ae1e33;}</style></defs><title>SideIconBlind</title><g id="Layer_2" data-name="Layer 2"><g id="Layer_1-2" data-name="Layer 1"><path class="cls-1" d="M30.71.24c8,0,16,.15,24-.07,3.79-.1,5.56,1,5.45,5-.16,6.49-.12,13,0,19.47.07,3.61-1.44,5.12-5.06,5.08-10-.1-20,.3-30-.23-3.38-.18-7.57-1.66-9.8-4.05A125.07,125.07,0,0,1,1.2,7.05C-1.5,2.79.51.29,5.74.25,14.06.19,22.39.24,30.71.24Z"/><path class="cls-1" d="M34.66,34.21c6.65,0,13.3.07,19.94,0,3.85,0,5.74,1.29,5.56,5.51-.27,6.3-.11,12.62-.06,18.93,0,3.46-1.27,5.21-5,5.12-6.64-.17-13.31.2-19.93-.17a17.27,17.27,0,0,1-7.85-2.64,40.94,40.94,0,0,1-16.2-19.68c-2.2-5.4-1-7,4.61-7C22,34.18,28.35,34.2,34.66,34.21Z"/><path class="cls-2" d="M64.56,48.15c0-13.95,0-13.95,13.88-13.95a55.73,55.73,0,0,0,8-.07c5.15-.73,8.42,1.53,8.67,6.38A106.76,106.76,0,0,1,94.18,60c-.19,1.45-3.53,3.38-5.53,3.53-6.28.45-12.62.06-18.93.2C66,63.82,64.6,62,64.57,58.62S64.56,51.64,64.56,48.15Z"/><path class="cls-2" d="M79.05.23a42.75,42.75,0,0,0,7-.06c5.61-.93,8.47,2,8.81,6.9a97.79,97.79,0,0,1-.61,18.58C94,27.2,90.92,29.39,89,29.54c-6.29.49-12.64.1-19,.21-3.88.07-5.42-2-5.46-5.5-.07-6.49,0-13,0-19.47,0-3.26,1.55-4.82,5-4.59C72.71.4,75.89.23,79.05.23Z"/></g></g></svg>