<svg xmlns="http://www.w3.org/2000/svg" viewBox="0 0 526.12 166.15"><defs><style>.cls-1{fill:#fbfbfb;}.cls-2{fill:#fefefe;}.cls-3{fill:#e3e3e3;}.cls-4{fill:#f5f5f5;}.cls-5{fill:#f9f9f9;}.cls-6{fill:#f8f8f8;}.cls-7{fill:#f2f2f2;}.cls-8{fill:#fafafa;}.cls-9{fill:#f6f6f6;}.cls-10{fill:#eaeaea;}.cls-11{fill:#e7e7e7;}.cls-12{fill:#f0f0f0;}.cls-13{fill:#f1f1f1;}.cls-14{fill:#f3f3f3;}.cls-15{fill:#efefef;}.cls-16{fill:#ebebeb;}.cls-17{fill:#f7f7f7;}</style></defs><title>SideBarIconButtonBackground</title><g id="Layer_2" data-name="Layer 2"><g id="Layer_1-2" data-name="Layer 1"><path class="cls-1" d="M263.1,166.14q-123,0-246,0a24.83,24.83,0,0,1-5.46-.31C3.07,163.9,0,159.9,0,150.5Q0,100,0,49.46C0,38.29,0,27.11,0,15.94,0,5.71,5.29.36,15.55,0c1,0,2,0,3,0H507.48c1.17,0,2.34,0,3.5,0,10,.49,15.12,5.82,15.13,15.83q0,67.28,0,134.55c0,10.8-5.05,15.73-16,15.73Q386.59,166.16,263.1,166.14Zm151-3,1-1c2.3.66,4.61,1.92,6.9,1.9,13.7-.14,27.4-.57,41.1-.91q21.82,0,43.64,0c2.11,0,4.59.5,4.39-3l2,0,1,1,1,0,2-2,1-1,3-3v-3c0-1.32,0-2.63,0-3.94l1.51-1.28-2.5-.76v-2c3,.24,3-1.69,3-3.86,0-6.61.12-13.23-.11-19.84-.06-1.81-1.24-3.57-1.91-5.36.34-2.61,1-5.24.94-7.84-.56-18.73-1.27-37.45-1.94-56.17,3.81-3.37,2-7.25,1-11q0-4.47,0-8.94l2-2q-1-7.48-2-15l-1-3C519.53,6.25,516,4.21,512,3.31c-2.43-.55-5.21.71-7.82.66-14.46-.23-28.91-.93-43.37-.88C437.2,3.16,413.58,4,390,4c-90.78-.19-181.56-.68-272.34-.88C96.17,3,74.71,3.74,53.26,4c-10.83.13-21.71.6-32.48-.24A28.67,28.67,0,0,0,7,6C3,8,1.55,11.74,3,16v37a19,19,0,0,0-1,4.16q-.09,26.36,0,52.72a18.82,18.82,0,0,0,1,4.16c-.31,11-.8,21.89-.78,32.83,0,2.4,1.8,4.81,2.77,7.21l2,4,4,3,1,0c2.13.67,4.25,1.88,6.39,1.91,13,.18,26,.13,38.94,0a23.59,23.59,0,0,0,4.68-1l3,0,11,0h7l2,0,26,1,302.06-1Z"/><path class="cls-2" d="M7,6A28.67,28.67,0,0,1,20.78,3.76c10.77.84,21.65.37,32.48.24,21.45-.26,42.91-1,64.36-.92,90.78.2,181.56.69,272.34.88,23.62,0,47.24-.8,70.86-.87,14.46,0,28.91.65,43.37.88,2.61,0,5.39-1.21,7.82-.66,4,.9,7.52,2.94,8.11,7.72l1,3q1,7.49,2,15l-2,2q0,4.47,0,8.94l-1,11c.67,18.72,1.38,37.44,1.94,56.17.08,2.6-.6,5.23-.94,7.84q-.5,14.54-1,29.06v2l1,2c0,1.31,0,2.62,0,3.94-.67,1-1.34,2-2,3l-1,3-1,1-1,0c-1.62-.67-3.24-1.92-4.86-1.92Q261.65,157.1,12,157.16H7v-3l-1-2-1-40A15.56,15.56,0,0,0,6,108.44q.09-25.36,0-50.72A15.56,15.56,0,0,0,5,54C5.36,50,6,45.84,6,41.75,5.83,32.85,5.36,24,5,15.05c0-.68,0-1.36,0-2C5.68,10.69,6.34,8.35,7,6Z"/><path class="cls-3" d="M12,157.16q249.61,0,499.23.06c1.62,0,3.24,1.25,4.86,1.92l-1,2-1,0-1-1-2,0h-48l-48,1h0l-1-1h-3c-45.6-.34-91.2-1-136.8-.94-54.43,0-108.85.59-163.28.93l-26,1-1.95,1H76l-8.93-1-1.06-1H62a67.33,67.33,0,0,0-7.81-.94c-13.73-.09-27.47,0-41.2,0Z"/><path class="cls-4" d="M111,160.16c54.43-.34,108.85-.91,163.28-.93,45.6,0,91.2.6,136.8.94l2,2h0l-302.06,1Z"/><path class="cls-4" d="M13,159.17c13.73,0,27.47-.06,41.2,0a67.33,67.33,0,0,1,7.81.94v2a23.59,23.59,0,0,1-4.68,1c-13,.08-26,.13-38.94,0-2.14,0-4.26-1.24-6.39-1.91l1-1C13,159.81,13,159.49,13,159.17Z"/><path class="cls-4" d="M463.1,160.18h48c.2,3.46-2.28,3-4.39,3q-21.83,0-43.64,0Z"/><path class="cls-5" d="M463.1,160.18v3c-13.7.34-27.4.77-41.1.91-2.29,0-4.6-1.24-6.9-1.9h0v-1Z"/><path class="cls-6" d="M3,114.1a18.82,18.82,0,0,1-1-4.16Q2,83.59,2.05,57.22a19,19,0,0,1,1-4.16l1,1v58Z"/><path class="cls-4" d="M3,114.1l1-2,1,0,1,40-1,2H5c-1-2.4-2.77-4.81-2.77-7.21C2.21,136,2.7,125.05,3,114.1Z"/><path class="cls-4" d="M4,54.06l-1-1V16l1-1,1,0c.33,8.9.8,17.8.92,26.7C6,45.84,5.36,50,5,54Z"/><path class="cls-4" d="M520.11,144.14q.5-14.53,1-29.06c.67,1.79,1.85,3.55,1.91,5.36.23,6.61.06,13.23.11,19.84C523.15,142.45,523.07,144.38,520.11,144.14Z"/><path class="cls-7" d="M111,160.16v3l-26-1c0-.34,0-.67,0-1Z"/><path class="cls-8" d="M4,15,3,16C1.55,11.74,3,8,7,6c-.67,2.33-1.33,4.67-2,7Z"/><path class="cls-9" d="M520.11,51.07l1-11C522.11,43.82,523.92,47.7,520.11,51.07Z"/><path class="cls-10" d="M13,159.17c0,.32,0,.64,0,1l-2,1-4-3v-1h5C12.36,157.83,12.69,158.5,13,159.17Z"/><path class="cls-11" d="M62,161.13v-1h4l1.06,1,8.93,1-11,0Z"/><path class="cls-12" d="M519.11,155.14c.66-1,1.33-2,2-3,0,1,0,2,0,3Z"/><path class="cls-7" d="M519.11,155.14h2l-3,3Z"/><path class="cls-13" d="M7,157.15v1l-2-4H7Z"/><path class="cls-4" d="M521.1,148.16l-1-2,2.5.76Z"/><path class="cls-4" d="M515.1,161.11l1-2,1,0Z"/><path class="cls-14" d="M521.11,14.06l-1-3Z"/><path class="cls-12" d="M521.11,31.08l2-2Z"/><path class="cls-15" d="M62,161.13l3,1-3,0Z"/><path class="cls-16" d="M11,161.1l2-1-1,1Z"/><path class="cls-11" d="M85,161.13c0,.33,0,.66,0,1l-2,0Z"/><path class="cls-4" d="M513.11,160.16l1,1Z"/><path class="cls-4" d="M414.09,163.14l-1-1h1C414.09,162.47,414.09,162.81,414.09,163.14Z"/><path class="cls-5" d="M414.09,163.14c0-.33,0-.67,0-1h1Z"/><path class="cls-12" d="M4,54.06l1,0A15.56,15.56,0,0,1,6,57.72q.09,25.36,0,50.72A15.56,15.56,0,0,1,5,112.12l-1,0Z"/><path class="cls-12" d="M4,15l1-2c0,.67,0,1.35,0,2Z"/><path class="cls-12" d="M7,154.13H5l1-2Z"/><path class="cls-17" d="M415.09,162.14h-2l-2-2h3l1,1h0Z"/><path class="cls-15" d="M67.07,161.13l-1.06-1Z"/><path class="cls-4" d="M415.1,161.14l-1-1Z"/></g></g></svg>