<svg xmlns="http://www.w3.org/2000/svg" viewBox="0 0 62.6 76.41"><defs><style>.cls-1{fill:#fff;}</style></defs><title>SideIconDoor1</title><g id="Layer_2" data-name="Layer 2"><g id="Layer_1-2" data-name="Layer 1"><g id="Layer_2-2" data-name="Layer 2"><g id="Layer_1-2-2" data-name="Layer 1-2"><path class="cls-1" d="M43,38.46c0,10,.11,20,0,30-.11,7.63-2.31,9.16-9.62,7.15C24.14,73.08,15,70.39,5.85,68,1.55,66.94,0,64.58,0,60.2q.26-22,0-44c0-4.38,1.54-6.75,5.84-7.85C15.19,6,24.45,3.25,33.76.7c6.69-1.83,9-.24,9.12,6.79.19,10.32,0,20.65,0,31ZM35.86,7.22c-9.24,2.58-18.18,5-27,7.67-.93.29-2,2.15-2,3.3q-.19,20,0,39.93c0,1.17,1,3.1,1.86,3.37,8.86,2.69,17.81,5.11,27.16,7.72Z"/><path class="cls-1" d="M55.29,12.56h-9V6c.26-.13.54-.41.84-.43C62.6,4.67,62.6,4.68,62.6,20.2V61.68c0,7.29-1,8.24-8.47,8.28h-8V63.28l9.22-.49Z"/><path class="cls-1" d="M30.65,46.11c-1.6-2.42-3.3-3.86-3.13-5s2.11-2.27,3.27-3.4c1.12,1.17,3,2.26,3.13,3.54S32.32,43.76,30.65,46.11Z"/></g></g></g></g></svg>