<svg xmlns="http://www.w3.org/2000/svg" viewBox="0 0 46.42 78.87"><defs><style>.cls-1{fill:#fff;}</style></defs><title>SideIconTemperature1</title><g id="Layer_2" data-name="Layer 2"><g id="Layer_1-2" data-name="Layer 1"><g id="Layer_2-2" data-name="Layer 2"><g id="Layer_1-2-2" data-name="Layer 1-2"><path class="cls-1" d="M39.17,18.94l7.2,4.34-7.48,4.21c-1.75,1.78-1.45,3.41,2,3.41a9.36,9.36,0,0,1,4.22,1,2.75,2.75,0,0,1,1.11,2.45A4,4,0,0,1,44,36.62c-1.73.45-3.59.33-6.81.53,1.2,2.53,1.86,4.68,3.1,6.42,7.81,10.93,4.94,25.69-6.46,32.52-8.36,5-21.1,3.07-27.86-4.24-7.45-8-7.83-19.06-1.36-28.38A15.33,15.33,0,0,0,7.1,35.9c.36-7,0-14,.17-21C7.41,8.15,11.39,2.68,17.21.82,24-1.36,30.56.91,35,6.47c1.2,1.5,3.55,2.1,5.39,3.07l6,3c-1.83,1-3.72,1.93-5.49,3.05a44,44,0,0,0-3.67,2.86Zm-7,9.54v-11c-.07-7.25-4.06-12-9.91-11.89s-9.58,4.71-9.65,11.66c-.06,7.16.23,14.34-.14,21.48a13.88,13.88,0,0,1-2.78,7.44c-5.3,6.76-5.17,16.28.76,22.33a16.69,16.69,0,0,0,23,.83c6.47-5.66,7.82-15.3,2.15-22C32.53,43.75,32,40.19,32.1,36c.1-2.52,0-5,0-7.52Z"/><path class="cls-1" d="M18.15,19.22h8.38c0,8.22-.17,16.32.12,24.39a11.21,11.21,0,0,0,2.55,6.33c3.67,4.33,3.89,10.09,0,13.91A9.65,9.65,0,0,1,15.73,64c-4.09-3.94-4-9.35-.29-13.86A11.38,11.38,0,0,0,18,43.84C18.33,35.72,18.15,27.61,18.15,19.22Z"/></g></g></g></g></svg>