<svg xmlns="http://www.w3.org/2000/svg" viewBox="0 0 74.41 68.78"><defs><style>.cls-1{fill:#b1263b;}</style></defs><title>SideIconMedia</title><g id="Layer_2" data-name="Layer 2"><g id="Layer_1-2" data-name="Layer 1"><path class="cls-1" d="M25.3,62V53.5c-4.6,0-9.19,0-13.78,0C3,53.37.12,50.53.06,42q-.12-15.24,0-30.49C.12,3,3,.09,11.52.06Q37.28-.06,63,.06C71.33.1,74.26,3,74.33,11.18q.15,15.75,0,31.5c-.08,7.69-3,10.59-10.61,10.79-4.29.11-8.59,0-13.07,0V62c4.34,0,8.52-.32,12.59.16,1.69.19,3.17,2.11,4.74,3.24-1.59,1.12-3.16,3.19-4.77,3.21Q38,69,12.69,68.59c-1.57,0-3.11-2.16-4.67-3.31,1.62-1.1,3.14-2.93,4.86-3.14C16.8,61.67,20.81,62,25.3,62ZM37.15,6.89c-8.33,0-16.65.11-25,0C8.44,6.77,6.76,7.92,6.85,12q.31,14.72,0,29.45c-.08,3.89,1.29,5.3,5.18,5.27q25.22-.18,50.44,0c3.51,0,5.14-1.06,5.07-4.87q-.27-15,0-29.95c.06-3.65-1.26-5.07-4.92-5C54.13,7,45.64,6.9,37.15,6.89Zm6.16,47H32.6v7.79H43.31Z"/></g></g></svg>