<svg xmlns="http://www.w3.org/2000/svg" viewBox="0 0 56.05 74.29"><defs><style>.cls-1{fill:#b02338;}.cls-2{fill:#b1263a;}</style></defs><title>SideIconLight</title><g id="Layer_2" data-name="Layer 2"><g id="Layer_1-2" data-name="Layer 1"><path class="cls-1" d="M28.47,0C42.89,0,51.41,5.52,55,17.29c1.76,5.72,1.6,11-3.26,15.6-2.63,2.48-4.42,5.83-6.83,8.57-3.17,3.59-3.72,7.34-2.45,12,3.4,12.4-5.07,22.43-17.11,20.65C16.57,72.78,10.73,64,13.4,54.56c1.72-6.1.37-10.59-3.73-15-2.6-2.77-4.91-5.84-7.26-8.85C-.55,27-.36,22.7.75,18.38,4,5.76,12.8,0,28.47,0Zm6.25,49.14c0-8.94,7-13.79,11.34-20.06,4-5.81,3.41-13.17-2.35-17.81C35.94,5,20.08,5,12.34,11.3,6.59,16,6,23.27,10.05,29.11c4.37,6.27,11.31,11.12,11.33,20ZM36,56.41H20c-.88,4.14-.06,8,3.5,9.62a11.9,11.9,0,0,0,8.84.15C35.94,64.6,37,60.82,36,56.41Z"/><path class="cls-2" d="M28.71,12.26c5.48.89,10.18,1.88,12.17,6.82.56,1.42-.53,3.51-.87,5.29a44.5,44.5,0,0,1-4.58-1.65,44.45,44.45,0,0,1-7.1-3.92c-1.24-.9-2.52-2.65-2.53-4C25.8,13.83,27.94,12.88,28.71,12.26Z"/></g></g></svg>