<svg xmlns="http://www.w3.org/2000/svg" viewBox="0 0 69.61 70.66"><defs><style>.cls-1{fill:#fff;}</style></defs><title>SideIconElevator1</title><g id="Layer_2" data-name="Layer 2"><g id="Layer_1-2" data-name="Layer 1"><g id="Layer_2-2" data-name="Layer 2"><g id="Layer_1-2-2" data-name="Layer 1-2"><path class="cls-1" d="M0,35.34V8.84c0-6,2-8.6,7.78-8.67q27-.34,54,0c5.84.07,7.79,2.61,7.8,8.64q.06,26.49,0,53c0,6.2-2.06,8.65-8.27,8.71q-26.49.27-53,0C2.11,70.45.05,68,0,61.84Zm38.18,28H62.37V7.22H38.19Zm-31.11,0H30.82V7.24H7.07Z"/><path class="cls-1" d="M49.71,54.1c-2.86-6.58-6-13.05-8.28-19.83-.41-1.22,3-3.69,4.9-5.41l4.8-5.75,5.1,6.73c5,1.35,5.53,2.51,2.66,8.86-2.3,5.09-4.66,10.16-7,15.24Z"/><path class="cls-1" d="M19.9,17.6C22.74,24,25.83,30.39,28.3,37c1.08,2.86-.51,4-3.8,4.72C22,44.51,20.39,46.25,18.81,48l-5.15-6.14c-5.38-1.41-5.89-2.43-2.91-9,2.3-5.08,4.68-10.13,7-15.18Z"/></g></g></g></g></svg>