<svg xmlns="http://www.w3.org/2000/svg" viewBox="0 0 385.41 133.2"><defs><style>.cls-1{fill:#e9e9e9;}.cls-2{fill:#ebebeb;}.cls-3{fill:#f1f1f1;}.cls-4{fill:#f3f3f3;}.cls-5{fill:#f9f9f9;}.cls-6{fill:#f5f5f5;}.cls-7{fill:#f0f0f0;}.cls-8{fill:#f4f4f4;}</style></defs><title>OptionTypeInBarBackground</title><g id="Layer_2" data-name="Layer 2"><g id="Layer_1-2" data-name="Layer 1"><path class="cls-1" d="M289.23,1a43.16,43.16,0,0,1,6.33-.93q21.49-.13,43,0A46.78,46.78,0,0,1,385.34,46.7c0,13.16-.28,26.33.05,39.49.67,26.5-23.56,47.08-46.92,47-97.84-.31-195.68-.17-293.52-.1C26,133.11,9.83,119.49,3.2,104A42.51,42.51,0,0,1,0,86.06C.28,72.24.1,58.4.1,44.57.1,23.69,17.37,3.25,38.15,1.18,52-.19,66.05.34,80,.08A6.55,6.55,0,0,1,82.23,1L82.17,3l-26,1h-8c-4.37-1.51-8.62-2.3-12,2h-2C29.59,8,25,9.86,20.56,12.13,17.5,13.71,14.45,15.69,15.1,20h0c-3.39,0-5,1.64-5,5l-2,4-1,3h0c-2.91,1.89-3.2,3.31-1,5l0,3c-4.08-.15-2.7,2.92-3,5l2,3v40l-1,3,1,3v2C5,97.23,4.53,98.58,5,99.54A65.26,65.26,0,0,0,10,109.71c4.69,7.09,10,13.62,19.08,15.35h0l8,3H348.31l8-3,4-2,5-4h0c1.8-1,4.27-1.48,5.27-3,3.63-5.42,7.31-10.94,9.89-16.88,1.4-3.23.64-7.4.85-11.15q.5-20.51,1-41c-2.13-7.27-4-14.65-6.56-21.77-.77-2.12-3.56-3.52-5.43-5.25l-9-9c-3.89-5.49-16.53-9.35-23-7l-5-1h-43l-1-1Z"/><path class="cls-2" d="M94.08,2C95.39,1.34,96.69.1,98,.1q85.65-.15,171.3,0c3.32,0,6.63,1.23,9.95,1.89l3,0V3H161.2Z"/><path class="cls-3" d="M94.08,2,161.2,3A19.6,19.6,0,0,1,157,4q-30.85.09-61.71,0a19.6,19.6,0,0,1-4.17-1l2-1C93.48,2,93.78,2,94.08,2Z"/><path class="cls-3" d="M83.13,1,89.19.93c0,.7,0,1.4,0,2.11h-4Z"/><path class="cls-3" d="M282.28,2l-3,0,10-1c0,.34,0,.68,0,1h-7Z"/><path class="cls-2" d="M89.14,3c0-.71,0-1.41,0-2.11l4,1.07-2,1Z"/><path class="cls-4" d="M83.13,1l2,2h-3L82.23,1Z"/><path class="cls-5" d="M82.17,3h9a19.6,19.6,0,0,0,4.17,1q30.86.09,61.71,0a19.6,19.6,0,0,0,4.17-1H289.27c.33,0,.66,0,1,0h43c-.18,4.1,2.91,2.71,5,3h4l5,1,14,4,9,9c.29,1.1.24,2.48.9,3.24,4.66,5.37,6.17,11.84,7.28,18.62.3,1.88,2.49,3.45,3.81,5.16q-.49,20.51-1,41l-2,3v2c-2.36,5.54-4.43,11.23-7.18,16.57-1.76,3.41-4.52,6.31-6.83,9.44h0l-5,3-4,3-8,2-2,1H39.12l-4-2-6-1h0c-.69-.84-1.2-2-2.07-2.47A42.85,42.85,0,0,1,7.41,98.77c-.36-1-1.52-1.82-2.31-2.72,0-.66,0-1.33,0-2,0-1,0-2,0-3l0-3V48l1-3,0-5c0-1,0-2,0-3,.34-1.68.67-3.35,1-5h0l2-3,2-4,4-5h0l16-11,12-2,5-3h3l1,1,4-1Zm110.45,121q66,0,132.05,0c5.63,0,11.25-.75,16.88-.9,18.83-.51,34.89-18.73,34.78-38.72-.06-11.51.23-23-.09-34.51-.22-7.8-1.44-15.51-5.87-22.32C361.64,14.15,348.78,9,333.37,9Q192.81,9,52.25,9.09a68.33,68.33,0,0,0-12.82,1.38C22.33,13.76,9.2,29.32,9.11,49.7c0,11.67-.15,23.34,0,35,.22,13.74,6.24,24.49,17.33,32.57,7.54,5.5,16.33,6.64,25.09,6.68C98.58,124.19,145.6,124.06,192.62,124.06Z"/><path class="cls-3" d="M5.1,96.05c.79.9,2,1.67,2.31,2.72a42.85,42.85,0,0,0,19.64,23.82c.87.5,1.38,1.63,2.07,2.47C20,123.33,14.73,116.8,10,109.71A65.26,65.26,0,0,1,5,99.54C4.53,98.58,5,97.23,5.1,96.05Z"/><path class="cls-3" d="M365.32,119.06c2.31-3.13,5.07-6,6.83-9.44,2.75-5.34,4.82-11,7.18-16.57v-2l2-3c-.21,3.75.55,7.92-.85,11.15-2.58,5.94-6.26,11.46-9.89,16.88C369.59,117.58,367.12,118.1,365.32,119.06Z"/><path class="cls-6" d="M382.31,47c-1.32-1.71-3.51-3.28-3.81-5.16-1.11-6.78-2.62-13.25-7.28-18.62-.66-.76-.61-2.14-.9-3.24,1.87,1.73,4.66,3.13,5.43,5.25C378.32,32.39,380.18,39.77,382.31,47Z"/><path class="cls-3" d="M342.3,6h-4V4c6.48-2.34,19.12,1.52,23,7l-14-4C346.2,3.92,344.31,4.65,342.3,6Z"/><path class="cls-3" d="M31.12,9l-16,11c-.65-4.33,2.4-6.31,5.46-7.89C25,9.86,29.59,8,34.13,6Z"/><path class="cls-3" d="M48.13,4l-5,3c-1.77-4.37-4.67-.73-7-1C39.51,1.72,43.76,2.51,48.13,4Z"/><path class="cls-4" d="M36.11,6c2.35.27,5.25-3.37,7,1l-12,2,3-3Z"/><path class="cls-4" d="M42.12,128.07h0Z"/><path class="cls-4" d="M334.3,128.08h0Z"/><path class="cls-7" d="M6.07,40l0,5h-3C3.37,42.94,2,39.87,6.07,40Z"/><path class="cls-3" d="M15.1,20l-4,5h-1C10.06,21.66,11.71,20,15.1,20Z"/><path class="cls-3" d="M360.31,122.06l5-3-5,4Z"/><path class="cls-4" d="M338.3,4V6c-2.1-.27-5.19,1.12-5-3Z"/><path class="cls-3" d="M29.12,125.06l6,1,2,2Z"/><path class="cls-7" d="M348.31,127.06l8-2-8,3Z"/><path class="cls-7" d="M10.1,25h1c-.67,1.34-1.34,2.67-2,4h-1C8.77,27.7,9.43,26.36,10.1,25Z"/><path class="cls-7" d="M7.1,32c-.34,1.67-.67,3.34-1,5C3.9,35.34,4.19,33.92,7.1,32Z"/><path class="cls-7" d="M360.31,122.06v1l-4,2Z"/><path class="cls-8" d="M3.1,45h3l-1,3Z"/><path class="cls-4" d="M56.13,4l-4,1V4Z"/><path class="cls-8" d="M5.08,88.05c0,1,0,2,0,3h-1Z"/><path class="cls-4" d="M37.12,128.07l-2-2,4,2Z"/><path class="cls-3" d="M4.09,91.05h1c0,1,0,2,0,3C4.76,93.06,4.43,92.05,4.09,91.05Z"/><path class="cls-8" d="M8.1,29h1l-2,3Z"/><path class="cls-4" d="M348.31,127.06v1h-2Z"/><path class="cls-3" d="M52.12,4V5l-1-1Z"/><path class="cls-3" d="M290.26,3c-.33,0-.66,0-1,0V2h0Z"/><path class="cls-4" d="M288.27,3h-6V2h6Z"/><path class="cls-2" d="M288.27,3V2h1V3Z"/></g></g></svg>