<svg xmlns="http://www.w3.org/2000/svg" viewBox="0 0 1529.08 514.22"><defs><style>.cls-1{fill:#f8f8f8;}.cls-2{fill:#f7f7f7;}.cls-3{fill:#e9e9e9;}.cls-4{fill:#f5f5f5;}.cls-5{fill:#eaeaea;}.cls-6{fill:#f1f1f1;}.cls-7{fill:#ebebeb;}.cls-8{fill:#f4f4f4;}.cls-9{fill:#f3f3f3;}.cls-10{fill:#f2f2f2;}.cls-11{fill:#efefef;}.cls-12{fill:#eee;}</style></defs><title>OptionBackground1</title><g id="Layer_2" data-name="Layer 2"><g id="Layer_1-2" data-name="Layer 1"><path class="cls-1" d="M764.52,0Q1091.73,0,1419,.25c28.47,0,53.54,10.82,74.64,30.64,19.09,17.94,29.71,40,34.29,65.39a82,82,0,0,1,1.16,14.35q.09,152,0,304a36.1,36.1,0,0,1-1.94,11.66c-5.55,16-11.34,31.89-22.54,45.17-13,15.39-28.09,27.67-47.17,34.74a132.7,132.7,0,0,1-46.78,8q-649.93-.15-1299.86-.27c-28.86,0-54.09-11-75.53-31C17,466,7.88,444.49.49,421.72a16.53,16.53,0,0,1-.4-4.94c0-102.67-.29-205.35.2-308C.4,85.36,8.45,63.79,22.77,45,41.49,20.5,66.44,6.2,96.74,1.18A100.36,100.36,0,0,1,113.09.08Q438.8,0,764.52,0ZM192.08,4h-3l-2,1h-74l-6,2h-4c-1.11-.59-2.27-1.74-3.32-1.64A69.9,69.9,0,0,0,89.09,7.11C77.37,10,65.91,13.62,56.08,21l-11,8h0a34.25,34.25,0,0,0-16,16h0l-9,12-2,4-6,12c-1.62,4.66-3.6,9.24-4.71,14-.74,3.18-.24,6.65-.3,10v3c-3.67,2.25-2.08,5.16-1,8,0,5.9-.07,11.81,0,17.71.29,19.1.9,38.2.93,57.3q.17,110.1,0,220.21c0,4.94-.62,9.89-.95,14.84v4l6,19c.9,2.47,1.38,5.22,2.78,7.36C21,457.83,26.5,467.81,34,476c6.51,7.14,15.33,12.18,23.13,18.15,9,7,19.74,10,30.48,12.9,2.35.63,5,.1,7.52.1h2l6,2h1312c2,1.3,3.89,2.14,5-1l6-1c2,3.07,4,3.09,6,0h2c.89.3,1.92,1.07,2.65.84,8.21-2.56,16.5-5,24.49-8.1,3.61-1.42,6.6-4.45,9.86-6.74h0l1-1h1l6-4h0l4-3h0c7.76-3.12,12.42-9.52,17-16,1-1.66,2-3.33,3-5,7.14-6.09,11-14,13-23,1.68-5,3.35-10,5.07-15.11-4.24-2.09-4.35,1.34-4.94,3.33-5.81,19.56-16,36.16-31.46,49.76-19,16.76-41.16,25.88-66.2,25.89q-655.74.3-1311.47.15h-3c-1.78-.33-3.55-.76-5.34-1a100.5,100.5,0,0,1-56.62-26.6,99.91,99.91,0,0,1-29.4-48.73c-.38-1.45-2.39-2.47-3.64-3.7l0-3q0-152.73.06-305.47a139.75,139.75,0,0,1,1-16.87c3.8-30.95,19-55.07,44.36-72.91C70,16,87.5,11,106.08,9h1321c4,.83,8,1.52,12,2.5,22.34,5.58,41.5,16.31,56.42,34.27,11.85,14.25,19.6,30.24,22.75,48.51.46,2.67,1.89,5.17,2.87,7.75,0,.65,0,1.3,0,2a29.54,29.54,0,0,0-1,5.19q-.06,154.35,0,308.7c0,1.57.17,3.14.34,6l2.65-3.8v-4c1-2.62,2.86-5.24,2.87-7.86q.22-143.13.12-286.25a14.8,14.8,0,0,1,0-2c.39-3.07-1-4.34-4-4,3-4,.84-8,0-12,.33-2,1.26-4.18.86-6-1-4.4-2.54-8.66-3.87-13,0-.67,0-1.33,0-2q-1-4-2-8c-.46-2.24-.49-4.7-1.47-6.7C1508,52.63,1498,38.67,1483.91,28c-2.67-2-5.87-3.34-8.83-5l-3-1c-.41-1-.54-2.62-1.26-3-5.52-2.49-11.15-4.73-16.75-7l-8-2h-1l-3-2-2-1-2,0h-5l-4-1-12-1h-3c-3.21-.67-6.42-1.92-9.64-1.92Q1017.76,3,631.07,3h-405l-18,1h-16Zm573,13q-327.47,0-654.93.07a82,82,0,0,0-14.28,1.56C74.52,22.44,56.73,32.5,42,48.51c-15.69,17-24.54,37.2-24.66,59.89-.56,101.84-.25,203.68-.23,305.53a17.21,17.21,0,0,0,.45,4.93c5.91,19.64,14.2,37.72,29.69,52.17,18,16.82,39.18,25.94,63.42,26q653.18.3,1306.35,0a99.17,99.17,0,0,0,21.6-2.7c27.34-6.2,47.69-22.28,61.34-46.36,7.79-13.75,12.45-28.47,12.37-45-.46-97.51-.2-195-.3-292.53a85.6,85.6,0,0,0-1.63-14.76c-3.66-20.83-13.39-38.24-28.85-52.81-17.67-16.66-38.67-25.59-62.52-25.63Q1092.05,16.78,765.09,17Z"/><path class="cls-2" d="M765.09,17q327,0,653.92.17c23.85,0,44.85,9,62.52,25.63,15.46,14.57,25.19,32,28.85,52.81a85.6,85.6,0,0,1,1.63,14.76c.1,97.51-.16,195,.3,292.53.08,16.55-4.58,31.27-12.37,45-13.65,24.08-34,40.16-61.34,46.36A99.17,99.17,0,0,1,1417,497q-653.18.19-1306.35,0c-24.24,0-45.38-9.14-63.42-26-15.49-14.45-23.78-32.53-29.69-52.17a17.21,17.21,0,0,1-.45-4.93c0-101.85-.33-203.69.23-305.53.12-22.69,9-42.87,24.66-59.89,14.75-16,32.54-26.07,53.9-29.84a82,82,0,0,1,14.28-1.56Q437.63,17,765.09,17Z"/><path class="cls-3" d="M1426.08,507.15l-6,1-5,1h-1306l-2-2v-2q655.74,0,1311.47-.15c25,0,47.2-9.13,66.2-25.89,15.42-13.6,25.65-30.2,31.46-49.76.59-2,.7-5.42,4.94-3.33-1.72,5.13-3.39,10.12-5.07,15.11l-13,23c-1,1.66-2,3.33-3,5q-8.49,8-17,16h0l-4,3h0l-6,4h-1l-1,1h0l-37,14h-8Z"/><path class="cls-3" d="M1416.08,9h-1301l-2-1V7c0-.66,0-1.32,0-2h80Q307.74,5,422.41,5a34,34,0,0,0,5.69-1H629.05c-4.9.33-9.79.64-14.69,1-1.58.11-3.15.31-4.73.47.06.51.11,1,.16,1.52h806.29Z"/><path class="cls-4" d="M1416.08,7H609.79c0-.51-.1-1-.16-1.52,1.58-.16,3.15-.36,4.73-.47,4.9-.35,9.79-.66,14.69-1l2-1q386.68,0,773.37.08c3.22,0,6.43,1.25,9.64,1.92l2,1Z"/><path class="cls-5" d="M103.09,7h4c-.34.67-.67,1.35-1,2C87.5,11,70,16,54.46,26.85c-25.4,17.84-40.56,42-44.36,72.91a139.75,139.75,0,0,0-1,16.87Q9,269.36,9.06,422.1l-3,0v-2c0-.67,0-1.33,0-2,.33-4.95.95-9.9.95-14.84q.11-110.11,0-220.21c0-19.1-.64-38.2-.93-57.3-.09-5.9,0-11.81,0-17.71l1-8c0-1,0-2,0-3q3-12,6-24l5-12,2-4,9-12h0c3-2.88,6.14-5.7,9.11-8.65,2.38-2.37,4.6-4.89,6.89-7.35h0l11-7c5.73-2.65,11.25-6,17.23-7.78C83.07,11.33,93.14,9.39,103.09,7Z"/><path class="cls-4" d="M1522.11,116.05c3-.38,4.38.89,4,4a14.8,14.8,0,0,0,0,2q0,143.12-.12,286.25c0,2.62-1.87,5.24-2.87,7.86-.33-3.95-1-7.91-.94-11.86.12-8.45.68-16.89.91-25.35.4-14.6,1.09-29.22.91-43.82-.19-16.24-1.72-32.47-1.79-48.7C1522,229.61,1522.11,172.83,1522.11,116.05Z"/><path class="cls-3" d="M1522.11,116.05c0,56.78-.16,113.56.07,170.34.07,16.23,1.6,32.46,1.79,48.7.18,14.6-.51,29.22-.91,43.82-.23,8.46-.79,16.9-.91,25.35-.05,3.95.61,7.91.94,11.86v4l-2.65,3.8c-.17-2.85-.34-4.42-.34-6q0-154.35,0-308.7a29.54,29.54,0,0,1,1-5.19l1,0C1523,108.05,1525.06,112.05,1522.11,116.05Z"/><path class="cls-6" d="M631.07,3l-2,1H428.1Q332.19,4,236.27,4a40,40,0,0,1-6.18-1Z"/><path class="cls-7" d="M97.07,507.15h-2C87.54,504.8,79.92,502.7,72.5,500c-5.28-1.9-10.29-4.57-15.42-6.9a33.79,33.79,0,0,0-3-2.53C41.53,482,30.8,471.5,22.76,458.47c-3.47-5.63-6.47-11.56-9.68-17.35-.35-1.91-.6-3.85-1.09-5.73-.89-3.45-1.93-6.85-2.91-10.28,1.25,1.23,3.26,2.25,3.64,3.7a99.91,99.91,0,0,0,29.4,48.73,100.5,100.5,0,0,0,56.62,26.6c1.79.23,3.56.66,5.34,1l-1,2Z"/><path class="cls-3" d="M1519.08,83.05c0,.67,0,1.33,0,2,.08,1.77,0,3.56.25,5.32.51,3.91,1.15,7.81,1.74,11.71-1-2.58-2.41-5.08-2.87-7.75-3.15-18.27-10.9-34.26-22.75-48.51-14.92-18-34.08-28.69-56.42-34.27-4-1-8-1.67-12-2.5l2-3,4,1,1.26,1.82,1.75-1.81h2l2,2h2l3,1h1l10,4h1l2,2,13,6,3,1c.93,1.08,1.79,2.24,2.81,3.23,7.73,7.47,16.18,14.34,23,22.56,5.13,6.18,8.19,14.08,12.18,21.22l2,2v1Q1517.09,78.06,1519.08,83.05Z"/><path class="cls-8" d="M230.09,3a40,40,0,0,0,6.18,1q95.91.07,191.83,0a34,34,0,0,1-5.69,1q-114.66.07-229.33,0V4h35l1-1Z"/><path class="cls-9" d="M1515.08,73.05v-1l-2-2c-4-7.14-7-15-12.18-21.22-6.84-8.22-15.29-15.09-23-22.56-1-1-1.88-2.15-2.81-3.23,3,1.65,6.16,3,8.83,5,14.08,10.64,24.06,24.6,31.7,40.32,1,2,1,4.46,1.47,6.7C1516.42,74.38,1515.75,73.72,1515.08,73.05Z"/><path class="cls-9" d="M13.08,441.12c3.21,5.79,6.21,11.72,9.68,17.35,8,13,18.77,23.5,31.36,32.13a33.79,33.79,0,0,1,3,2.53v1c-7.8-6-16.62-11-23.13-18.15-7.45-8.18-13-18.16-19.09-27.51-1.4-2.14-1.88-4.89-2.78-7.36Z"/><path class="cls-10" d="M103.09,7c-10,2.36-20,4.3-29.78,7.24-6,1.8-11.5,5.13-17.23,7.78V21c9.83-7.42,21.29-11,33-13.93A69.9,69.9,0,0,1,99.77,5.39C100.82,5.29,102,6.44,103.09,7Z"/><path class="cls-10" d="M57.08,494.14v-1c5.13,2.33,10.14,5,15.42,6.9,7.42,2.67,15,4.77,22.58,7.11-2.52,0-5.17.53-7.52-.1C76.82,504.18,66.11,501.11,57.08,494.14Z"/><path class="cls-10" d="M1434.08,507.14l37-14c-3.26,2.29-6.25,5.32-9.86,6.74-8,3.15-16.28,5.54-24.49,8.1C1436,508.21,1435,507.44,1434.08,507.14Z"/><path class="cls-10" d="M1503.08,464.13l13-23C1514.08,450.11,1510.22,458,1503.08,464.13Z"/><path class="cls-6" d="M13.08,73.06q-3,12-6,24c.06-3.34-.44-6.81.3-10,1.11-4.78,3.09-9.36,4.71-14Z"/><path class="cls-6" d="M13.08,441.12h-1l-6-19,3,0c0,1,0,2,0,3,1,3.43,2,6.83,2.91,10.28C12.48,437.27,12.73,439.21,13.08,441.12Z"/><path class="cls-9" d="M1483.08,485.13q8.51-8,17-16C1495.5,475.61,1490.84,482,1483.08,485.13Z"/><path class="cls-11" d="M1429.09,6.05l-2,3h-11V6h0l1-1Z"/><path class="cls-9" d="M45.08,29.05c-2.29,2.46-4.51,5-6.89,7.35-3,3-6.07,5.77-9.11,8.65A34.25,34.25,0,0,1,45.08,29.05Z"/><path class="cls-6" d="M1521.08,102.08c-.59-3.9-1.23-7.8-1.74-11.71-.22-1.76-.17-3.55-.25-5.32,1.33,4.31,2.92,8.57,3.87,13,.4,1.86-.53,4-.86,6l-1,0C1521.07,103.38,1521.08,102.73,1521.08,102.08Z"/><path class="cls-9" d="M1457.08,14h-1l-2-2c5.6,2.31,11.23,4.55,16.75,7,.72.33.85,1.94,1.26,3l-13-6Z"/><path class="cls-9" d="M29.08,45.05l-9,12Z"/><path class="cls-8" d="M13.08,73.06h-1l6-12Z"/><path class="cls-9" d="M56.08,21v1l-11,7Z"/><path class="cls-11" d="M106.08,9c.33-.67.66-1.35,1-2l6-2c0,.67,0,1.33,0,2l-1,2Z"/><path class="cls-11" d="M1454.08,12l2,2-10-4Z"/><path class="cls-12" d="M1515.08,73.05c.67.67,1.34,1.33,2,2q1,4,2,8Q1517.09,78.06,1515.08,73.05Z"/><path class="cls-6" d="M226.08,4h-18l18-1Z"/><path class="cls-6" d="M7.06,100.05l-1,8C5,105.21,3.39,102.3,7.06,100.05Z"/><path class="cls-11" d="M103.08,507.14c.33-.67.66-1.34,1-2h3v4h-4Z"/><path class="cls-9" d="M1473.08,492.14l6-4Z"/><path class="cls-10" d="M103.08,507.14v2l-6-2Z"/><path class="cls-10" d="M1426.08,507.15h6C1430.09,510.24,1428.08,510.22,1426.08,507.15Z"/><path class="cls-6" d="M1415.08,509.13l5-1C1419,511.27,1417.07,510.43,1415.08,509.13Z"/><path class="cls-11" d="M1445.09,10l-3-1V8Z"/><path class="cls-9" d="M1479.08,488.13l4-3Z"/><path class="cls-11" d="M1436.09,7.05l-1.75,1.81L1433.08,7Z"/><path class="cls-11" d="M1440.08,9l-2-2,2,0Z"/><path class="cls-6" d="M6.07,418.12c0,.67,0,1.33,0,2C6.08,419.45,6.07,418.79,6.07,418.12Z"/><path class="cls-4" d="M1523.09,420.12v0Z"/><path class="cls-10" d="M1440.08,9V7l2,1v1Z"/><path class="cls-6" d="M107.08,509.14v-2l2,2Z"/><path class="cls-4" d="M226.08,4V3h2V4Z"/><path class="cls-11" d="M189.08,5h-2l2-1Z"/><path class="cls-6" d="M189.08,5V4h2V5Z"/><path class="cls-11" d="M1416.08,6l-2-1h2V6Z"/><path class="cls-11" d="M113.08,8l2,1h-2C113.08,8.7,113.08,8.37,113.08,8Z"/><path class="cls-3" d="M113.08,8c0,.33,0,.66,0,1h-1l1-2Z"/><path class="cls-6" d="M228.08,4V3h1Z"/><path class="cls-6" d="M193.08,4V5h-1V4Z"/><path class="cls-9" d="M1471.09,493.14l1-1Z"/><path class="cls-4" d="M192.08,4V5h-1V4Z"/><path class="cls-4" d="M1416.08,6V5h1Z"/><path class="cls-12" d="M1513.09,70.05l2,2Z"/><path class="cls-11" d="M1457.08,14l2,2Z"/></g></g></svg>