<svg xmlns="http://www.w3.org/2000/svg" viewBox="0 0 221.99 185.13"><defs><style>.cls-1{fill:#414141;}</style></defs><title>OptionIconListen</title><g id="Layer_2" data-name="Layer 2"><g id="Layer_1-2" data-name="Layer 1"><path class="cls-1" d="M179.92,184.6V100.06l10.22,1.08c4.48-17.42-5.15-50.55-29-69-27.6-21.4-64.11-23.53-93.57-4.95-27.45,17.31-40,49.94-36.21,74.07L42,99.89v85.24c-2.89-.31-5.71-.25-8.33-.93-16.7-4.34-28.17-14.55-32.26-31.44-3.92-16.15.66-30.22,12.8-41.87,1.57-1.49,2.44-4.61,2.28-6.87-2.23-31.45,7.91-58,31-79.49C76.39-2.42,122.6-8,156.76,12c34.91,20.48,51,51.35,48.48,91.77-.2,3.21.35,5.29,2.88,7.73,12.46,12,16.87,26.79,11.82,43.37-5.09,16.77-17.06,26.57-34.33,29.77a22.66,22.66,0,0,1-3.48.34A11.61,11.61,0,0,1,179.92,184.6Z"/></g></g></svg>