<svg xmlns="http://www.w3.org/2000/svg" viewBox="0 0 181.6 284.91"><defs><style>.cls-1{fill:#424143;}.cls-2{fill:#434244;}</style></defs><title>OptionIconSamMac</title><g id="Layer_2" data-name="Layer 2"><g id="Layer_1-2" data-name="Layer 1"><path class="cls-1" d="M142.58,97.14c0,14.83.22,29.67-.05,44.5-.38,21.13-9.69,37.31-28.64,46.86-18.57,9.37-36.93,7.58-53.76-4.6-13.67-9.88-20.84-23.77-21-40.63q-.47-46.25,0-92.5C39.36,22.9,62,.63,90,0c27.41-.61,51.1,21,52.32,48.64.71,16.13.13,32.32.13,48.49Z"/><path class="cls-2" d="M90.88,284.81c-8.83,0-17.66.26-26.48-.08-6.25-.24-10.4-4-11.91-9.62-1.33-4.91.48-11,5.17-13.45,3.19-1.68,7.24-2.21,10.93-2.34C78,259,78,259.21,78,249.66c0-4.16-.36-8.37.1-12.48.48-4.37-1.45-5.6-5.32-6.41C30.22,221.76,1.05,186.51.15,143c-.26-12.66-.12-25.33,0-38C.18,96.49,5,91.26,12.61,91.11,20.55,91,25.79,96,25.93,104.65c.2,12.16,0,24.33.07,36.49.18,32.68,20.24,58.28,52.16,64.68,39.5,7.93,73.4-20.2,76.74-55.76,1.41-15,.6-30.29.86-45.45.16-9,5.55-14,14.21-13.46,5.3.34,10.79,4.21,10.78,9.38,0,24.52,4,49.48-5.18,73.24-11.7,30.35-33.82,49.25-65.43,56.66-5.26,1.23-7.3,3-6.7,8.42.51,4.61.1,9.32.1,14,0,6.38,0,6.38,6.64,6.39,2.17,0,4.34-.07,6.5,0,7.28.38,12.77,5.81,12.88,12.65a12.69,12.69,0,0,1-12.2,12.78c-8.8.44-17.65.1-26.48.1Z"/></g></g></svg>