<svg xmlns="http://www.w3.org/2000/svg" viewBox="0 0 181.59 285.03"><defs><style>.cls-1{fill:#434244;}</style></defs><title>OptionIconMac</title><g id="Layer_2" data-name="Layer 2"><g id="Layer_1-2" data-name="Layer 1"><path class="cls-1" d="M142.58,96.91c0,15,.25,30-.06,45-.44,21.14-9.86,37.27-28.86,46.74-18.62,9.29-37,7.39-53.74-4.86-13.62-9.94-20.67-23.87-20.81-40.74q-.4-46,0-92A51.6,51.6,0,0,1,90.21,0c27.5-.42,51,21.24,52.09,48.9.65,16,.12,32,.12,48ZM76.4,88.77l1.32-.13c1.93,14.28,3.86,28.56,5.77,42.66H96.32c2-15.73,4-31.24,5.9-46.75l1.19,0v46.75h17.87V52.72H95c-1.49,10.66-3,21.16-4.44,31.67l-1.28-.07C87.62,73.75,86,63.19,84.41,52.89H58.26v78.45H76.4Z"/><path class="cls-1" d="M90.59,284.85c-8.83,0-17.67.27-26.48-.09-6-.25-10-3.92-11.56-9.37s.22-10.25,4.58-13.21c2.78-1.9,6.77-2.63,10.25-2.76C78,259,78,259.23,78,248.44c0-3.5-.35-7,.08-10.49.57-4.55-1.1-6.3-5.58-7.2A87.79,87.79,0,0,1,20.9,199.8C7.2,183.26.63,164,.16,142.7c-.28-12.49-.12-25,0-37.5C.17,96.44,5,91.18,12.9,91.13s12.93,5.12,13,13.84c.16,12.16,0,24.33.06,36.5C26.22,174,46.55,199.78,78.43,206c39.59,7.68,73-20.41,76.44-55.65,1.47-15.2.6-30.63.9-45.95.17-8.84,5.81-13.87,14.48-13.17,5.25.43,10.58,4.44,10.55,9.66-.14,23.7,3.75,47.79-4.54,70.88-11.34,31.61-33.8,51.17-66.41,58.84-5,1.17-7,2.88-6.43,8.14a112.12,112.12,0,0,1,.06,16c-.14,3.41.89,4.95,4.49,4.65a66.81,66.81,0,0,1,8.49,0c7.37.32,12.84,5.57,13.09,12.45a12.76,12.76,0,0,1-12.48,13c-8.81.4-17.65.09-26.48.09Z"/></g></g></svg>