<svg xmlns="http://www.w3.org/2000/svg" viewBox="0 0 181.59 284.94"><defs><style>.cls-1{fill:#434244;}</style></defs><title>OptionIconSam.-png</title><g id="Layer_2" data-name="Layer 2"><g id="Layer_1-2" data-name="Layer 1"><path class="cls-1" d="M142.58,96.88c0,15,.25,30-.06,45-.43,21.13-9.86,37.25-28.85,46.72-18.63,9.29-37,7.39-53.75-4.85C46.3,173.81,39.25,159.89,39.11,143q-.4-46,0-92A51.6,51.6,0,0,1,90.21,0c27.5-.42,51,21.23,52.09,48.88.65,16,.12,32,.12,48Zm-31.4-20.56c1.64-16.27-3.24-22.78-18.27-24.66a38.73,38.73,0,0,0-7-.12c-9.63.53-16.42,4.88-18.56,11.75-3.29,10.59-.63,22.6,6.48,28,4.5,3.42,9.17,6.66,14,9.62,5.36,3.3,6.56,8.25,5.7,13.77-.28,1.77-2.57,3.23-3.94,4.82-1.2-1.67-3.19-3.23-3.44-5-.53-3.84-.16-7.82-.16-11.6H66.93c0,2.82-.07,5.3,0,7.79.42,13.69,5.57,20.19,19.12,21.52,15.7,1.53,29.18-3,27-23.83-.11-1-.11-2-.17-3-.34-6.7-2.87-12.28-8.52-16.15C99.75,86,95,82.94,90.31,79.76c-4.19-2.84-6-7.51-4.37-12.1.45-1.27,2.11-2.83,3.29-2.89,1,0,2.63,1.81,2.9,3.06a57.59,57.59,0,0,1,.68,8.49Z"/><path class="cls-1" d="M90.6,284.77c-8.83,0-17.66.27-26.48-.09-6-.25-10-3.91-11.57-9.36s.22-10.25,4.57-13.22c2.78-1.89,6.77-2.63,10.25-2.76,10.65-.4,10.66-.19,10.66-11,0-3.67-.35-7.37.08-11,.55-4.54-1.51-5.87-5.58-6.69a88.1,88.1,0,0,1-51.62-30.95C7.2,183.21.64,164,.16,142.67c-.28-12.49-.12-25,0-37.49.05-8.77,4.91-14,12.77-14.07s12.94,5.1,13.05,13.82c.16,12.16,0,24.32.06,36.49.22,32.54,20.54,58.29,52.42,64.47,39.58,7.69,73-20.38,76.45-55.62,1.47-15.2.6-30.62.9-45.94.17-8.83,5.8-13.87,14.47-13.17,5.25.42,10.58,4.43,10.56,9.64-.13,23.7,3.75,47.78-4.53,70.86-11.34,31.62-33.8,51.17-66.4,58.83-5,1.17-7,2.87-6.45,8.13a112.26,112.26,0,0,1,.06,16c-.14,3.39.86,5,4.48,4.65a65,65,0,0,1,8.49,0c7.37.31,12.84,5.55,13.1,12.43a12.76,12.76,0,0,1-12.46,13c-8.81.41-17.66.09-26.49.09Z"/></g></g></svg>