<svg xmlns="http://www.w3.org/2000/svg" viewBox="0 0 262.18 186.4"><defs><style>.cls-1{fill:#424143;}.cls-2{fill:#434244;}</style></defs><title>OptionIconMute</title><g id="Layer_2" data-name="Layer 2"><g id="Layer_1-2" data-name="Layer 1"><path class="cls-1" d="M150.68,92.82c0,23.33.13,46.65-.07,70-.06,6.94-1.48,13.33-7.79,18.16-10.33,7.91-17.29,6.63-26.13-.13-18.59-14.24-36.59-29.23-55-43.76a10.34,10.34,0,0,0-5.95-1.7c-11.66-.16-23.35-.58-35,.07C11.63,136,.23,126.76.12,118-.1,100.34-.07,82.7.74,65.11c.34-7.52,9.32-14.61,16.92-14.82,9.65-.27,19.39-.92,29,0,9.85.94,16.91-3.1,24-9,15-12.48,30.25-24.69,45.58-36.77C125.74-3,143-1.31,148.38,11a29.44,29.44,0,0,1,2.21,11.39C150.78,45.84,150.68,69.33,150.68,92.82ZM130.48,167c.19-2,.33-2.83.33-3.64q.24-41.49.44-83c.11-19,.29-38,.33-57,0-1.3-.91-2.6-1.4-3.9a22.45,22.45,0,0,0-3.73,1.78c-2.54,1.84-4.94,3.87-7.41,5.81-16.51,13-33,26.12-49.62,39a14.65,14.65,0,0,1-7.87,3.06c-10.66.35-21.33.14-32,.14h-11c0,14.35.08,27.93-.05,41.5,0,3.33.8,4.72,4.46,4.76,13.6.12,27.19.53,40.79,1a9.09,9.09,0,0,1,5,1.63c14,10.9,27.81,21.94,41.69,32.94Z"/><path class="cls-2" d="M220.41,105c-9.6,9.67-17.84,18.13-26.27,26.4-5,4.92-9.25,5.28-13.42,1.66-5.44-4.73-5.71-9.38-.49-14.76,7.31-7.53,14.81-14.87,22.22-22.31,1.15-1.16,2.24-2.38,3.69-3.93-8.55-8.51-16.9-16.83-25.27-25.14-5.2-5.15-5.67-10.08-1.35-14.68,3.81-4.05,10.07-3.67,14.87,1.09,8.38,8.3,16.68,16.69,25.26,25.28,8.52-8.48,16.74-16.67,25-24.85,4.27-4.25,11.05-4.9,14.57-1.45,3.9,3.82,3.47,10.42-1.05,15.05q-6.1,6.25-12.36,12.37c-4,4-8.15,7.85-13.77,13.24,3.65,2.93,7,5.29,10,8.11,5.56,5.27,10.94,10.73,16.27,16.24,6.61,6.82,4.54,15.2-4.67,17.26-2.45.55-6.23-1.46-8.36-3.42-7.35-6.76-14.28-14-21.28-21.11A41.9,41.9,0,0,1,220.41,105Z"/></g></g></svg>