<svg xmlns="http://www.w3.org/2000/svg" viewBox="0 0 145.73 98.97"><defs><style>.cls-1{fill:#484749;}.cls-2{fill:#454446;}</style></defs><title>ArrowUpMax</title><g id="Layer_2" data-name="Layer 2"><g id="Layer_1-2" data-name="Layer 1"><path class="cls-1" d="M73.17,9.48,10.08,75c-1.39,1.44-2.59,3.34-4.3,4.1S2,79.34,0,79.39a33.36,33.36,0,0,1,.26-5.85c.22-1,1.47-1.75,2.28-2.59L67.72,3.24c4.13-4.29,5.76-4.31,9.8-.12q32.78,34,65.52,68.07c.92,1,2.31,1.91,2.5,3,.31,1.72.34,4.07-.62,5.25-.68.83-3.37.61-4.84,0s-2.49-2.14-3.64-3.34Q106.6,45.22,76.81,14.22A55.84,55.84,0,0,1,73.17,9.48Z"/><path class="cls-2" d="M73.18,83c9.32,0,18.64-.05,27.95,0,6.35,0,10.06,3.08,10,8S107.34,98.9,101,98.92q-28.46.1-56.91,0c-6.26,0-10.06-3.21-10-8S37.85,83.07,44.23,83C53.88,83,63.53,83,73.18,83Z"/></g></g></svg>