<svg xmlns="http://www.w3.org/2000/svg" viewBox="0 0 195.74 107.63"><defs><style>.cls-1{fill:#464547;}</style></defs><title>ArrowUp</title><g id="Layer_2" data-name="Layer 2"><g id="Layer_1-2" data-name="Layer 1"><path class="cls-1" d="M98.57,13l-39,40.6Q35.86,78.3,12.16,103c-4.69,4.88-7.75,5.8-10.53,3.26s-2-6.06,2.79-11Q48.54,49.28,92.64,3.33c4.23-4.4,7.16-4.44,11.32-.11q44.46,46.29,88.9,92.62c.92,1,2.37,1.91,2.51,3,.31,2.39.83,5.77-.44,7s-4.72.77-7,.16c-1.54-.43-2.71-2.35-4-3.67Q143.3,60.05,102.65,17.71C101.39,16.4,100.25,15,98.57,13Z"/></g></g></svg>