<svg height="339" viewBox="0 0 340 339" width="340" xmlns="http://www.w3.org/2000/svg"><g fill="none" fill-rule="evenodd" transform="translate(3 3)"><circle cx="167" cy="166.26" fill="#fff" fill-rule="nonzero" r="166.1"/><circle cx="167" cy="166.26" r="166.1" stroke="#dcddde" stroke-width="6"/><path d="m166.46 207.7 47.39-49.32 39.09-40.72c.90774-.976173 1.869234-1.900943 2.88-2.77 2.46-2 5.65-2.89 7.44-.13 1.171352 2.344668 1.189819 5.099842.05 7.46-2 3.35-5.26 5.95-8 8.84-27.56 28.713333-55.123333 57.416667-82.69 86.11-4.6 4.8-7.31 4.77-12-.1-29.08-30.266667-58.146667-60.536667-87.2-90.81-1.49-1.56-3.56-3.04-4.08-4.92-.58-2.06-.48-5.4.8-6.58s4.55-.91 6.62-.24c1.71.54 3 2.54 4.37 4 27.113333 28.2 54.22 56.413333 81.32 84.64 1.25 1.3 2.4 2.71 4.01 4.54z" fill="#ac162c" fill-rule="nonzero"/></g></svg>