<?xml version="1.0" encoding="UTF-8"?>
<svg width="340px" height="339px" viewBox="0 0 340 339" version="1.1" xmlns="http://www.w3.org/2000/svg" xmlns:xlink="http://www.w3.org/1999/xlink">
    <!-- Generator: Sketch 64 (93537) - https://sketch.com -->
    <title>Group</title>
    <desc>Created with Sketch.</desc>
    <g id="Page-1" stroke="none" stroke-width="1" fill="none" fill-rule="evenodd">
        <g id="Group" transform="translate(3.000000, 3.000000)">
            <g id="ArrowButtonBase">
                <circle id="Oval" fill="#FFFFFF" fill-rule="nonzero" cx="167" cy="166.26" r="166.1"></circle>
                <circle id="Oval" stroke="#DCDDDE" stroke-width="6" cx="167" cy="166.26" r="166.1"></circle>
                <path d="M167.843762,123.193357 L99.8908847,193.642035 C98.3937458,195.190357 97.1012517,197.233283 95.2594476,198.050453 C93.4176435,198.867624 91.1880912,198.308507 89.0339344,198.362268 C88.9424083,196.26144 89.036116,194.156647 89.3139748,192.072208 C89.550932,190.996984 90.89728,190.190566 91.7697135,189.287378 L161.973684,116.483959 C166.422018,111.871248 168.177656,111.849743 172.529053,116.354932 C196.066806,140.726676 219.590199,165.12351 243.09923,189.545431 C244.090142,190.620655 245.587281,191.599109 245.791926,192.771103 C246.12582,194.620489 246.158133,197.147265 245.124137,198.416029 C244.391724,199.308465 241.494383,199.071916 239.911078,198.416029 C238.327773,197.760143 237.229153,196.11505 235.990513,194.824781 C214.563833,172.689503 193.155104,150.511215 171.764327,128.289919 C170.367275,126.662147 169.058546,124.960857 167.843762,123.193357 Z" id="Path" fill="#AC162C" fill-rule="nonzero"></path>
                <path d="M167.114076,202.023623 C177.154909,202.023623 187.195742,201.970472 197.225802,202.023623 C204.066927,202.023623 208.063868,205.297714 208,210.527757 C207.934587,215.757799 203.916099,218.925589 197.085747,218.946849 C176.644967,219.017717 156.207778,219.017717 135.77418,218.946849 C129.030016,218.946849 124.936114,215.534565 125,210.442715 C125.065395,205.350865 129.051562,202.098034 135.925008,202.023623 C146.321364,202.023623 156.71772,202.023623 167.114076,202.023623 Z" id="Path" fill="#AC162C" fill-rule="nonzero"></path>
            </g>
        </g>
    </g>
</svg>