<?xml version="1.0" encoding="UTF-8"?>
<svg width="340px" height="339px" viewBox="0 0 340 339" version="1.1" xmlns="http://www.w3.org/2000/svg" xmlns:xlink="http://www.w3.org/1999/xlink">
    <!-- Generator: Sketch 64 (93537) - https://sketch.com -->
    <title>Group</title>
    <desc>Created with Sketch.</desc>
    <g id="Page-1" stroke="none" stroke-width="1" fill="none" fill-rule="evenodd">
        <g id="Group" transform="translate(3.000000, 3.000000)">
            <g id="ArrowButtonBase">
                <circle id="Oval" fill="#FFFFFF" fill-rule="nonzero" cx="167" cy="166.26" r="166.1"></circle>
                <circle id="Oval" stroke="#DCDDDE" stroke-width="6" cx="167" cy="166.26" r="166.1"></circle>
                <path d="M167.843762,143.193357 L99.8908847,213.642035 C98.3937458,215.190357 97.1012517,217.233283 95.2594476,218.050453 C93.4176435,218.867624 91.1880912,218.308507 89.0339344,218.362268 C88.9424083,216.26144 89.036116,214.156647 89.3139748,212.072208 C89.550932,210.996984 90.89728,210.190566 91.7697135,209.287378 L161.973684,136.483959 C166.422018,131.871248 168.177656,131.849743 172.529053,136.354932 C196.066806,160.726676 219.590199,185.12351 243.09923,209.545431 C244.090142,210.620655 245.587281,211.599109 245.791926,212.771103 C246.12582,214.620489 246.158133,217.147265 245.124137,218.416029 C244.391724,219.308465 241.494383,219.071916 239.911078,218.416029 C238.327773,217.760143 237.229153,216.11505 235.990513,214.824781 C214.563833,192.689503 193.155104,170.511215 171.764327,148.289919 C170.367275,146.662147 169.058546,144.960857 167.843762,143.193357 Z" id="Path" fill="#AC162C" fill-rule="nonzero" transform="translate(167.500000, 176.000000) rotate(-180.000000) translate(-167.500000, -176.000000) "></path>
                <path d="M169.114076,113.023623 C179.154909,113.023623 189.195742,112.970472 199.225802,113.023623 C206.066927,113.023623 210.063868,116.297714 210,121.527757 C209.934587,126.757799 205.916099,129.925589 199.085747,129.946849 C178.644967,130.017717 158.207778,130.017717 137.77418,129.946849 C131.030016,129.946849 126.936114,126.534565 127,121.442715 C127.065395,116.350865 131.051562,113.098034 137.925008,113.023623 C148.321364,113.023623 158.71772,113.023623 169.114076,113.023623 Z" id="Path" fill="#AC162C" fill-rule="nonzero" transform="translate(168.500000, 121.500000) rotate(-180.000000) translate(-168.500000, -121.500000) "></path>
            </g>
        </g>
    </g>
</svg>