<?xml version="1.0" encoding="UTF-8"?>
<svg width="340px" height="339px" viewBox="0 0 340 339" version="1.1" xmlns="http://www.w3.org/2000/svg" xmlns:xlink="http://www.w3.org/1999/xlink">
    <!-- Generator: Sketch 64 (93537) - https://sketch.com -->
    <title>Group</title>
    <desc>Created with Sketch.</desc>
    <g id="Page-1" stroke="none" stroke-width="1" fill="none" fill-rule="evenodd">
        <g id="Group" transform="translate(3.000000, 3.000000)">
            <g id="ArrowButtonBase">
                <circle id="Oval" fill="#FFFFFF" fill-rule="nonzero" cx="167" cy="166.26" r="166.1"></circle>
                <circle id="Oval" stroke="#DCDDDE" stroke-width="6" cx="167" cy="166.26" r="166.1"></circle>
                <path d="M166.46,207.7 L213.85,158.38 L252.94,117.66 C253.84774,116.683827 254.809234,115.759057 255.82,114.89 C258.28,112.89 261.47,112 263.26,114.76 C264.431352,117.104668 264.449819,119.859842 263.31,122.22 C261.31,125.57 258.05,128.17 255.31,131.06 C227.75,159.773333 200.186667,188.476667 172.62,217.17 C168.02,221.97 165.31,221.94 160.62,217.07 C131.54,186.803333 102.473333,156.533333 73.42,126.26 C71.93,124.7 69.86,123.22 69.34,121.34 C68.76,119.28 68.86,115.94 70.14,114.76 C71.42,113.58 74.69,113.85 76.76,114.52 C78.47,115.06 79.76,117.06 81.13,118.52 C108.243333,146.72 135.35,174.933333 162.45,203.16 C163.7,204.46 164.85,205.87 166.46,207.7 Z" id="Path" fill="#AC162C" fill-rule="nonzero" transform="translate(166.576311, 166.883149) rotate(-180.000000) translate(-166.576311, -166.883149) "></path>
            </g>
        </g>
    </g>
</svg>