<svg xmlns="http://www.w3.org/2000/svg" viewBox="0 0 147.96 98.93"><defs><style>.cls-1{fill:#484749;}.cls-2{fill:#454446;}</style></defs><title>ArrowDownMax</title><g id="Layer_2" data-name="Layer 2"><g id="Layer_1-2" data-name="Layer 1"><path class="cls-1" d="M74.08,90.39c1.81-2.55,2.69-4.2,3.94-5.49Q107.27,54.39,136.61,24c.46-.48.9-1,1.39-1.43,2.48-2.22,4.84-6.46,8.57-2.77,3.44,3.41-.31,6-2.52,8.31q-27.18,28.35-54.44,56.6C85.8,88.64,82,92.57,78.2,96.6c-2.88,3.1-5.53,3.1-8.48,0Q36.32,61.82,2.82,27c-2-2.1-4.29-4.51-1.57-7.29,3-3.05,5.45-.53,7.58,1.68Q39.19,52.94,69.51,84.5C70.88,85.92,72,87.62,74.08,90.39Z"/><path class="cls-2" d="M74.22,16c-9.82,0-19.64,0-29.46,0-4.38,0-7.91-1.54-9.07-6.2C34.4,4.5,38.33.19,44.81.09,55.46-.07,66.11,0,76.76,0c8.83,0,17.65,0,26.47,0,4.36,0,7.88,1.66,9.06,6.28,1.31,5.12-2.45,9.45-8.61,9.57C93.86,16.1,84,16,74.22,16Z"/></g></g></svg>