<svg xmlns="http://www.w3.org/2000/svg" viewBox="0 0 176.28 173.24"><defs><style>.cls-1{fill:#424143;}.cls-2{fill:#454546;}.cls-3{fill:#454446;}</style></defs><title>LightIconReading</title><g id="Layer_2" data-name="Layer 2"><g id="Layer_1-2" data-name="Layer 1"><path class="cls-1" d="M166.84,44.5V76c-10.88,4-15.66,12-15.52,25.82.13,13.23,4.89,20.81,15.52,24.52a17,17,0,0,1,.21,1.86c0,9.31,0,18.63,0,28.51L91.68,173.17V168q0-51.46,0-102.92c0-2.52-.37-4.71,3.29-5.48,22.93-4.81,45.8-9.88,68.7-14.85A25.69,25.69,0,0,1,166.84,44.5Z"/><path class="cls-1" d="M9.38,76.33V44.13l74.87,16.3V173.24c-8.58-1.89-16.78-3.71-25-5.49-15.43-3.37-30.85-6.79-46.32-10-2.8-.58-3.88-1.52-3.81-4.5.19-8.82.07-17.65.07-26.45,11.94-3.75,15.62-11.7,15.47-26.4S19.57,79.16,9.38,76.33Z"/><path class="cls-1" d="M42.34,44.3C42.07,31,47,20.47,56.48,11.79,80.15-9.94,123.87-.92,132.66,33c.17.64.35,1.29.47,1.94,1.65,8.83,1.4,9.24-7.32,11.19-9.58,2.14-19.24,4-28.74,6.41a36.22,36.22,0,0,1-18.09,0C66.89,49.52,54.7,47,42.34,44.3Z"/><path class="cls-2" d="M0,101.61c1.47-5.15,2.19-10,4.22-14.18,2.57-5.34,7-5.28,10.41-.52,4.8,6.64,4.55,23-.44,29.4-3.19,4.07-7.18,4.24-9.51-.38C2.44,111.49,1.5,106.39,0,101.61Z"/><path class="cls-3" d="M176.28,101.33c-1.56,5.13-2.4,9.93-4.45,14.13-2.56,5.21-7.18,5-10.39.13-4.64-7.08-4.45-22.21.37-29.06,2.9-4.13,7.3-4.46,9.54,0S174.69,96.37,176.28,101.33Z"/></g></g></svg>