<svg xmlns="http://www.w3.org/2000/svg" viewBox="0 0 181.1 181.59"><defs><style>.cls-1{fill:#444345;}.cls-2{fill:#474648;}.cls-3{fill:#464547;}</style></defs><title>LightIconSoft</title><g id="Layer_2" data-name="Layer 2"><g id="Layer_1-2" data-name="Layer 1"><path class="cls-1" d="M99.9,38.49V169.87c0,8.77-3,11.73-11.61,11.72-41.8-.05-80.32-34-87.07-75.42C-6.87,56.39,26.25,12.1,70.69,2.4A126.69,126.69,0,0,1,90.43,0c5.45-.32,9.38,3.88,9.43,9.45C100,19.14,99.89,28.82,99.9,38.49ZM80.38,161.66V20.12C44.44,26.05,19.26,55.25,19.05,90.84,18.85,126,44.72,156.05,80.38,161.66Z"/><path class="cls-2" d="M171.47,100.25A9.25,9.25,0,0,1,162,90.81c.05-5,4.65-9.65,9.55-9.74,5.21-.09,9.62,4.54,9.55,10S177,100.33,171.47,100.25Z"/><path class="cls-3" d="M140.62,161.57c0,5.51-3.77,9.3-9.37,9.33a9.47,9.47,0,0,1-9.69-9.29,9.74,9.74,0,0,1,9.27-9.78A9.64,9.64,0,0,1,140.62,161.57Z"/><path class="cls-3" d="M161.26,59.88a9.91,9.91,0,0,1-9.92-9.62,9.53,9.53,0,1,1,19,.58A9,9,0,0,1,161.26,59.88Z"/><path class="cls-2" d="M161,141.08a9.74,9.74,0,0,1-9.66-9.39,9.6,9.6,0,0,1,9.33-9.69,9.94,9.94,0,0,1,9.73,9.37A9.82,9.82,0,0,1,161,141.08Z"/><path class="cls-3" d="M140.62,20.81c0,5.69-3.62,9.28-9.31,9.23a10,10,0,0,1-9.7-9.36c-.18-4.88,4.91-9.83,10-9.72S140.62,15.33,140.62,20.81Z"/></g></g></svg>