<svg xmlns="http://www.w3.org/2000/svg" viewBox="0 0 144.38 145.99"><defs><style>.cls-1{fill:#424143;}.cls-2{fill:#444345;}</style></defs><title>LightIconNight</title><g id="Layer_2" data-name="Layer 2"><g id="Layer_1-2" data-name="Layer 1"><path class="cls-1" d="M74.46,146C31.32,145.32-2,111.05.1,67.91,1.55,38.74,16.51,17.24,42.83,4.07c1.18-.59,4-.43,4.24.13a7.92,7.92,0,0,1,.31,5.33C40.69,26.68,40.27,43.91,47,61a67.69,67.69,0,0,0,87.6,38.27,7.39,7.39,0,0,1,2.33-.82c1.7,0,4.11-.41,4.9.5s.64,3.53,0,4.92a74.57,74.57,0,0,1-20.71,25.87C107.66,140.33,90.92,146.24,74.46,146Z"/><path class="cls-2" d="M98.6,37.69C93.78,34.16,89,30.83,84.47,27.23c-1.24-1-1.81-2.81-2.69-4.26,1.63-.81,3.22-2.21,4.9-2.34a108.26,108.26,0,0,1,13.48-.06c3,.15,4.54-.79,5.33-3.79a114.78,114.78,0,0,1,4.35-13.26c.57-1.42,2.34-2.36,3.55-3.52,1.06,1.15,2.56,2.12,3.09,3.47,1.73,4.49,2.87,9.22,4.77,13.64a6.35,6.35,0,0,0,4.37,3.25c4.8.43,9.67,0,14.48.28a6,6,0,0,1,4.2,2.45c.41.66-.92,3-2,3.89a113.06,113.06,0,0,1-10.89,7.94c-2.81,1.8-3.83,3.55-2.34,6.9a61.76,61.76,0,0,1,3.65,11.37c.46,2-.13,4.22-.24,6.33-2.09-.61-4.41-.84-6.2-1.93a114.29,114.29,0,0,1-10.12-7.3c-1.94-1.5-3.39-1.95-5.61-.09a101.58,101.58,0,0,1-11.79,8.35c-1.32.82-3.28.6-4.95.85-.2-1.65-.93-3.44-.52-4.93C94.83,48.89,96.75,43.41,98.6,37.69Z"/></g></g></svg>