<svg xmlns="http://www.w3.org/2000/svg" viewBox="0 0 204.06 204.71"><defs><style>.cls-1{fill:#464547;}.cls-2{fill:#444345;}.cls-3{fill:#4b4a4c;}.cls-4{fill:#454446;}.cls-5{fill:#434244;}.cls-6{fill:#424143;}</style></defs><title>LightIconFull</title><g id="Layer_2" data-name="Layer 2"><g id="Layer_1-2" data-name="Layer 1"><path class="cls-1" d="M102.44,49.29c29.12,0,52.5,23.84,52.48,53.47,0,28.8-23.91,52.52-52.88,52.48-30,0-52.89-23.42-52.82-53.89C49.28,72.48,73,49.27,102.44,49.29Zm-.49,10c-23,0-42.74,19.36-42.78,41.87,0,24.8,19,44.57,43.07,44,23.54-.53,42.46-17.55,42.47-42.61C144.72,75.37,123.35,59.13,102,59.28Z"/><path class="cls-2" d="M20.78,97.1c4.66,0,9.33-.06,14,0,3.28.06,6.16,1.2,6.31,4.94s-2.62,5.34-5.88,5.39q-14.73.26-29.48,0c-3.18-.06-6-1.34-5.7-5.4.28-3.88,3-4.85,6.26-4.92C11.11,97,16,97.09,20.78,97.1Z"/><path class="cls-2" d="M183.5,97.1q7,0,14,0c3.52,0,6.44,1.12,6.59,5.14.13,3.86-2.78,5.18-6,5.24q-14.48.24-28.94,0c-3.21,0-6.19-1.31-6.12-5.12.07-4,3-5.22,6.52-5.25C174.18,97.08,178.84,97.1,183.5,97.1Z"/><path class="cls-3" d="M61.2,56.18C60,57.52,59,59.67,57.73,59.87c-2,.3-4.77-.06-6.17-1.31C46.5,54,41.87,49,37.11,44.18c-2.32-2.36-4.57-4.79-6.84-7.2s-2.37-4.65-.16-7,4.77-2.14,7,0Q48.23,41,59.19,52.21C60.05,53.08,60.36,54.48,61.2,56.18Z"/><path class="cls-1" d="M149.81,60.57c-4.06.19-6.77-3.44-5.59-6.51a9.73,9.73,0,0,1,2.23-3.25q9.81-10,19.74-19.82c2.41-2.38,5.22-4.18,8.21-1.08s1.46,5.69-1.08,8.21c-6.62,6.56-13.15,13.22-19.79,19.76A25.17,25.17,0,0,1,149.81,60.57Z"/><path class="cls-4" d="M143.13,148.58c1.26-1.48,2.14-3.38,3.54-3.9s4-.38,5,.58c7.9,7.58,15.68,15.3,23.13,23.33,1,1,.55,4.7-.55,6-2.08,2.52-5.07,2.06-7.43-.26-4.74-4.65-9.4-9.38-14.09-14.08-2.35-2.35-4.79-4.62-7-7.1C144.72,152,144.17,150.46,143.13,148.58Z"/><path class="cls-5" d="M107.21,20.44c0,4.66,0,9.33,0,14,0,3.46-1.08,6.69-5.07,6.69s-5.22-3-5.22-6.58c0-9.49-.06-19,0-28.49,0-3.26,1-6,5-6s5.12,2.63,5.21,5.94C107.29,10.77,107.2,15.61,107.21,20.44Z"/><path class="cls-6" d="M107.19,184.64c0,4.67,0,9.34,0,14,0,3.44-1.53,6.13-5.15,6.07s-5.12-2.67-5.12-6.15q0-14.51,0-29c0-3.45,1.64-6.12,5.16-6.14s5,2.9,5.09,6.22C107.26,174.63,107.19,179.64,107.19,184.64Z"/><path class="cls-4" d="M61.33,148.85c-1.28,2-2,3.48-3.07,4.61-6.76,6.9-13.62,13.7-20.41,20.56-2.5,2.52-5.3,3.17-7.87.58s-1.72-5.33.78-7.8C37.63,160,44.3,153,51.33,146.41a8.08,8.08,0,0,1,6.12-1.68C58.87,145,60,147.29,61.33,148.85Z"/></g></g></svg>