<svg xmlns="http://www.w3.org/2000/svg" viewBox="0 0 1097 1724"><defs><style>.cls-1{fill:#f5f5f5;}.cls-2{fill:#f7f7f7;}.cls-3{fill:#f0f0f0;}.cls-4{fill:#e9e9e9;}.cls-5{fill:#efefef;}.cls-6{fill:#ebebeb;}.cls-7{fill:#f2f2f2;}.cls-8{fill:#f3f3f3;}.cls-9{fill:#f1f1f1;}.cls-10{fill:#f4f4f4;}</style></defs><title>ElevatorBackground2</title><g id="Layer_2" data-name="Layer 2"><g id="Layer_1-2" data-name="Layer 1"><path class="cls-1" d="M1097,861.55q0,370.73-.11,741.47c0,19.26-2.13,38.38-10.91,56.14-16.28,32.92-42.1,53.83-78,61.67a139.77,139.77,0,0,1-29.57,3.05q-429.48.22-859,0c-24.95,0-48.78-5-69.83-19.54-25.71-17.83-41.47-42.21-47.37-72.76a147.36,147.36,0,0,1-2.18-27.7Q-.07,861.46.06,119c0-24.82,5.1-48.44,19.54-69.33C37.4,23.92,61.8,8.18,92.35,2.27A148.2,148.2,0,0,1,120.05.09q429-.16,858,0c24.82,0,48.44,5.11,69.33,19.55,25.73,17.8,41.49,42.2,47.37,72.75a150.17,150.17,0,0,1,2.18,28.21Q1097.08,491.07,1097,861.55ZM6,682v4c-.66,1.62-1.87,3.23-1.9,4.86-.19,9.27-.16,18.54,0,27.81,0,1.13,1.25,2.24,1.92,3.36V725c-.67,2.07-1.92,4.13-1.92,6.19Q3.95,903.09,4,1075v252q0,136.34,0,272.68A41.65,41.65,0,0,0,5,1606c.23,2-3.11,4.65,1,6L7,1615l-2.5.77L6,1617v4q2,12,4,24l1,2,2,6,1,3,4,8,2,3c8.26,13.6,19.23,24.65,32,34l3,2h1c.26.58.37,1.52.81,1.71,8,3.48,16.12,6.87,24.19,10.28h4c.78.68,1.49,1.82,2.36,2,7.17,1.12,14.38,2.9,21.58,2.91q244,.24,487.93.12,196,0,391.94-.17c6.74,0,13.46-2.49,20.19-3.82h4l10-4h1l4-2,3-1,3-2h1l5-3c3.34-2.34,6.7-4.64,10-7a91.92,91.92,0,0,0,26-29c.85-.43,2.18-.64,2.48-1.31,2.61-5.85,5-11.79,7.51-17.69.33-2,.67-4,1-6,.68-.78,1.82-1.48,2-2.34,1.44-8.63,3.86-17.29,3.87-25.94q.27-741.65.12-1483.29c0-11.46-.31-22.93-1.13-34.35C1091.53,93,1089.33,89,1088,85c0-.67,0-1.33,0-2-.33-.67-.67-1.33-1-2l-1-6c-2.48-5.91-4.9-11.85-7.51-17.7-.3-.67-1.63-.88-2.48-1.31-2.8-3.66-5.49-7.4-8.4-11-9.17-11.23-19.37-21.39-33-27.1-9.7-4.07-19.75-7.33-29.64-11l-2-2c-5.45-.33-10.9-1-16.35-1Q548.61,4,110.57,4A133.53,133.53,0,0,0,93.73,5.16C90.74,5.54,87.9,7,85,8L82,9c-10,1.72-19.14,5.44-27,12-5.78,4.28-12.31,7.85-17.15,13C30.91,41.4,25.21,50,19,58l-1,2-4,8-1,2Q9.49,83.5,6,97l-1,3,2,7c0,5.57,0,11.15,0,16.72q.5,126.42,1,252.85c.13,41,0,82,0,123a22.2,22.2,0,0,1-1,5.28c-.58,2.31-1.87,4.59-1.85,6.87.18,19.29.9,38.58.85,57.87C5.84,604.08,5.32,638.53,5,673l1,4c0,1.31,0,2.62,0,3.94Z"/><path class="cls-2" d="M5,673c.33-34.46.85-68.91.94-103.36.05-19.29-.67-38.58-.85-57.87,0-2.28,1.27-4.56,1.85-6.87a22.2,22.2,0,0,0,1-5.28c.06-41,.15-82,0-123Q7.58,250.2,7,123.77c0-5.57,0-11.15,0-16.72.66-2.22,1.72-4.4,1.91-6.65C10.55,81.2,17.56,64.29,29.27,49,48.7,23.58,74.53,10.64,106,8H990c2.12.32,4.23.75,6.36,1,26.42,2.66,48.27,14.07,66,33.81,14.92,16.61,23.59,35.81,25.76,58,.21,2.15,1.87,4.15,2.86,6.22q0,741.68-.09,1483.36c0,8.87-1.24,17.75-1.9,26.63-.86,6-1.24,12.21-2.65,18.12-5.18,21.72-15.85,40.16-32.86,55-18.78,16.37-40.53,25.71-65.23,25.73q-442.63.36-885.27.16l-5-1-5,1c-2.07-1-4-2.4-6.21-3-23.86-6.09-43.2-18.8-58.12-38.47-12.08-15.93-18.25-34-20.7-53.57l-1-4v-2L6,1612c4.32-1.75.79-4.65,1-7a35.26,35.26,0,0,0,.93-5.7Q8,1463.16,8,1327V730.85a15.89,15.89,0,0,0-.14-4C7.66,726.14,6.64,725.6,6,725V722c.66-1.45,1.87-2.9,1.9-4.37.2-7.79.18-15.59,0-23.38A80.13,80.13,0,0,0,7,686v-3c0-.33,0-.65,0-1L6,681c0-1.31,0-2.62,0-3.93l1.84-1.82Z"/><path class="cls-3" d="M990,8H106c-1.11-.65-2.26-1.9-3.32-1.82-3.09.23-6.13,1.13-9.22,1.48C90.65,8,87.81,7.91,85,8c2.91-1,5.75-2.47,8.74-2.85A133.53,133.53,0,0,1,110.57,4Q548.6,4,986.64,4c5.45,0,10.9.63,16.35,1V7c-3.57-.25-7.13-.61-10.7-.66C991.53,6.33,990.76,7.42,990,8Z"/><path class="cls-3" d="M1089,1617c.66-8.88,1.9-17.76,1.9-26.63Q1091,848.71,1091,107q-1.5-11-3-22c1.33,4,3.53,8,3.82,12.08.82,11.42,1.13,22.89,1.13,34.35q.08,741.65-.12,1483.29c0,8.65-2.43,17.31-3.87,25.94-.15.86-1.29,1.56-2,2.34,1.26-6.91,2.68-13.79,3.65-20.74C1090.87,1620.62,1089.59,1618.76,1089,1617Z"/><path class="cls-4" d="M1089,1617c.59,1.75,1.87,3.61,1.64,5.25-1,7-2.39,13.83-3.65,20.74-.33,2-.67,4-1,6l-10,19a91.92,91.92,0,0,1-26,29c-3.32,2.38-6.68,4.68-10,7l-5,3h-1l-3,2-3,1-4,2h-1l-10,4h-4a8.15,8.15,0,0,0-2.18-.42c-9.06.77-18.11,2.31-27.16,2.31q-438.33.18-876.66.1v-2q442.64,0,885.27-.16c24.7,0,46.45-9.36,65.23-25.73,17-14.83,27.68-33.27,32.86-55C1087.76,1629.22,1088.14,1623.06,1089,1617Z"/><path class="cls-3" d="M103,1718q438.33,0,876.66-.1c9.05,0,18.1-1.54,27.16-2.31a8.15,8.15,0,0,1,2.18.42c-6.73,1.33-13.45,3.81-20.19,3.82q-196,.35-391.94.17-244,0-487.93-.12c-7.2,0-14.41-1.79-21.58-2.91-.87-.14-1.58-1.28-2.36-2l8,1,5-1Z"/><path class="cls-5" d="M6,725c.64.63,1.66,1.17,1.85,1.91a15.89,15.89,0,0,1,.14,4V1075H4q0-171.93.07-343.85C4.08,729.1,5.33,727,6,725Z"/><path class="cls-4" d="M8,1327q0,136.17,0,272.33A35.26,35.26,0,0,1,7,1605l-2,1a41.65,41.65,0,0,1-1-6.31Q4,1463.36,4,1327Z"/><path class="cls-5" d="M8,1327H4V1171H8Z"/><path class="cls-4" d="M85,8c2.82-.1,5.66,0,8.46-.35,3.09-.35,6.13-1.25,9.22-1.48C103.73,6.1,104.88,7.35,106,8,74.53,10.64,48.7,23.58,29.27,49,17.56,64.29,10.55,81.2,8.91,100.4c-.19,2.25-1.25,4.43-1.91,6.65q-1-3.52-2-7l1-3q3.49-13.5,7-27l1-2q2-4,4-8l1-2c6.22-8,11.92-16.6,18.85-24C42.68,28.85,49.21,25.28,55,21a13.63,13.63,0,0,0,2.9-.5Q69.08,15.84,80.2,11C81,10.68,81.4,9.69,82,9Z"/><path class="cls-4" d="M1088,85q1.49,11,3,22c-1-2.07-2.65-4.07-2.86-6.22-2.17-22.22-10.84-41.42-25.76-58C1044.63,23,1022.78,11.62,996.36,9c-2.13-.21-4.24-.64-6.36-1,.76-.58,1.53-1.67,2.29-1.66,3.57,0,7.13.41,10.7.66h2c9.89,3.62,19.94,6.88,29.64,11,13.6,5.71,23.8,15.87,33,27.1,2.91,3.56,5.6,7.3,8.4,11,1.83,3.67,3.61,7.36,5.51,11,1.41,2.71,3,5.35,4.48,8l1,6c.33.67.67,1.33,1,2C1088,83.67,1088,84.33,1088,85Z"/><path class="cls-4" d="M8,1171H4v-96H8Z"/><path class="cls-6" d="M93,1716l-8-1H81c-.28-.57-.43-1.46-.87-1.66-8-3.49-16.08-6.9-24.13-10.33H55l-3-2c-12.77-9.35-23.74-20.4-32-34l-2-3-4-8-1-3-2-6-1-2q-2-12-4-24H8c2.45,19.58,8.62,37.64,20.7,53.57C43.61,1694.24,63,1707,86.81,1713,89,1713.6,91,1715,93,1716Z"/><path class="cls-5" d="M7,686a80.13,80.13,0,0,1,1,8.28c.13,7.79.15,15.59,0,23.38,0,1.47-1.24,2.92-1.9,4.37-.67-1.12-1.9-2.23-1.92-3.36-.15-9.27-.18-18.54,0-27.81,0-1.63,1.24-3.24,1.9-4.86Z"/><path class="cls-5" d="M82,9c-.59.69-1,1.68-1.79,2Q69.09,15.86,57.89,20.5A13.63,13.63,0,0,1,55,21C62.85,14.44,72,10.72,82,9Z"/><path class="cls-5" d="M56,1703c8.05,3.43,16.1,6.84,24.13,10.33.44.2.59,1.09.87,1.66-8.07-3.41-16.15-6.8-24.19-10.28C56.36,1704.53,56.25,1703.59,56,1703Z"/><path class="cls-7" d="M1086,75c-1.5-2.67-3.07-5.31-4.48-8-1.9-3.63-3.68-7.32-5.51-11,.85.43,2.18.64,2.48,1.31C1081.09,63.16,1083.51,69.1,1086,75Z"/><path class="cls-7" d="M1076,1668l10-19c-2.48,5.9-4.9,11.84-7.51,17.69C1078.18,1667.36,1076.85,1667.57,1076,1668Z"/><path class="cls-5" d="M5,1606l2-1c-.23,2.35,3.3,5.25-1,7C1.88,1610.65,5.22,1608,5,1606Z"/><path class="cls-8" d="M1013,1716l10-4Z"/><path class="cls-4" d="M5,673l2.85,2.22L6,677C5.66,675.69,5.32,674.34,5,673Z"/><path class="cls-8" d="M1035,1707l5-3Z"/><path class="cls-4" d="M8,1621H6c0-1.33,0-2.67,0-4H7Z"/><path class="cls-8" d="M18,1664l2,3Z"/><path class="cls-8" d="M1024,1712l4-2Z"/><path class="cls-9" d="M6,97l-1,3Z"/><path class="cls-5" d="M7,1617H6l-1.49-1.26L7,1615C7,1615.64,7,1616.32,7,1617Z"/><path class="cls-8" d="M13,1653l1,3Z"/><path class="cls-5" d="M52,1701l3,2Z"/><path class="cls-8" d="M1031,1709l3-2Z"/><path class="cls-8" d="M19,58l-1,2Z"/><path class="cls-8" d="M14,68l-1,2Z"/><path class="cls-3" d="M1088,83c-.33-.67-.67-1.33-1-2C1087.32,81.67,1087.66,82.33,1088,83Z"/><path class="cls-9" d="M10,1645l1,2Z"/><path class="cls-10" d="M1005,7h-2V5Z"/><path class="cls-4" d="M7,686H6v-3H7Z"/><path class="cls-5" d="M7,683H6v-1H7C7,682.35,7,682.67,7,683Z"/><path class="cls-4" d="M7,682H6v-1Z"/><path class="cls-6" d="M103,1718l-5-3,5,1Z"/></g></g></svg>