<svg xmlns="http://www.w3.org/2000/svg" viewBox="0 0 559.03 1726.42"><defs><style>.cls-1{fill:#fafafa;}.cls-2{fill:#f7f7f7;}.cls-3{fill:#f4f4f4;}.cls-4{fill:#f1f1f1;}.cls-5{fill:#eaeaea;}.cls-6{fill:#f3f3f3;}.cls-7{fill:#e9e9e9;}.cls-8{fill:#f6f6f6;}.cls-9{fill:#ebebeb;}.cls-10{fill:#f2f2f2;}.cls-11{fill:#efefef;}</style></defs><title>ElevatorBackground1</title><g id="Layer_2" data-name="Layer 2"><g id="Layer_1-2" data-name="Layer 1"><path class="cls-1" d="M559,863.2q0,377.52-.18,755c0,25.5-9.76,48.11-26.06,67.92-15,18.25-34.14,29.91-56.61,36.1a96.14,96.14,0,0,1-24.91,3.9c-114.66.25-229.32.44-344-.05-25.11-.11-47.43-9.85-67-25.89-18-14.75-29.65-33.51-35.9-55.6C2,1636.1.17,1627.06.16,1618.26q-.29-755,0-1510.08c0-25.5,9.77-48.12,26.07-67.93,15-18.24,34.14-29.9,56.61-36.1A96.12,96.12,0,0,1,107.74.26c114.67-.25,229.33-.45,344,0,25.1.11,47.43,9.85,67,25.89,18,14.75,29.64,33.52,35.9,55.61,2.41,8.51,4.21,17.55,4.22,26.35Q559.16,485.67,559,863.2Zm-554-4v1H5l-1,6a33.88,33.88,0,0,0-1,5.68q-.09,52.67,0,105.33,1,10.51,2,21v151a18.28,18.28,0,0,0-1,4.16q-.11,26.34,0,52.69a18.52,18.52,0,0,0,1,4.16c-.33,7.61-.77,15.21-1,22.83-.41,15.76-.89,31.52-1,47.29,0,10.1.79,20.21.88,30.32.16,17.8,0,35.6.09,53.4a29.26,29.26,0,0,0,1,5.18v237c-.89,6.67-3.38,13.34,0,20v3a6.45,6.45,0,0,0-.41,2.18c4.95,27.58,18.21,50.3,40.05,67.87A102.57,102.57,0,0,0,76.74,1717c1.21.4,2.82-.43,4.25-.69l8,2c0,.34,0,.67,0,1,.78.67,1.49,1.8,2.35,1.92,5.89.82,11.81,2,17.73,2q170.48.18,341,0a73.8,73.8,0,0,0,13.85-1.17c27.78-5.3,51.07-18.37,68.61-40.83,15.54-19.89,23.51-42.5,23.51-67.82q0-747.75,0-1495.5a185.54,185.54,0,0,0-1.06-19.86c-1.52-14-7.51-26.51-13.27-39.08-.27-.58-1.73-.62-2.64-.92-.66-1-1.33-2-2-3-.47-1.35-.65-2.93-1.48-4-3.67-4.83-7.31-9.72-11.38-14.21-2.41-2.66-4.43-6.51-9.13-5.78q-2-2-4-4c-.86-1.11-1.52-2.48-2.61-3.26a83.8,83.8,0,0,0-9.18-5.91C488.15,12,477,6.25,464,6.08l-2-1h-6l-5-1H108l-4,1H97l-2,1c-2.15.11-4.39-.13-6.45.38C74.14,10,60.72,15.78,48.78,24.7c-1.51,1.13-2.54,2.91-3.79,4.38l-2,2c-1.62.45-3.7.41-4.79,1.43C26,44.08,16.32,57.58,10.56,73.41,7.81,81,6.79,89.18,5,97.1v3c-1.53,3.34-3.43,6.67,0,10v6c0,1,0,2,0,3-.67,1.29-1.92,2.58-1.93,3.86q-.13,80.16,0,160.3c0,1.29,1.25,2.59,1.91,3.88v19q0,26.5,0,53c-.67,1.95-1.93,3.91-1.93,5.86Q2.94,536.17,3,707.31a16.43,16.43,0,0,0,.14,4c.19.74,1.21,1.28,1.85,1.91,0,1.33,0,2.66,0,4v14c-.66,1.25-1.87,2.48-1.9,3.75-.2,6.46-.18,12.93,0,19.4,0,1,1.23,1.91,1.89,2.86v35a24.88,24.88,0,0,0-1,4.66c-.1,7.78,0,15.57,0,23.35q-.51,3-1,6v13q1,2.5,2,5v4c-.33,1.34-.67,2.67-1,4v3l1,1v3Z"/><path class="cls-2" d="M5,1403.28v-34c.31-.56.87-1.11.9-1.69.74-11.32,2-22.65,2-34q.24-142,.09-284c0-1.33.37-2.84-.13-3.95S6,1044,5,1043.23q0-22.5,0-45c.67-1.92,1.8-3.81,1.92-5.77.28-4.72.09-9.47.09-14.2a10.41,10.41,0,0,0,1-3.16c-.26-13-.58-26-1-39,0-1-1.25-1.89-1.92-2.83v-32c1-.93,3-2,2.84-2.76-.5-3.07,2.18-6.88-1.87-9.16-.25-.14-.64,0-1,0v-4c1-.78,2.81-1.51,2.86-2.33.25-4.93.17-9.89,0-14.83,0-.63-1.21-1.23-1.86-1.84v-6l2-3.25L5,855.21v-3l2-3c2.14-2.89,0-3-2-3,0-.66,0-1.32,0-2,.34-1.68.67-3.35,1-5v-15c.64-.59,1.92-1.36,1.81-1.73-.25-.86-1.17-1.54-1.81-2.29,0-4.45.13-8.9,0-13.35-.18-4.89-.63-9.76-1-14.65v-35c.67-1.71,1.86-3.4,1.92-5.14.23-6.61.1-13.23.1-19.85.31-4.38.74-8.77.8-13.15,0-.61-1.83-1.25-2.81-1.87,0-1.33,0-2.66,0-4,.67-2.23,1.93-4.45,1.93-6.68Q7.06,532.84,7,359.15c.31-.56.9-1.12.9-1.68C8,341.31,8,325.16,7.87,309c0-1-1.88-1.92-2.88-2.88q0-9.5,0-19c.67-2.23,1.93-4.45,1.93-6.67q.16-80.69.09-161.35c.33-3.67.67-7.35,1-11,.73-4,1.4-8.11,2.19-12.15,4.6-23.62,15-43.84,33.2-60.17,19-17,41.11-26.43,66.28-26.52C222.44,8.86,335.22,9,448,9.16c15.61,0,30.46,4,44.51,10.9,13,6.39,23.79,15.49,33.5,26l2,2,2,2c.68,1.5,1.33,3,2,4.49,4.39,9.25,9.49,18.23,13,27.82,2.73,7.52,3.44,15.77,5,23.69,0,.67,0,1.33,0,2v239q0,630.32,0,1260.62a33.17,33.17,0,0,0,1,5.59c.34,2.65.67,5.3,1,8-1,1.38-2.63,2.7-2.76,4.16a98.71,98.71,0,0,1-9.42,32.76,91.72,91.72,0,0,1-23.58,31.53c-5,4.26-10.16,8.39-15.25,12.58a38.74,38.74,0,0,0-4.09,1.71c-14.6,8.08-30.25,13.15-46.89,13.18q-171,.33-342,.11a36.09,36.09,0,0,1-5-.17c-13.86-2-27.31-5.26-39.65-12.17-11.24-6.29-21.76-13.62-29.48-24.06-6.07-8.22-11.31-17.05-16.92-25.6-2.18-8-4.31-16.08-6.56-24.09-1-3.68-2.29-7.3-3.44-11v-13.94c.67-1.79,1.91-3.59,1.91-5.38q.15-91.21,0-182.43a89.24,89.24,0,0,0-1.09-12.85C7.72,1404.76,6,1404.07,5,1403.28Z"/><path class="cls-3" d="M552,1621.29c-.34-2.65-.67-5.3-1-8a37.87,37.87,0,0,0,1-6.08Q552,859.18,552,111.1v-7c-.22-2.46,0-5.06-.72-7.37C547.32,83.81,543.12,71,539,58.1c.91.3,2.37.34,2.64.92,5.76,12.57,11.75,25.11,13.27,39.08A185.54,185.54,0,0,1,556,118q.06,747.75,0,1495.5c0,25.32-8,47.93-23.51,67.82-17.54,22.46-40.83,35.53-68.61,40.83a73.8,73.8,0,0,1-13.85,1.17q-170.48.09-341,0c-5.92,0-11.84-1.18-17.73-2-.86-.12-1.57-1.25-2.35-1.92l3-1h3l4,2c7.17-.33,14.35-.94,21.53-1q152.11-.09,304.22,0c6.08,0,12.14,1.23,18.23,1.69,1.92.14,3.89-.49,5.85-.57,3.72-.15,7.45-.15,11.17-.21l4-2c2.11-.22,4.25-.26,6.33-.67,11.76-2.29,22.49-7.13,32.66-13.34,3.86-3.1,8.1-5.83,11.48-9.38,7.84-8.23,16.68-16,22.53-25.52C545.92,1654.92,550.75,1638.5,552,1621.29Z"/><path class="cls-4" d="M7,359.15q0,173.69-.09,347.37c0,2.23-1.26,4.45-1.93,6.68-.64-.63-1.66-1.17-1.85-1.91a16.43,16.43,0,0,1-.14-4Q3,536.16,3.07,365c0-1.95,1.26-3.91,1.93-5.86Z"/><path class="cls-5" d="M526,46.1c-9.71-10.55-20.53-19.65-33.5-26C478.46,13.15,463.61,9.17,448,9.16c-112.78-.13-225.56-.3-338.33.1-25.17.09-47.26,9.47-66.28,26.52C25.16,52.11,14.79,72.33,10.19,96c-.79,4-1.46,8.1-2.19,12.15H7q0-4,0-8v-3c.65-3,1.37-6,2-9A90.81,90.81,0,0,1,25.83,49.94C31,43.21,37.23,37.34,43,31.09c.66-.67,1.33-1.34,2-2a51.69,51.69,0,0,0,5.27-2.62c10-6.5,20.23-12.59,32.07-15.39,4.29-1,8.44-2.64,12.66-4h2l7-1h4c15.11.33,30.23.94,45.34,1q132.92.13,265.83,0c10.61,0,21.23-.62,31.85-1h5l6,1h2c2.86,1.11,5.73,2.2,8.57,3.34,8.72,3.49,17.47,6.9,26.12,10.56,4.21,1.78,8.22,4.05,12.31,6.1q2,2,4,4c2.35,2.52,4.85,4.92,7,7.6a58.71,58.71,0,0,1,4,6.4Z"/><path class="cls-6" d="M451,6.09c-10.62.33-21.24.94-31.85,1q-132.92.12-265.83,0c-15.11,0-30.23-.62-45.34-1v-2H451Z"/><path class="cls-5" d="M95,1718.33H89l-8-2c-4.76-1.89-9.62-3.56-14.26-5.7a102.93,102.93,0,0,1-38.73-31c-5.18-6.72-10.41-13.61-12-22.34l1-2c5.61,8.55,10.85,17.38,16.92,25.6,7.72,10.44,18.24,17.77,29.48,24.06,12.34,6.91,25.79,10.21,39.65,12.17a36.09,36.09,0,0,0,5,.17q171,0,342-.11c16.64,0,32.29-5.1,46.89-13.18a38.74,38.74,0,0,1,4.09-1.71l2,2c-10.17,6.21-20.9,11-32.66,13.34-2.08.41-4.22.45-6.33.67l-4,2c-3.72.06-7.45.06-11.17.21-2,.08-3.93.71-5.85.57-6.09-.46-12.15-1.68-18.23-1.69q-152.1-.17-304.22,0c-7.18,0-14.36.62-21.53,1Z"/><path class="cls-7" d="M5,1043.23c1,.79,2.4,1.4,2.88,2.43s.13,2.62.13,3.95q0,142-.09,284c0,11.34-1.28,22.67-2,34,0,.58-.59,1.13-.9,1.69a29.26,29.26,0,0,1-1-5.18c-.07-17.8.07-35.6-.09-53.4-.09-10.11-.92-20.22-.88-30.32.07-15.77.55-31.53,1-47.29.19-7.62.63-15.22,1-22.83v-167Z"/><path class="cls-7" d="M5,1403.28c1,.79,2.73,1.48,2.86,2.4a89.24,89.24,0,0,1,1.09,12.85Q9,1509.75,8.9,1601c0,1.79-1.24,3.59-1.91,5.38l-2,0Z"/><path class="cls-4" d="M7,119.12q0,80.67-.09,161.35c0,2.22-1.26,4.44-1.93,6.67-.66-1.29-1.9-2.59-1.91-3.88q-.13-80.14,0-160.3c0-1.28,1.26-2.57,1.93-3.86Z"/><path class="cls-8" d="M16,1657.32c1.61,8.73,6.84,15.62,12,22.34a102.93,102.93,0,0,0,38.73,31c4.64,2.14,9.5,3.81,14.26,5.7-1.43.26-3,1.09-4.25.69a102.57,102.57,0,0,1-32.11-17.67c-21.84-17.57-35.1-40.29-40.05-67.87a6.45,6.45,0,0,1,.41-2.18H7v3c.34,1.67.67,3.34,1,5,0,.33,0,.66,0,1,.34.67.67,1.34,1,2Z"/><path class="cls-4" d="M5,885.2v48q0,22.5,0,45l-2-1q0-52.66,0-105.33a33.88,33.88,0,0,1,1-5.68H5Q5,875.7,5,885.2Z"/><path class="cls-8" d="M43,31.09c-5.76,6.25-12,12.12-17.16,18.85A90.81,90.81,0,0,0,9,88.1c-.59,3-1.31,6-2,9H5C6.79,89.18,7.81,81,10.56,73.41,16.32,57.58,26,44.08,38.2,32.52,39.29,31.5,41.37,31.54,43,31.09Z"/><path class="cls-7" d="M7,359.15H5q0-26.5,0-53c1,1,2.87,1.91,2.88,2.88.16,16.15.1,32.3,0,48.46C7.9,358,7.31,358.59,7,359.15Z"/><path class="cls-9" d="M539,58.1c4.12,12.87,8.32,25.71,12.29,38.63.71,2.31.5,4.91.72,7.37-.33.67-.66,1.34-1,2h-1c-1.61-7.92-2.32-16.17-5-23.69-3.47-9.59-8.57-18.57-13-27.82-.71-1.49-1.36-3-2-4.49l7,5C537.67,56.1,538.34,57.1,539,58.1Z"/><path class="cls-6" d="M511,27.09c-4.09-2.05-8.1-4.32-12.31-6.1-8.65-3.66-17.4-7.07-26.12-10.56-2.84-1.14-5.71-2.23-8.57-3.34v-1c13,.17,24.14,5.94,35.21,11.84a83.8,83.8,0,0,1,9.18,5.91C509.49,24.61,510.15,26,511,27.09Z"/><path class="cls-6" d="M95,7.09c-4.22,1.35-8.37,3-12.66,4-11.84,2.8-22,8.89-32.07,15.39A51.69,51.69,0,0,1,45,29.09c1.25-1.48,2.28-3.26,3.79-4.39C60.72,15.78,74.14,10,88.54,6.46,90.6,6,92.84,6.19,95,6.08Z"/><path class="cls-4" d="M7,732.21c0,6.62.13,13.24-.1,19.85-.06,1.74-1.25,3.43-1.92,5.14-.66-1-1.87-1.89-1.89-2.86-.18-6.47-.2-12.94,0-19.4,0-1.27,1.24-2.5,1.9-3.75Z"/><path class="cls-10" d="M537,55.1l-7-5-2-2-2-3a58.71,58.71,0,0,0-4-6.4c-2.16-2.68-4.66-5.08-7-7.6,4.7-.73,6.72,3.12,9.13,5.78,4.07,4.49,7.71,9.38,11.38,14.21C536.35,52.17,536.53,53.75,537,55.1Z"/><path class="cls-8" d="M3,977.22l2,1,2,0c0,4.73.19,9.48-.09,14.2-.12,2-1.25,3.85-1.92,5.77Q4,987.73,3,977.22Z"/><path class="cls-8" d="M5,1149.25v61a18.52,18.52,0,0,1-1-4.16q-.11-26.36,0-52.69A18.28,18.28,0,0,1,5,1149.25Z"/><path class="cls-8" d="M5,1606.31l2,0v20H5C1.61,1619.65,4.1,1613,5,1606.31Z"/><path class="cls-8" d="M5,792.19c.34,4.89.79,9.76,1,14.65.17,4.45,0,8.9,0,13.35l-1,0H4c0-7.78-.06-15.57,0-23.35A24.88,24.88,0,0,1,5,792.19Z"/><path class="cls-7" d="M7,732.21l-2-1v-14c1,.62,2.82,1.26,2.81,1.87C7.74,723.44,7.31,727.83,7,732.21Z"/><path class="cls-8" d="M6,824.21v15l-3,0v-13l2-2Z"/><path class="cls-8" d="M7,100.1q0,4,0,8l-2,2c-3.43-3.33-1.53-6.66,0-10Z"/><path class="cls-7" d="M5,110.1l2-2H8c-.33,3.67-.67,7.35-1,11l-2,0c0-1,0-2,0-3v-6Z"/><path class="cls-4" d="M3,839.21l3,0c-.34,1.68-.67,3.35-1,5Q4,841.71,3,839.21Z"/><path class="cls-7" d="M5,855.21l3,1.76L6,860.22H5v-1H5v-4Z"/><path class="cls-6" d="M104,6.09l-7,1v-2h7Z"/><path class="cls-8" d="M451,6.09v-2l5,1c0,.33,0,.67,0,1Z"/><path class="cls-6" d="M456,6.09c0-.33,0-.67,0-1h6v2Z"/><path class="cls-4" d="M5,824.19l-2,2q.49-3,1-6H5C5,821.54,5,822.86,5,824.19Z"/><path class="cls-4" d="M7,849.23l-2,3H4c.33-1.34.67-2.67,1-4Z"/><path class="cls-8" d="M104,6.09v-1l4-1v2Z"/><path class="cls-8" d="M5,860.21H6v6l-1,0H4Q4.49,863.21,5,860.21Z"/><path class="cls-7" d="M7,849.23l-2-1v-2C7.05,846.28,9.14,846.34,7,849.23Z"/><path class="cls-8" d="M462,7.09v-2l2,1v1Z"/><path class="cls-8" d="M97,5.09v2H95v-1Z"/><path class="cls-4" d="M7,100.1H5v-3H7Z"/><path class="cls-11" d="M89,1718.32h3l-3,1C89,1719,89,1718.66,89,1718.32Z"/><path class="cls-4" d="M5,1626.31H7c0,1,0,2,0,3H5Z"/><path class="cls-8" d="M4,852.21H5v2H4Z"/><path class="cls-4" d="M5,114.11v0Z"/><path class="cls-3" d="M4,854.21H5v1H4Z"/><path class="cls-4" d="M4,855.21H5v1Z"/><path class="cls-8" d="M5,858.21v0Z"/><path class="cls-8" d="M5,859.21v0Z"/><path class="cls-7" d="M552,111.1q0,748.08,0,1496.16a37.87,37.87,0,0,1-1,6.08,33.17,33.17,0,0,1-1-5.59Q550,977.44,550,347.13v-236Z"/><path class="cls-9" d="M503,1704.32l-2-2c5.09-4.19,10.23-8.32,15.25-12.58a91.72,91.72,0,0,0,23.58-31.53,98.71,98.71,0,0,0,9.42-32.76c.13-1.46,1.8-2.78,2.76-4.16-1.26,17.21-6.09,33.63-15,48.13-5.85,9.54-14.69,17.29-22.53,25.52C511.1,1698.49,506.86,1701.22,503,1704.32Z"/><path class="cls-7" d="M7,978.26l-2,0q0-22.49,0-45c.67.94,1.88,1.87,1.92,2.83.46,13,.78,26,1,39A10.41,10.41,0,0,1,7,978.26Z"/><path class="cls-9" d="M7,1629.31c0-1,0-2,0-3q0-3,0-6c1.15,3.65,2.41,7.27,3.44,11,2.25,8,4.38,16.06,6.56,24.09l-1,2-7-17c-.33-.67-.66-1.34-1-2,0-.33,0-.66,0-1,1.36-2,2.1-3.89-1-5Z"/><path class="cls-7" d="M5,866.22l1,0c.65.61,1.84,1.21,1.86,1.84.17,4.94.25,9.9,0,14.83,0,.82-1.86,1.55-2.86,2.33Q5,875.71,5,866.22Z"/><path class="cls-7" d="M5,901.2v-12c.33,0,.72-.09,1,0,4.05,2.28,1.37,6.09,1.87,9.16C8,899.18,6,900.27,5,901.2Z"/><path class="cls-11" d="M552,111.1h-2v-3c.34-.67.67-1.33,1-2s.67-1.33,1-2Z"/><path class="cls-7" d="M5,824.19c0-1.33,0-2.65,0-4l1,0c.64.75,1.56,1.43,1.81,2.29.11.37-1.17,1.14-1.81,1.73Z"/><path class="cls-7" d="M7,1618.34v0Z"/><path class="cls-9" d="M526,45.09l2,3-2-2Z"/><path class="cls-7" d="M551,106.1c-.33.67-.66,1.33-1,2,0-.67,0-1.33,0-2Z"/><path class="cls-11" d="M460,1720.32l4-2Z"/><path class="cls-11" d="M95,1718.33l4,2Z"/><path class="cls-11" d="M7,1632.31c3.11,1.12,2.37,3,1,5C7.66,1635.65,7.33,1634,7,1632.31Z"/><path class="cls-11" d="M8,1638.31c.34.67.67,1.34,1,2C8.66,1639.65,8.33,1639,8,1638.31Z"/></g></g></svg>